<?xml version="1.0" encoding="utf-8"?>
<!-- Generator: Adobe Illustrator 28.2.0, SVG Export Plug-In . SVG Version: 6.00 Build 0)  -->
<svg version="1.1" id="Layer_1" xmlns="http://www.w3.org/2000/svg" xmlns:xlink="http://www.w3.org/1999/xlink" x="0px" y="0px"
	 viewBox="0 0 128 128" style="enable-background:new 0 0 128 128;" xml:space="preserve">
<g fill="currentColor" id="icon">
	<polygon  points="64,128 15.4,53.2 21.1,52.9 56.9,110.6 61.5,105.3 61.5,80.1 64,71.8 66.6,80.1 66.6,105.3 72,108.5 
		105.8,52.9 112.6,53.3 	"/>
	<polygon  points="21.1,52.9 47.2,49 59.4,66.3 47.5,28.5 41.3,29.7 31,0 15.4,53.2 	"/>
	<polygon  points="106.9,52.9 80.8,51 68.6,66.3 80.5,28.5 86.7,29.7 97,0 112.6,53.2 	"/>
	<polyline  points="63.9,70.1 83.7,7 68,41.7 64,25.2 59.8,44.8 44.1,7 	"/>
	<ellipse  cx="45.4" cy="70.3" rx="4.1" ry="4.7"/>
	<ellipse  cx="84.1" cy="70.1" rx="4.1" ry="4.7"/>
</g>
</svg>
