<?xml version="1.0" encoding="UTF-8" ?>
<svg
  id="Layer_2"
  xmlns="http://www.w3.org/2000/svg"
  version="1.1"
  viewBox="0 0 128 128"
>
  <g id="icon">
  <!-- Generator: Adobe Illustrator 29.8.2, SVG Export Plug-In . SVG Version: 2.1.1 Build 3)  -->
  <path
      fill="currentColor"
      d="M48.5,13.1h40.8c2.2,0,3.9,1.8,3.9,3.9v85.3c0,3.2-3.6,5.1-6.2,3.2l-20.8-14.7c-1.4-1-3.2-1-4.6,0l-24.4,17.3c-1.1.8-2.6,0-2.6-1.3V9.1c0-2.2-1.8-3.9-3.9-3.9h0c-2.2,0-3.9,1.8-3.9,3.9v109.7c0,3.2,3.7,5.1,6.3,3.2l28.5-21.2c1.4-1,3.3-1,4.7,0l17.8,13.2c7.1,5.2,17.1.2,17.1-8.6V14.9c0-5.4-4.4-9.8-9.8-9.8h-42.9c-3.1,0-5,3.4-3.3,6h0c.7,1.2,2,1.9,3.3,1.9Z"
    />
  <path
      fill="currentColor"
      d="M83.4,37.9l-.7,3.9c-.2,1-.6,1.7-1.2,2.1-.6.5-1.6.7-3,.7h-2.9l-1.6,8.9h4.4c1,0,1.7.3,2.1.9.4.6.5,1.6.3,2.9l-.5,3h-7.2l-2.6,13.9h-4.4c-.4,0-.8-.1-1.2-.3-.4-.2-.7-.5-1-.8-.3-.4-.4-.8-.6-1.2-.1-.5,0-1,0-1.5l1.8-10h-6.4l-1.9,10.5c-.2,1.2-.7,2.1-1.6,2.6-.8.5-1.7.8-2.7.8h-4.2l2.5-13.9h-3.6c-1,0-1.7-.3-2.1-.8-.4-.6-.5-1.5-.3-2.9l.5-3h6.4l1.6-8.9h-7.1l.7-3.9c.2-1,.6-1.7,1.2-2.1.6-.5,1.6-.7,3-.7h3.1l2-10.7c.2-1,.6-1.7,1.4-2.3.7-.6,1.6-.8,2.6-.8h4.4l-2.6,13.8h6.5l2.6-13.8h4.2c1,0,1.8.3,2.4.9.6.6.8,1.4.6,2.3l-2,10.6h6.8ZM67.8,44.7h-6.5l-1.6,8.9h6.5l1.6-8.9Z"
    />
  </g>
</svg>
