<?xml version="1.0" encoding="utf-8"?>
<!-- Generator: Adobe Illustrator 28.3.0, SVG Export Plug-In . SVG Version: 6.00 Build 0)  -->
<svg version="1.1" id="Layer_1" xmlns:serif="http://www.serif.com/"
	 xmlns="http://www.w3.org/2000/svg" xmlns:xlink="http://www.w3.org/1999/xlink" x="0px" y="0px" viewBox="0 0 128 128"
	 style="enable-background:new 0 0 128 128;" xml:space="preserve">
<path 
  fill="currentColor"
  id="icon"
  d="M124.9,119.9H3.1c-2.3-0.1-3.8-2.6-2.7-4.7L61.3,9.7c1-1.5,1-1.6,2.9-1.6c1.6,0.2,1.7,0.3,2.5,1.6l60.9,105.5
	C128.7,117.2,127.3,119.8,124.9,119.9z M64,64c-12.3,0-23,6.7-28.8,16.6C41,90.5,51.7,97.2,64,97.2s23-6.7,28.8-16.6
	C87,70.7,76.3,64,64,64z M64,91.9c-6.2,0-11.2-5-11.2-11.2s5-11.2,11.2-11.2s11.2,5,11.2,11.2C75.3,86.8,70.2,91.9,64,91.9z
	 M67.9,80.6c0-2.2-1.7-3.9-3.9-3.9s-3.9,1.7-3.9,3.9c0,2.2,1.7,3.9,3.9,3.9S67.9,82.8,67.9,80.6z"/>
</svg>
