<?xml version="1.0" encoding="utf-8"?>
<!-- Generator: Adobe Illustrator 28.3.0, SVG Export Plug-In . SVG Version: 6.00 Build 0)  -->
<svg version="1.1" id="Layer_1" xmlns="http://www.w3.org/2000/svg" xmlns:xlink="http://www.w3.org/1999/xlink" x="0px" y="0px"
	 viewBox="0 0 128 128" style="enable-background:new 0 0 128 128;" xml:space="preserve">
	<g fill="currentColor" id="icon">
		<path d="M123.4,30h-14.8V15.3c0-2.7-2.3-4.9-4.9-4.9H4.9c-2.7,0-4.9,2.2-4.9,4.9v77.9C0,95.9,2.2,98,4.9,98h14.7v14.7
			c0,2.7,2.2,4.9,4.9,4.9h98.7c2.7,0,4.9-2.2,4.9-4.9V34.8C128.2,32.1,126.1,30,123.4,30z M118.4,96.3L98.1,74c-2-2.3-5.7-2.3-7.7,0
			l-8.6,9.6l-19-21.9c-2.3-2.7-6.5-2.7-8.8,0L29.6,89.8V39.8h88.8C118.4,39.8,118.4,96.3,118.4,96.3z M9.9,88.2v-68h88.8V30H24.6
			c-2.7,0-4.9,2.2-4.9,4.9v53.3H9.9z"/>
		<circle cx="102.2" cy="56.2" r="7.8"/>
	</g>
</svg>
