<?xml version="1.0" encoding="utf-8"?>
<!-- Generator: Adobe Illustrator 28.2.0, SVG Export Plug-In . SVG Version: 6.00 Build 0)  -->
<svg version="1.1" id="Layer_1" xmlns="http://www.w3.org/2000/svg" xmlns:xlink="http://www.w3.org/1999/xlink" x="0px" y="0px"
	 viewBox="0 0 128 128" style="enable-background:new 0 0 128 128;" xml:space="preserve">
<g id="icon" fill="currentColor">
	<path d="M64,0C28.7,0,0,28.7,0,64s28.7,64,64,64s64-28.7,64-64S99.3,0,64,0z M64,120.4c-11.4,0-22-3.5-31-9.2
		c-5.8-3.7-10.8-8.6-14.7-14.1c0-0.3,0.1-0.5,0.1-0.8c2-6.8,4.6-11,7.2-13.8c4.2-4.5,8.4-4.9,9.7-5.1c0.3,0,0.5-0.1,0.8-0.1
		c0.8-0.8,1.4-1.8,1.9-2.9c1.2-3.1,1.5-7.4,1.5-11.6c-0.1-7.7-1.4-15.4-1.4-15.4l0,0c0-1,0-2,0.1-3.1c0-0.4,0-0.6,0-0.9
		c0-0.6,0.1-1.4,0.1-2c0-0.4,0-0.6,0.1-1c0-0.6,0.1-1.2,0.3-1.8c0-0.3,0.1-0.6,0.1-0.9C39,37,39,36.5,39.2,36c0-0.3,0.1-0.5,0.1-0.8
		c0.1-0.8,0.3-1.5,0.5-2.2c0,0,0,0,0-0.1c0.1-0.8,0.4-1.4,0.6-2.2c0-0.3,0.1-0.4,0.3-0.6c0.1-0.5,0.4-0.9,0.5-1.4
		c0.1-0.3,0.1-0.4,0.3-0.6c0.1-0.4,0.4-0.8,0.5-1.2c0.1-0.3,0.1-0.4,0.3-0.6c0.1-0.4,0.4-0.8,0.6-1.2c0.1-0.1,0.1-0.4,0.3-0.5
		c0.3-0.5,0.5-0.9,0.9-1.4V23c0.3-0.5,0.6-0.9,1-1.3c0.1-0.1,0.1-0.3,0.3-0.4c0.3-0.3,0.5-0.6,0.8-0.9c0.1-0.1,0.3-0.3,0.4-0.4
		c0.3-0.3,0.5-0.5,0.6-0.8c0.1-0.1,0.3-0.3,0.4-0.4c0.3-0.3,0.5-0.4,0.8-0.6c0.1-0.1,0.3-0.1,0.4-0.3c0.4-0.3,0.6-0.5,1-0.8
		c0,0,0.1,0,0.1-0.1c0.4-0.3,0.8-0.5,1.2-0.8c0.1,0,0.1-0.1,0.3-0.1c0.3-0.1,0.5-0.3,0.8-0.5c0.1-0.1,0.3-0.1,0.4-0.1
		c0.3-0.1,0.5-0.3,0.8-0.4c0.1,0,0.3-0.1,0.4-0.1c0.3-0.1,0.5-0.3,0.8-0.3c0.1,0,0.3-0.1,0.4-0.1c0.3-0.1,0.6-0.3,0.9-0.3h0.1
		c0.4-0.1,0.6-0.3,1-0.3c0.1,0,0.1,0,0.3,0c0.3,0,0.5-0.1,0.8-0.1c0.1,0,0.3,0,0.4,0c0.3,0,0.4-0.1,0.6-0.1c0.1,0,0.3,0,0.4,0
		s0.4,0,0.5-0.1c0.1,0,0.3,0,0.3,0c0.3,0,0.4,0,0.5,0c0.1,0,0.1,0,0.3,0c0.3,0,0.5,0,0.6,0s0.1,0,0.3,0c0.1,0,0.3,0,0.4,0
		c0.5,0,0.9,0,1.3,0h0.1c0.1,0,0.3,0,0.3,0s0,0,0.1,0h0.1c0.3,0,0.6,0,0.9,0c0.3,0,0.6,0,0.9,0c0,0,0,0,0.1,0c0,0,0,0,0.1,0
		c0,0,0.1,0,0.3,0c0,0,0,0,0.1,0c0.3,0,0.8,0,1.3,0c0.1,0,0.3,0,0.4,0s0.1,0,0.3,0c0.3,0,0.4,0,0.6,0c0.1,0,0.1,0,0.3,0s0.4,0,0.5,0
		s0.3,0,0.4,0s0.4,0,0.5,0s0.3,0,0.4,0s0.4,0,0.5,0.1c0.1,0,0.3,0,0.4,0.1c0.3,0,0.4,0.1,0.6,0.1c0.1,0,0.3,0,0.3,0.1
		c0.4,0.1,0.6,0.1,1,0.3c0.1,0,0.1,0,0.3,0.1c0.3,0.1,0.5,0.1,0.8,0.3c0.1,0,0.3,0.1,0.4,0.1c0.3,0.1,0.5,0.1,0.6,0.3
		c0.1,0,0.3,0.1,0.4,0.1c0.3,0.1,0.5,0.3,0.6,0.4s0.3,0.1,0.4,0.3c0.3,0.1,0.5,0.3,0.8,0.4c0.1,0,0.3,0.1,0.3,0.1
		c0.4,0.3,0.8,0.5,1.2,0.6l0.1,0.1c0.3,0.3,0.6,0.4,0.9,0.6c0.1,0.1,0.3,0.1,0.4,0.3c0.3,0.3,0.5,0.4,0.8,0.6
		c0.1,0.1,0.3,0.3,0.4,0.4c0.3,0.3,0.5,0.4,0.6,0.6c0.1,0.1,0.3,0.3,0.4,0.4c0.3,0.3,0.5,0.5,0.8,0.9c0.1,0.1,0.3,0.3,0.3,0.4
		c0.4,0.4,0.6,0.9,1,1.3c0,0,0,0.1,0.1,0.1c0.3,0.4,0.5,0.9,0.8,1.3c0.1,0.1,0.1,0.4,0.3,0.5c0.3,0.4,0.4,0.8,0.6,1.2
		c0.1,0.3,0.3,0.4,0.3,0.6c0.1,0.4,0.4,0.8,0.5,1.2c0.1,0.3,0.1,0.4,0.3,0.6c0.1,0.4,0.4,0.9,0.5,1.4c0.1,0.3,0.1,0.4,0.3,0.6
		c0.3,0.6,0.4,1.4,0.6,2.2c0,0,0,0,0,0.1c0.1,0.8,0.4,1.4,0.5,2.2c0,0.3,0.1,0.5,0.1,0.8c0.1,0.5,0.3,1.2,0.3,1.7
		c0,0.3,0.1,0.6,0.1,0.9c0.1,0.5,0.1,1.2,0.3,1.8c0,0.4,0.1,0.6,0.1,1c0,0.6,0.1,1.3,0.1,2c0,0.3,0,0.6,0,0.9c0,1,0,2,0,3.1l0,0
		c0,0-1.4,7.7-1.4,15.4c0,4.4,0.4,8.6,1.5,11.6c0.5,1.2,1.2,2.2,1.9,2.9c0.3,0,0.5,0.1,0.8,0.1c1.3,0.3,5.5,0.6,9.7,5.2
		c2.6,2.8,5.1,7,7.2,13.8c0.1,0.3,0.1,0.5,0.1,0.8c-4,5.5-9,10.2-14.7,14.1C86,117.1,75.4,120.4,64,120.4z"/>
	<path d="M76.9,72.4c-0.3-0.5-0.4-1-0.4-1.7l0,0c-2.2,2.2-4.5,3.8-7,4.7c-1.7,0.6-3.6,1-5.4,1c-1.8,0-3.7-0.4-5.4-1
		c-0.8-0.3-1.5-0.8-2.3-1.2c-1-0.5-1.9-1.3-2.8-1.9c-0.6-0.5-1.3-1.2-1.9-1.8l0,0c0,2.7-2,4.1-3.3,4.9c-0.1,0.1-0.3,0.1-0.5,0.3
		c-0.4,0.1-0.6,0.3-0.8,0.3l0,0c0.1,0.6,0.4,1.3,0.9,1.9c2.3,2.9,8.6,7,16.1,7c7.4,0,13.8-4.2,16.1-7c0.5-0.6,0.8-1.3,0.9-1.9l0,0
		l0,0c-0.5-0.3-2-0.9-3.2-2C77.4,73.5,77.2,73,76.9,72.4z"/>
	<path d="M84,45.7c-0.1,0-0.1,0-0.3-0.1l-2.2,2L55.4,34.2c-8.6-0.8-10,10.8-10.1,11.8v0.1c-0.3-0.3-0.6-0.4-0.9-0.3
		c-0.1,0-0.3,0.1-0.4,0.1c-0.6,0.4-1,1.8-0.9,3.3c0,0.5,0.1,1.2,0.1,1.7c0.4,1.8,1,3.3,1.8,4c0.4,0.4,0.8,0.5,1.2,0.5
		c0.1,0,0.4-0.1,0.5-0.3c1.8,5.4,5.1,10.9,9.3,14.1c2.4,1.9,5.2,3.1,8.2,3.1c2.9,0,5.6-1.2,8.2-3.1c4.2-3.3,7.6-8.7,9.3-14.2
		c0.1,0.1,0.3,0.3,0.5,0.3c0.3,0,0.6-0.1,0.9-0.4c0.8-0.6,1.5-2.3,1.9-4.2c0.1-0.6,0.1-1.3,0.1-1.8c0-0.4,0-0.8,0-1.2
		C84.9,46.7,84.5,46,84,45.7z"/>
</g>
</svg>
