<?xml version="1.0" encoding="utf-8"?>
<!-- Generator: Adobe Illustrator 28.3.0, SVG Export Plug-In . SVG Version: 6.00 Build 0)  -->
<svg version="1.1" id="Layer_1" xmlns="http://www.w3.org/2000/svg" xmlns:xlink="http://www.w3.org/1999/xlink" x="0px" y="0px"
	 viewBox="0 0 128 128" style="enable-background:new 0 0 128 128;" xml:space="preserve">

		<g fill="currentColor" id="icon">
			<path d="M112.4,74.6l-7.4,3.7l-20.2,30.9l-25.6-7.1l-9.4,4.8L33,94.7L12.4,89l-0.7,0.5l-0.5,0.7l-0.4,0.7l-0.4,0.8L10,92.5
				l-0.3,0.8l-0.1,0.8v0.8l0.1,0.8l0.1,0.8l0.3,0.8l0.4,0.8l0.4,0.7l0.5,0.7l0.7,0.5l0.7,0.5l0.8,0.4l71.1,22.3L112.4,74.6z
				 M1.9,65.7l0.3,1.1l0.4,1l0.4,1l0.5,1l0.7,0.8l0.7,0.7l44.7,30.8l42.5-21.5l0,0l33.2-16.8l2.6,1.1v1.6l-11.5,6L86,127.2L13,104
				l-1-0.5l-0.8-0.5l-0.8-0.7l-0.7-0.7L9,100.8l-0.5-0.7L8,99.3l-0.4-1l-0.3-1l-0.3-1l-0.1-1v-1v-1l0.1-1l0.3-1l0.6-1l0.4-1l0.5-0.8
				l0.7-0.8l0.7-0.7l0.8-0.7l5.1-4L4.5,73.9l-0.8-0.8l-0.7-1l-0.7-1l-0.5-1L1.1,69l-0.4-1.1l-0.3-1.1l-0.3-1.2L0,64.5v-1.2l0.1-1.2
				l0.1-1.2l0.3-1.1l1.6,0.4l-0.3,1.1v1v1.1v1.1L1.9,65.7z"/>
			<polygon points="128,48.3 128,51.3 102.4,62.3 91.4,79 72.9,75 49.1,85.2 10,61.5 7.5,60.9 6.4,59.8 5.6,58.7 7.5,58.2 
				89.3,73.9 116.4,36.3 118.6,36.3 118.6,38.3 115.1,43.4 			"/>
			<polygon points="4.1,56.4 3.4,57.2 2.9,58.2 2.5,59.3 2.2,60.2 0.5,59.8 0.5,59.8 0.8,58.7 1.4,57.6 1.9,56.5 2.5,55.6 3.3,54.6 
				2.7,53.2 2.3,51.7 1.9,50.4 1.8,48.9 1.6,47.4 1.6,46 1.8,44.5 2.1,43 2.3,41.5 2.9,40.1 3.3,38.8 59.5,15.4 120.6,19.9 
				120.6,22.1 91.4,54.2 5.6,40.5 5.1,41.9 4.8,43.3 4.5,44.6 4.4,46.1 4.4,47.5 4.4,48.9 4.5,50.2 4.8,51.7 5.1,53.1 5.6,54.3 
				6.2,55.7 6.7,56.9 7.5,58.2 5.6,58.7 4.8,57.6 			"/>
		</g>

</svg>
