<?xml version="1.0" encoding="UTF-8"?>
<svg id="Layer_1" xmlns="http://www.w3.org/2000/svg" version="1.1" viewBox="0 0 128 128">
  <!-- Generator: Adobe Illustrator 29.8.2, SVG Export Plug-In . SVG Version: 2.1.1 Build 3)  -->
  <defs>
    <style>
      .st0 {
        fill: #1185fe;
      }
    </style>
  </defs>
  <path fill="#1185fe" id="icon" d="M35,25c11.8,8.8,24.4,26.7,29,36.3,4.6-9.6,17.3-27.5,29-36.3,8.5-6.4,22.2-11.3,22.2,4.4s-1.8,26.3-2.8,30.1c-3.7,13.1-17,16.4-28.9,14.4,20.7,3.5,26,15.2,14.6,26.9-21.6,22.2-31.1-5.6-33.5-12.7-.4-1.3-.7-1.9-.7-1.4,0-.5-.2,0-.7,1.4-2.4,7.1-11.9,34.9-33.5,12.7-11.4-11.7-6.1-23.4,14.6-26.9-11.9,2-25.2-1.3-28.9-14.4-1.1-3.8-2.8-26.9-2.8-30.1,0-15.7,13.7-10.7,22.2-4.4h0Z"/>
</svg>
