<?xml version="1.0" encoding="utf-8"?>
<!-- Generator: Adobe Illustrator 28.2.0, SVG Export Plug-In . SVG Version: 6.00 Build 0)  -->
<svg version="1.1" id="Layer_1" xmlns="http://www.w3.org/2000/svg" xmlns:xlink="http://www.w3.org/1999/xlink" x="0px" y="0px"
	 viewBox="0 0 128 128" style="enable-background:new 0 0 128 128;" xml:space="preserve">
<path id="icon" fill="currentColor" d="M75.1,25l42.8,11.5c3.6,1,6.5,3.3,8.2,6.3c1.8,3,2.4,6.7,1.4,10.3l-16.9,63c-1,3.6-3.3,6.5-6.3,8.2
	c-3,1.7-6.7,2.3-10.3,1.4l-42.8-11.5c-3.6-0.9-6.5-3.3-8.2-6.3c-1.2-2-1.8-4.4-1.8-6.9L34,103c-3.6,1-7.3,0.4-10.3-1.4
	c-3-1.7-5.4-4.6-6.4-8.2l-16.9-63c-1-3.6-0.4-7.3,1.4-10.3c1.8-3,4.7-5.4,8.2-6.3L52.9,2.2c3.6-1,7.3-0.4,10.3,1.4
	c3,1.7,5.4,4.6,6.3,8.2L73,24.6C73.7,24.7,74.4,24.8,75.1,25L75.1,25z M54,6.3L11.2,17.8c-2.5,0.7-4.5,2.3-5.7,4.3
	c-1.2,2.1-1.6,4.6-0.9,7.1l16.9,63c0.7,2.5,2.3,4.5,4.3,5.7c2.1,1.2,4.6,1.6,7.1,0.9l42.8-11.5c2.5-0.7,4.5-2.3,5.7-4.3
	c1.2-2.1,1.6-4.6,0.9-7.1l-16.9-63c-0.7-2.5-2.3-4.5-4.4-5.7C59,6,56.5,5.6,54,6.3L54,6.3z"/>
</svg>
