<?xml version="1.0" encoding="utf-8"?>
<!-- Generator: Adobe Illustrator 28.2.0, SVG Export Plug-In . SVG Version: 6.00 Build 0)  -->
<svg version="1.1" id="Layer_1" xmlns="http://www.w3.org/2000/svg" xmlns:xlink="http://www.w3.org/1999/xlink" x="0px" y="0px"
	 viewBox="0 0 128 128" style="enable-background:new 0 0 128 128;" xml:space="preserve">
<g id="icon" fill="currentColor">
	<path d="M34,60.3c-0.2,0-0.2-0.2-0.4-0.1c-0.2,0.3-0.1,0.3-0.2,0.6c-0.4,0.1-0.6,0.4-1.1,0.5c0.1,0.8-1.4,1.2-2.2,1.8
		c-0.2,0.1-0.3,0.2-0.4,0.4c0.1,0.4,0.3-0.3,0.4-0.2c-0.4,0.9-1.5,1.5-2.4,2c-0.1,0.4-0.3,0.3-0.4,0.5c-3.9,3-7.9,5.9-11.7,8.9
		c-0.4,0.2-0.9,0.4-1.2,0.9c2.4,0.9,4.9,1.9,7.2,3c0.3,0.1,0.4-0.3,0.4-0.4c3.9,2.1,8.1,4,9,8.4c-0.1,0.2-0.1,0.4-0.3,0.5
		c0.4,1.6,0,3.9-1.2,5.9c-0.4,0.1,0.3-0.5-0.3-0.4c-0.4,1-1.1,1.9-2.4,2.2c-0.3-0.1-0.4-0.4-0.9-0.2c0.2-0.2,0-0.2-0.2-0.3
		c0-0.4-0.2-1.1,0.1-1.9c0-0.1-0.1-0.3-0.2-0.4c-1.9-2.2-4.7-3.9-8-5.1c-1-1.1-3-1.4-4.1-2.4c-0.4,0.1-0.4-0.2-0.8-0.1
		c0.1-0.1,0.2-0.2,0.2-0.3c-2.3-1.3-4.7-2.6-7-3.9c-1.1,0.4-1.6,1.1-3,0.9c-1.2-1-2.5-2.1-3.1-3.8c0.4-1.2,0.4-2.6,1.4-3.6
		c0.2-0.1,0.4,0.1,0.4-0.4c1.1-0.1,1.5-0.9,2.4-1.1c1.8-1,3.4-2.1,5.1-3c0.3-0.3,0.5-0.4,0.7-0.6c1.6-0.5,2.6-1.8,4-2.4
		c1.7-1.3,3.5-2.3,5-3.6c0.4,0.2,0.4,0.2,0.8,0.1c0.1-0.3-0.1-0.4-0.2-0.5c0.8-0.2,1.4-1.2,2.5-1.3c0-0.2-0.2-0.1-0.2-0.3
		c0.5,0.1,1.1-0.8,1.1-0.4c0.5-0.5,0.7-0.8,1.1-1.3c1,0,1.2-0.8,2-1.1c0.3-0.7,1.4-1.1,1.5-1.6c0.6-0.4,1.3-0.6,1.6-1.3
		c0.3,0,0.3-0.2,0.4-0.1c0.7-1.1,1.9-1.3,2.5-2.4c0.3,0.1,0.3-0.1,0.4-0.1c0.5-0.9,1.1-1.5,2.1-1.7c0.2-0.4-0.3,0.1-0.3-0.2
		c1.1-1.1,2.4-2.4,3.6-3.4c0.3-0.4,0.6-0.9,1.1-1c0-0.2,0.1-0.3,0.2-0.4c0.3,0,0.4-0.3,0.6-0.2c0-0.1,0-0.2-0.2-0.2
		c0.3-0.3,0.7,0.3,0.8-0.3c0.4,0-0.1,0.3,0.1,0.3c0.5-0.1,0.6-0.5,1-0.8c-0.4,0-0.7,0.3-1.1,0.5c-0.1,0-0.3,0-0.4,0
		c0.2-0.6,1.5-0.8,1.3-1.3c0.8-0.6,1.2-1.4,2-2.2c0.4,0-0.2,0.3-0.2,0.4c0.6,0.1,0.4-0.7,0.9-0.6c0,0.3-0.2,0.3-0.4,0.6
		c0.5-0.4,1.1-0.6,1.1-1.1c0.8-0.6,1.9-0.8,2.3-1.8c0.5-0.1,0.9,0,1.3-0.4c-0.1-0.2-0.3-0.3-0.2-0.5c0.4-0.5,1.5-0.6,1.8-0.9
		c0.2-0.3,0-0.3-0.2-0.4c0.1-0.2,0.4-0.1,0.4,0c0.6-0.4,0.4-0.8,0.6-1.1c0.4,0.1,0.6-0.1,0.9,0.1c0.1-0.2,0.2-0.3,0.1-0.4
		c-0.1-0.2-0.4,0.2-0.5,0.1c0.6-1.4,2.2-1.8,3.1-2.9c0.6,0,1-0.4,1.5-0.6c0.4,0.1,0.8,0.1,1.4-0.1c-0.2,1.3-0.6,2-0.8,3.4
		c-0.1-0.1-0.3-0.3-0.6-0.2c-0.1,1.1-1.2,2.4-1.7,3.4c-0.3,0.1-0.4,0.2-0.6,0.2c0,1.1-1.1,2.3-2,3c0.2,0.5-0.7,1.1-1.1,1
		c-2.3,2.3-4.6,4.9-7,7.2c-0.1,0.2,0.2,0.1,0.1,0.3c-0.4,0-0.2,0.4-0.4,0.2c-0.3,0.4-0.1,0.4-0.4,0.7c-0.8,0.4-2.2,1.2-2.2,2.1
		c-1.2,0-0.6,1.1-1.8,1.2c-0.3,0.4-0.2,0.4-0.4,0.7c-0.4-0.2-1.1,0.7-1.2,1c-0.2,0.2-0.4,0.1-0.6,0.4c0.2,0.4-0.1,0.3-0.4,0.7
		c-0.5-0.2-1.1,0.7-1.5,1.1c0.2,0.1,0.2,0.3,0.4,0.3c-0.1,0.2-0.4,0.2-0.4,0.4c-0.3-0.2-0.9,0-0.9,0.5c0.1,0,0.2-0.1,0.2-0.2
		c0.1,0,0.1,0,0.1,0C34.3,60.1,34.1,60.2,34,60.3z M18.5,63.8 M26.9,65.7c0.1,0,0.2,0,0.2,0c0.1-0.1,0.1-0.1,0.2-0.1
		c0-0.1,0-0.1,0-0.2c0,0-0.1,0-0.2,0c0,0.1,0,0.1-0.1,0.1C27,65.6,27,65.6,26.9,65.7z M28.9,56.2c-0.1,0-0.3,0-0.4,0.2
		C28.7,56.4,28.9,56.3,28.9,56.2z M29.5,55.7c0.1-0.1,0.2-0.1,0.2-0.3c-0.3-0.1-0.4,0.6,0,0.5C29.7,55.7,29.6,55.7,29.5,55.7z
		 M30.1,63.2c0.2,0,0.4-0.2,0.5-0.2c0,0.4-0.2,0.4-0.5,0.4C30.1,63.3,30.1,63.3,30.1,63.2z M30.4,55c0-0.1,0-0.1,0-0.2
		c0,0-0.1,0-0.2,0c0,0.1,0,0.1,0,0.2C30.3,55,30.4,55,30.4,55z M31,62.4c-0.3-0.1-0.3,0.2-0.4,0.3C30.9,62.6,30.9,62.5,31,62.4z
		 M31.1,62.3 M31.5,53.8c0.6-0.1,2.1-1.1,2.1-1.7c-0.4,0.3-0.6,0.8-1.2,0.8C32.2,53.4,31.7,53.5,31.5,53.8z M33.8,54.4 M34.3,59.9
		 M35.6,58.7 M36.4,50.2c0-0.4,0.4-0.4,0.2-0.5c-0.4,0-0.3,0.4-0.6,0.6C36.2,50.3,36.2,50.1,36.4,50.2z M37,57.2 M37.8,48.6
		c0-0.1,0-0.1,0-0.2c0,0-0.1,0-0.2,0c0,0.1,0,0.1,0,0.2C37.8,48.6,37.8,48.6,37.8,48.6z M38.4,48.2c0.1-0.2,0.1-0.4-0.1-0.4
		c0,0.3-0.4,0.2-0.5,0.4C37.8,48.2,38.2,48.2,38.4,48.2z M39.1,46.9c0-0.1,0-0.1,0-0.2c0,0-0.1,0-0.2,0c0,0.1,0,0.1,0,0.2
		C39,46.9,39.1,46.9,39.1,46.9z M39.1,55.6 M39.5,46.7 M40.5,45.9 M41.2,44.3 M42,46 M43.2,43c0.1,0,0.2,0,0.2,0
		c0.1-0.1,0.1-0.2-0.1-0.3c0,0.1,0,0.1-0.1,0.1C43.2,42.9,43.2,42.9,43.2,43z M44,42.5c-0.2-0.2-0.5,0-0.7,0.2
		C43.6,42.7,43.9,42.7,44,42.5z M44,44.4c0.3-0.4-0.3-0.4-0.5-0.1C43.8,44.2,43.9,44.4,44,44.4z M43.8,41.7 M44.6,44
		c0-0.1,0-0.1,0-0.2c-0.1,0-0.1-0.1-0.2-0.1c0,0.1-0.1,0.2-0.2,0.3C44.4,44,44.5,44,44.6,44z M46.2,45.7c0,0.2,0.1,0.3,0.2,0.3
		C46.4,45.8,46.3,45.7,46.2,45.7z M46.5,45.5 M47.4,40.7c0,0-0.1,0-0.2,0c0,0.1-0.1,0.1-0.1,0.2C47.3,40.9,47.5,40.9,47.4,40.7z
		 M47.3,40.4c-0.1,0.2,0.3,0.3,0.3,0.1C47.5,40.4,47.5,40.4,47.3,40.4z M47.3,41.2 M47.6,39.9c0.1,0,0.2,0,0.2-0.1
		C47.7,39.8,47.6,39.8,47.6,39.9z M47.7,40.3c0.1,0,0.2,0,0.2-0.1C47.7,40.2,47.7,40.2,47.7,40.3z M48.3,39.7c0,0.2,0,0.3,0.2,0.3
		C48.4,39.8,48.4,39.7,48.3,39.7z M48.5,39.4 M49.6,37.7 M49.6,39.2 M52.2,35.4 M53,34.9 M56.4,35.4"/>
	<path d="M99.6,30.5c-0.3,0-0.3,0.4-0.5,0.3C98,32.9,96.2,34,95,35.9c-2.1,2.1-4.2,4.5-6.2,6.8c-0.4,0.1-0.6,0.5-0.9,0.7
		c-2.4,3-5,5.4-7.3,8.3c-2.2,1.7-3.7,4.2-5.8,6c-0.1,0.4-0.5,0.4-0.4,0.8c-1.2,1.1-2.4,2.2-3.2,3.5c-1,0.4-1.2,1.4-2,1.8
		c-1.3,2.2-3.4,3.5-4.8,5.7c-1.8,1.4-3,3.4-4.6,4.9c-2,2.5-4.1,5-6.2,7.1c-3.4,4.2-7,7.7-10.3,11.8c-0.4,0.3-0.5,0.8-1,0.9
		c-0.4,1-1.3,1.3-1.9,2.1c0-0.4,0.3-0.6,0.3-1c1.3-0.9,1.9-2.5,3.2-3.7c-1,0.4-1.9,1.8-2.7,2.7c-0.8,1.1-1.7,1.9-2.4,3
		c-0.2,0-0.4,0-0.4,0c-0.7,1.1-1.9,2.1-2.7,2.5c0.2-0.5,0.7-1.1,1.1-1.1c0-0.4,0.1-0.7-0.2-0.7c-0.5,0.7-1,1.7-1.7,2.4
		c-0.4,0.2-0.6-0.1-1,0.1c-0.2,0.2-0.4,0.4-0.5,0.7c-0.4,0-0.5-0.2-0.6-0.4c-1.1,0.9-1.8,1.6-3.1,2.1c-0.3,0-0.3-0.2-0.6-0.1
		c0.1-0.3-0.1-0.4-0.2-0.5c1.2-1.8,2.4-3.4,4.1-4.9c0.1-0.3,0-0.5,0-0.7c0.4,0,0.5-0.6,1.1-0.6c1.8-2.7,3.8-5,5.8-7.6
		c-0.1-0.2-0.4,0-0.4,0.2c0.8-1.5,2.4-3,3.6-4.5c0.5,0,0.8-0.4,1.2-0.9c-0.4-0.1-0.4,0.2-0.5,0.4c1.3-2,3.5-4.1,5.2-6.3
		c3.4-3.7,6.7-7.7,10.3-11.6c0.1-0.2,0.1-0.3,0.2-0.4c0.5-0.3,1.1-0.9,1.2-1.4c0.8-0.4,1.3-1.2,1.9-2c3.9-4.6,8-9.1,12-13.7
		c1.1-1.1,2-2.6,3.4-3.7c0-0.4,0.3-0.4,0.3-0.7c1.6-1.4,2.9-3.4,4.6-4.8c3.9-5,8.5-9.2,12.4-14.4c0.4,0.1,0.3-0.4,0.6-0.4
		c0-0.3,0.3-0.4,0.3-0.5c0.3-0.2,0.6-0.4,1.1-0.8c0.4-0.1,0.4,0,0.8-0.1c0.4,0.2,0.4,0.4,1.2,0.4c0.9,0.9,1.4,2.1,2.9,2.7
		C101.9,27.7,100.4,29,99.6,30.5z M33.1,100.8c0,0,0.1,0,0.2,0c0.3-0.1,0.3-0.2,0.1-0.3c-0.1,0.1-0.1,0.1-0.1,0.1
		C33.2,100.7,33.2,100.7,33.1,100.8z M37.1,97.6c1.7-1.9,3.1-3.5,4.6-5.7c-1.2,0.7-1.8,2.6-3.1,3.2C38.5,96,37.2,96.6,37.1,97.6z
		 M37.3,94.2 M38.1,95.2c-0.2,0.1-0.3,0.2-0.1,0.3C38,95.3,38.1,95.3,38.1,95.2z M38.1,93.4c0,0,0.2,0,0.2-0.1
		C38.2,93.3,38.1,93.3,38.1,93.4z M39.9,90c-0.4,0.1-0.5,0.4-0.7,0.7C39.5,90.8,39.6,90.3,39.9,90z M42.1,90.2c-0.2,0-0.4,0-0.4,0
		c-0.9,1.2-1.6,2.1-2.3,3.4C40.4,92.6,41.6,91.5,42.1,90.2z M40.1,94.6 M41.1,90.2c-0.3,0-0.4,0.2-0.4,0.4
		C40.9,90.6,41,90.5,41.1,90.2z M44.3,89.1c-0.9,0.4-1.6,1.1-2.2,1.9C42.7,90.8,43.6,89.8,44.3,89.1z M42.3,90 M43,87.7
		c-0.3,0.3-0.6,0.4-0.5,0.8C42.8,88.5,43.1,87.9,43,87.7z M47.8,83.2c-0.8,0.5-1.2,1.4-1.9,1.9c-0.6,1.6-2.4,2.3-3,3.9
		c0.6-0.1,0.8-0.8,1.3-1.1c0.4-0.8,0.8-1.2,1.4-1.7c0.3-0.8,0.9-1.1,1.5-1.6c0.7-1.3,1.6-2.5,2.7-3.3c-0.1-0.1-0.2-0.2-0.2-0.2
		c-0.5,0.4-1.1,1.5-1.6,1.3C47.7,82.8,47.8,82.9,47.8,83.2z M44.1,86.5c-0.2,0-0.6,0.5-0.2,0.4C44,87,44.2,86.5,44.1,86.5z
		 M45.5,84.5c-0.4-0.2-0.9,0.4-1.1,0.8C45,85.2,45.1,84.8,45.5,84.5z M46.9,85.8c-0.9,0.6-1.5,1.8-2.4,2.5
		C45.3,88,46.3,86.9,46.9,85.8z M46.2,84.3c-0.1,0-0.2-0.1,0-0.2c-0.4,0-0.5,0.2-0.4,0.4C46.1,84.6,46.1,84.4,46.2,84.3z M47,80.1
		c0,0.1-0.5,0.3-0.2,0.4C46.8,80.3,47.3,80.1,47,80.1z M50.4,81.7c-0.8,0.8-1.9,1.8-2.4,2.7C49,83.8,50,82.8,50.4,81.7z M49.1,80.1
		c-0.3,0.5-1.1,0.9-1,1.4C48.5,81.4,49.6,80.5,49.1,80.1z M48.7,80.8 M50.2,79.2c-0.2,0-0.4,0-0.4,0.2C49.9,79.3,50,79.3,50.2,79.2z
		 M51.5,79.3c-0.3,0,0.1-0.4-0.2-0.3c-0.6,0.6-1.1,1.1-1.4,1.9C50.7,80.7,50.7,79.7,51.5,79.3z M52.1,78.6c-0.4,0-0.5,0.1-0.4,0.4
		C51.9,79.1,51.8,78.8,52.1,78.6z M51.6,77c0.8-0.4,1.4-1.1,2.1-1.9c-0.2,0-0.3,0-0.4,0C52.9,75.9,52.2,76.3,51.6,77z M55.9,74.2
		C54.6,75,54,76.4,53,77.5c-0.2,0-0.4,0-0.4,0.1c0,0.4-0.7,0.7-0.3,0.9c1.1-1.1,2-2.8,3.5-3.8c0-0.4,0.4-0.4,0.3-0.7
		c0.8-0.5,1.3-1.5,2.1-2c0-0.2,0-0.3-0.1-0.3c-0.2,0.4-0.4,0.4-0.7,0.5C57.1,73.2,56.2,73.3,55.9,74.2z M55,76.6
		c0.8-0.8,1.6-1.7,2.6-2.5c0-0.2-0.1-0.3-0.2-0.3c-1.4,1.3-2.7,2.9-3.9,4.4C54.1,77.9,54.7,77.4,55,76.6z M54.2,75.2
		c-0.3,0-0.4,0.2-0.4,0.4C53.9,75.7,54.1,75.4,54.2,75.2z M54.7,74.1c-0.4-0.1-0.6,0.4-0.3,0.4C54.4,74.2,54.6,74.3,54.7,74.1z
		 M55.1,73.5c0,0,0.2,0,0.3-0.1C55.2,73.4,55.2,73.4,55.1,73.5z M56.3,69.5 M58.6,71.7 M61.4,70.9 M64.3,66.3"/>
	<path d="M87.2,89.1c-0.5,0-0.7,0.6-1.1,0.8c0.4,0,0.8-0.3,1.1-0.5c0.1,0,0.3,0,0.4,0c-0.2,0.6-1.6,0.8-1.1,1.3
		c-1,0.6-1.4,1.4-2.2,2.2c-0.4,0,0.2-0.3,0.2-0.4c-0.6-0.1-0.4,0.7-0.9,0.6c-0.1-0.3,0.2-0.3,0.4-0.6c-0.5,0.4-1.1,0.6-1.1,1.1
		c-0.8,0.6-1.9,0.8-2.4,1.8c-0.5,0.1-0.9,0-1.1,0.4c-0.2,0.2,0.1,0.3,0.1,0.5c-0.5,0.6-1.5,0.4-1.9,1c-0.3,0.4,0.4,0,0.2,0.4
		c-0.3,0-0.4,0-0.4-0.1c-0.6,0.4-0.4,0.8-0.6,1.1c-0.4-0.1-0.5,0.1-0.9-0.1c0,0.2,0,0.3-0.1,0.4c0.1,0.2,0.4-0.2,0.7-0.1
		c-0.9,1.4-2.5,1.8-3.3,2.9c-0.6,0-0.9,0.4-1.2,0.6c-0.5-0.1-0.9-0.1-1.5,0.1c0.2-1.3,0.6-2,0.8-3.4c0.1,0.1,0.3,0.3,0.6,0.2
		c0.1-1.1,1.2-2.4,1.6-3.4c0.2-0.1,0.2-0.2,0.5-0.2c0-1.1,1-2.3,2-3c-0.2-0.5,0.7-1.1,1.1-1c2.4-2.3,4.7-4.9,7-7.2
		c0.1-0.2-0.2-0.1-0.1-0.3c0.3,0,0.2-0.4,0.4-0.2c0.3-0.3,0.1-0.4,0.4-0.7c0.8-0.4,2.2-1.2,2.2-2.1c1.2-0.1,0.7-1.1,2-1.4
		c-0.2-0.3,0-0.2,0.1-0.5c0.6,0.1,1.1-0.8,1.3-1.1c0.3,0.3,0.4-0.2,0.6-0.2c-0.3-0.4,0.1-0.3,0.3-0.7c0.6,0.2,1-0.6,1.5-1.1
		c-0.2-0.1-0.1-0.3-0.3-0.3c0.1-0.2,0.4-0.2,0.4-0.4c0.3,0.5,1.4-0.8,0.6-0.4c0.2-0.4,0.4-0.4,0.8-0.4c0.1-0.3,0-0.3,0.1-0.6
		c0.4-0.1,0.7-0.4,1.1-0.5c-0.1-0.8,1.5-1.2,2.2-1.8c0.2-0.1,0.4-0.2,0.4-0.4c-0.1-0.3-0.2,0.3-0.4,0.2c0.2-0.9,1.4-1.5,2.4-2
		c0-0.4,0.3-0.3,0.3-0.5c3.9-3,7.8-5.9,11.7-8.9c0.4-0.2,0.9-0.4,1.2-0.9c-2.4-0.9-4.8-1.9-7.2-3c-0.4-0.1-0.3,0.3-0.4,0.4
		c-3.8-2.1-8.1-4-9-8.4c0-0.2,0.1-0.4,0.3-0.5c-0.4-1.6,0.1-3.9,1.2-5.9c0.4-0.1-0.1,0.5,0.3,0.4c0.4-1,1.2-1.9,2.4-2.2
		c0.3,0.1,0.4,0.4,0.9,0.2c-0.1,0.2,0.1,0.2,0.2,0.3c0,0.4,0.2,1.1,0.1,1.9c-0.2,0.2-0.1,0.3,0,0.4c1.9,2.2,4.7,3.9,8,5.1
		c1.1,1.1,2.9,1.4,4.1,2.4c0.3-0.1,0.4,0.2,0.8,0.1c0,0.1-0.1,0.2-0.1,0.3c2.2,1.3,4.6,2.6,6.9,3.9c1-0.4,1.6-1.1,3.1-0.9
		c1.2,1,2.4,2.2,3.1,3.8c-0.4,1.2-0.4,2.6-1.5,3.6c-0.2,0.1-0.4-0.1-0.4,0.4c-1.1,0.1-1.6,0.9-2.4,1.1c-1.8,1-3.4,2.1-5.1,3
		c-0.3,0.3-0.5,0.4-0.7,0.6c-1.5,0.5-2.5,1.8-4,2.4c-1.7,1.3-3.5,2.3-5,3.6c-0.3-0.2-0.4-0.2-0.8-0.1c-0.1,0.3,0.2,0.4,0.2,0.5
		c-0.7,0.2-1.4,1.2-2.4,1.3c-0.1,0.2,0.1,0.1,0.1,0.3c-0.5-0.1-1,0.8-1.1,0.4c-0.6,0.5-0.7,0.8-1.1,1.3c-1,0-1.2,0.8-2,1.1
		c-0.3,0.7-1.3,1.1-1.5,1.6c-0.5,0.4-1.3,0.6-1.5,1.3c-0.3,0-0.4,0.2-0.5,0.1c-0.6,1.1-1.9,1.3-2.5,2.4c-0.3-0.1-0.3,0.1-0.4,0.1
		c-0.5,0.9-1.1,1.5-2.1,1.7c-0.2,0.4,0.4-0.1,0.3,0.2c-1.5,1.7-3.4,3-4.9,4.8c-0.4,0-0.4,0.3-0.6,0.2c0,0.1,0,0.2,0.2,0.2
		c-0.3,0.3-0.7-0.3-0.8,0.3C87.1,89.2,87.1,89.2,87.2,89.1z M71.6,99.4 M74.8,99.9 M75.6,99.4 M78.2,97.1 M79.3,95.4 M79.6,95
		c-0.1-0.2,0.2-0.3,0-0.3c-0.2,0.1-0.2,0.1-0.2,0.2C79.6,94.9,79.6,95,79.6,95z M80.1,94.6c0,0,0.2,0,0.2-0.1
		C80.2,94.5,80.1,94.5,80.1,94.6z M80.2,94.9c0,0,0.2,0,0.2-0.1C80.3,94.8,80.2,94.8,80.2,94.9z M80.6,94.4c0.2-0.2-0.3-0.3-0.3-0.1
		c0,0,0.1,0,0.1,0.1C80.4,94.4,80.5,94.4,80.6,94.4z M80.8,93.8c-0.2,0-0.4,0-0.3,0.2C80.6,94,80.7,93.9,80.8,93.8z M80.6,93.7
		 M81.3,89.2 M81.5,88.8c0,0.2,0,0.3,0.2,0.3C81.7,88.9,81.6,88.8,81.5,88.8z M83.4,90.8c-0.2,0.3,0.4,0,0.4-0.1
		C83.7,90.7,83.4,90.8,83.4,90.8z M84.4,90.4c-0.3,0.1-0.4-0.1-0.5-0.1c-0.1,0.3,0.1,0.4,0.4,0.4C84.2,90.6,84.3,90.5,84.4,90.4z
		 M84.6,92.1C84.3,92,84,92,83.9,92.3C84.1,92.4,84.4,92.3,84.6,92.1z M84.1,93.1 M84.5,91.7 M85.8,88.8 M86.6,90.4 M87.3,88.9
		 M88.3,88 M88.8,79.3 M89,88c0-0.1,0-0.1,0-0.2c-0.1,0-0.2,0-0.2,0c0,0.1,0,0.1,0,0.2C88.8,88,88.9,88,89,88z M90.3,86.6
		c-0.2-0.1-0.4-0.1-0.6-0.1c-0.3,0.3-0.2,0.4,0,0.4C89.7,86.7,90,86.8,90.3,86.6z M90.3,86.3c0-0.1,0-0.1,0.1-0.2
		c-0.1,0-0.2,0-0.2,0c-0.1,0.1-0.1,0.1-0.1,0.2C90.1,86.3,90.2,86.3,90.3,86.3z M90.8,77.7 M91.3,85.1c0.4,0,0.4-0.4,0.7-0.6
		c-0.3,0-0.4,0.2-0.4,0.1C91.5,84.9,91.1,84.9,91.3,85.1z M92.2,76.1 M93.6,74.8 M94.1,80.3 M95.6,81.8c0.1-0.5,1.1-0.7,0.7-1
		c-0.5,0.5-1.9,1.1-1.9,1.8C94.7,82.4,94.9,81.8,95.6,81.8z M96.7,72.5 M97.3,72.1c-0.3,0-0.4,0.1-0.4,0.3
		C97.2,72.5,97.2,72.2,97.3,72.1z M97.9,71.6c-0.2,0-0.4,0.2-0.5,0.2c0.1-0.4,0.3-0.4,0.6-0.4C97.9,71.5,97.9,71.5,97.9,71.6z
		 M97.7,79.9c0-0.1,0-0.1,0-0.2c-0.1,0-0.2,0-0.2,0c0,0.1,0,0.1,0,0.2C97.5,79.9,97.6,79.9,97.7,79.9z M98.2,79.3
		c0.4,0,0.2-0.3,0.3-0.5c-0.1,0-0.2,0-0.3,0c-0.1,0.2,0.1,0.2,0.2,0.3C98.4,79.2,98.2,79.2,98.2,79.3z M99.4,78.4
		c-0.1,0-0.2,0-0.2,0c0,0.1-0.1,0.1-0.1,0.2C99.2,78.6,99.4,78.6,99.4,78.4z M100.7,69.3c0,0,0.1,0,0.2,0c0-0.1,0-0.1,0.1-0.1
		c0.1-0.1,0.1-0.1,0.1-0.2c-0.1,0-0.2,0-0.2,0c0,0.1-0.1,0.1-0.1,0.1C100.7,69.2,100.7,69.2,100.7,69.3z M109.4,70.9"/>
</g>
</svg>
