<?xml version="1.0" encoding="UTF-8" standalone="no"?>
<!-- Created with Inkscape (http://www.inkscape.org/) -->

<svg
   width="127.99999"
   height="128"
   viewBox="0 0 128 128"
   version="1.1"
   id="svg1"
   xmlns="http://www.w3.org/2000/svg"
   xmlns:svg="http://www.w3.org/2000/svg">
  <defs
     id="defs1" />
  <g
     id="icon"
     transform="matrix(4.2958647,0,0,4.2958647,-10.809615,-16.942401)">
    <path
       id="rect1"
       style="fill:#000000;stroke-width:1.88716"
       d="m 5.6406614,12.680058 c -1.6219558,0 -2.9279867,1.305514 -2.9279867,2.927469 v 10.777637 c 0,1.621955 1.3060309,2.92747 2.9279867,2.92747 H 24.5439 c 1.621956,0 2.927986,-1.305515 2.927986,-2.92747 V 15.607527 c 0,-1.621955 -1.30603,-2.927469 -2.927986,-2.927469 z m 0.023771,4.023526 h 1.5198039 c 0.086412,0 0.1614218,0.0018 0.2242757,0.0057 0.066788,0.0039 0.1256584,0.01608 0.1767334,0.03566 0.051075,0.01955 0.096121,0.05075 0.1353923,0.09405 0.043206,0.03927 0.084727,0.09639 0.1240234,0.171049 l 2.2096839,4.354773 c 0.07857,0.149266 0.15306,0.304014 0.223759,0.465088 0.07463,0.16107 0.145085,0.326146 0.211873,0.49506 0.06679,-0.172848 0.137758,-0.339683 0.21239,-0.500744 0.07463,-0.165004 0.151393,-0.324295 0.229961,-0.47749 l 2.203483,-4.336687 c 0.03927,-0.07463 0.07853,-0.131753 0.117822,-0.171049 0.04321,-0.04321 0.09052,-0.0744 0.141593,-0.09405 0.05107,-0.01955 0.108194,-0.03118 0.171049,-0.03514 0.06679,-0.0039 0.143032,-0.0062 0.229444,-0.0062 h 1.52032 v 8.585523 h -1.755965 v -4.9382 c 0,-0.239636 0.01215,-0.498823 0.03566,-0.777731 l -2.274797,4.413684 c -0.07072,0.137486 -0.167098,0.241403 -0.288871,0.312126 -0.117863,0.07072 -0.252982,0.106454 -0.406177,0.106454 h -0.271301 c -0.1532,0 -0.290592,-0.03573 -0.4123776,-0.106454 -0.117863,-0.07072 -0.211972,-0.17464 -0.28267,-0.312126 l -2.286685,-4.419388 c 0.015837,0.137487 0.027986,0.274879 0.035657,0.412378 0.00792,0.133577 0.011886,0.257128 0.011886,0.371037 v 4.9382 H 5.6644325 Z m 11.0659906,0 h 3.335197 c 0.667823,0 1.27452,0.107957 1.820561,0.324011 0.549971,0.216054 1.01979,0.514495 1.408699,0.895553 0.388908,0.38105 0.689105,0.834756 0.901237,1.361157 0.216054,0.522474 0.324012,1.092188 0.324012,1.70894 0,0.620682 -0.107958,1.194424 -0.324012,1.720825 -0.212144,0.522474 -0.512343,0.976177 -0.901237,1.361157 -0.38891,0.38105 -0.858728,0.679491 -1.408699,0.895553 -0.546041,0.212119 -1.152739,0.318327 -1.820561,0.318327 h -3.335197 z m 2.003496,1.532206 v 5.52111 h 1.331701 c 0.381051,0 0.72102,-0.06291 1.019576,-0.188619 0.298556,-0.129642 0.549684,-0.312075 0.753959,-0.54777 0.20821,-0.239636 0.367501,-0.530537 0.477491,-0.872298 0.109994,-0.341769 0.164847,-0.726778 0.164847,-1.154968 0,-0.424261 -0.05485,-0.806998 -0.164847,-1.148767 C 22.206652,19.502711 22.04736,19.213566 21.839155,18.977864 21.63488,18.738227 21.383752,18.555796 21.085196,18.430094 20.78664,18.300452 20.446671,18.23579 20.06562,18.23579 Z" />
    <path
       id="rect1-2"
       style="fill:#000000;stroke-width:1.88716"
       d="m 10.28476,8.3712347 c -1.621956,0 -2.927987,1.3055136 -2.927987,2.9274703 v 0.128674 h 19.4045 c 1.537106,0 2.272213,0.671622 2.272213,2.272213 v 10.776086 c 0,0.184203 -0.02865,0.361718 -0.08113,0.528133 h 0.235645 c 1.621956,0 2.927987,-1.305514 2.927987,-2.92747 V 11.298705 c 0,-1.6219567 -1.306031,-2.9274703 -2.927987,-2.9274703 z" />
  </g>
</svg>
