<?xml version="1.0" encoding="utf-8"?>
<!-- Generator: Adobe Illustrator 28.1.0, SVG Export Plug-In . SVG Version: 6.00 Build 0)  -->
<svg version="1.1" id="Layer_1" xmlns="http://www.w3.org/2000/svg" xmlns:xlink="http://www.w3.org/1999/xlink" x="0px" y="0px"
	 viewBox="0 0 128 128" style="enable-background:new 0 0 128 128;" xml:space="preserve">
<path id="icon" fill="currentColor" d="M42.5,37.7l-2.9-3.2c1.3-0.8,2.5-1.7,3.7-2.7c0.9-0.7,1.5-1.8,1.7-2.9c0.1-0.8-0.1-1.6-0.4-2.2
	c-0.2-0.4-0.4-0.7-0.6-1l4.6-2.8l24.9,23.7L67.3,51L49.6,33.2L42.5,37.7z M72.4,38.1c-1-2.2-1-5.1-0.1-8.8c0.6-2,0.9-4,1.1-6.1
	c0-1.5-0.7-3-2-3.9c-1-0.8-2.2-1.3-3.4-1.5c-1.2-0.2-2.5,0.1-3.6,0.8c-1.6,1-2.1,2.1-1.7,3.3c0.6,1.1,1.4,2.1,2.3,2.9l-5.3,3.3
	c-1.6-1.4-2.8-3.2-3.5-5.2c-0.8-2.9,0.6-5.3,4.1-7.4c2.5-1.6,5.4-2.3,8.4-2.2c2.9,0.1,5.6,1.2,7.8,2.9c1.7,1.2,2.8,2.9,3.3,4.9
	c0.2,1.7,0.1,3.4-0.3,5.1L79.1,29c-0.3,1.2-0.5,2.4-0.6,3.6c-0.1,0.7,0,1.5,0.3,2.2l11.4-8.1l5,3.9L76.6,44.2
	C74.8,42.5,73.3,40.4,72.4,38.1z M127.8,60.1l-12.6-30.9c-0.2-0.5-0.5-0.9-1-1.3L80.5,2.7c-0.6-0.4-1.4-0.6-2.2-0.5L31.9,9.1
	c-0.7,0.1-1.3,0.4-1.7,0.9L16.2,25.5c-0.2,0.3-0.4,0.6-0.6,0.9L0.2,65.7c-0.2,0.6-0.2,1.4,0,2l4.9,14.7c0.1,0.4,0.3,0.7,0.6,1
	l30.9,35.1c0.2,0.2,0.4,0.4,0.7,0.6l10.5,6.3c0.4,0.3,1,0.4,1.5,0.4c0.2,0,0.4,0,0.5,0l37.9-7c0.3-0.1,0.6-0.2,0.8-0.3l23.8-12.7
	c0.7-0.3,1.2-0.9,1.5-1.7l14-42.1C128.1,61.4,128,60.7,127.8,60.1z M108.9,31.3L74.2,59.6L28.5,42l6.3-27.4L78,8.1L108.9,31.3z
	 M20.9,29.1L31,17.9l-5.6,24.5L9,75.8l-2.9-8.9L20.9,29.1z M10.4,80l-0.2-0.3l17.2-34.9l45.7,17.4l6.7,41.4l-39,10.9l-0.3-0.2
	L10.4,80z M86.2,113.1l-36.4,6.8l-5.4-3.3l37.5-10.4l21.5-2.1L86.2,113.1z M108.9,100.6l-26,2.6l-6.7-41.4l34.5-28.1l11.3,27.6
	L108.9,100.6z"/>
</svg>
