<?xml version="1.0" encoding="utf-8"?>
<!-- Generator: Adobe Illustrator 28.0.0, SVG Export Plug-In . SVG Version: 6.00 Build 0)  -->
<svg version="1.1" id="Layer_1" xmlns="http://www.w3.org/2000/svg" xmlns:xlink="http://www.w3.org/1999/xlink" x="0px" y="0px"
	 viewBox="0 0 128 128" style="enable-background:new 0 0 128 128;" xml:space="preserve">
<path
  fill="currentColor"
  id="icon" d="M127.8,82.1L107,19.6c-0.3-0.9-1-1.6-2-1.9L50,1.3c-1.1-0.3-2.2,0-3,0.8L0.9,48.2c-0.8,0.8-1.1,2-0.7,3.1
	l22.3,65.5c0.4,1.1,1.3,1.9,2.4,2l53.6,7.4h0.4c0.7,0,1.4-0.3,1.9-0.7L127,85.2C127.9,84.5,128.2,83.2,127.8,82.1z M27.5,112.8
	l10.7-52l49.2,50.6L27.5,112.8z M106.1,37.9L39.2,55.6L49.7,8.4L106.1,37.9z M36.1,55.9L7.7,49.8L46,11.6L36.1,55.9z M89.9,109.7
	L40.1,58.5l67.7-18l0.2,0.5l-17.9,68.5L89.9,109.7z M105.7,34.3L60.3,10.5l41.7,12.4L105.7,34.3z M7,52.6l28.5,6.2l-9.9,48.3L7,52.6
	z M78,120l-34-4.7l40.5-0.9L78,120z M94.1,106l15.5-59.8l11.9,35.8L94.1,106z M53.1,43.6c0.3-2.1,1.3-4.1,2.8-5.7
	c1-1.2,1.9-2.5,2.7-3.8c0.5-1,0.5-2.1,0.1-3.1c-0.3-0.8-0.9-1.5-1.7-1.9c-0.8-0.4-1.7-0.5-2.6-0.3c-1.3,0.3-2.1,1-2.2,1.9
	c0,0.9,0.2,1.8,0.5,2.6l-4.5,1c-0.6-1.4-0.8-2.9-0.6-4.5c0.4-2.2,2.1-3.7,5.1-4.3C54.8,25,57,25.1,59,26c1.8,0.8,3.3,2.2,4.1,4
	c0.7,1.3,0.8,2.9,0.3,4.3c-0.5,1.2-1.1,2.4-2,3.4l-1.3,1.6c-0.8,1-1.3,1.7-1.6,2.2c-0.2,0.4-0.4,0.9-0.4,1.4l9.9-2.6l1.7,3.6
	l-15.8,4.3C53.1,46.7,52.9,45.1,53.1,43.6z M75.3,23.2c2.2,1.9,3.9,4.2,5.1,6.8c1.4,2.4,2.2,5.1,2.2,7.9c-0.1,2.1-1.6,3.5-4.3,4.2
	c-2.4,0.8-5.1,0.3-7.1-1.2c-2.3-2-4.1-4.5-5.3-7.3c-1.3-2.4-1.9-5.1-1.8-7.8c0.3-1.9,1.8-3.2,4.5-3.8C70.9,21.3,73.4,21.8,75.3,23.2
	z M73.4,37.6c0.8,1,2.1,1.5,3.3,1.2c1-0.2,1.7-1.2,1.5-2.2c0-0.1,0-0.2-0.1-0.2c-0.4-1.9-1.1-3.6-2-5.3c-0.8-1.8-1.8-3.5-3.1-5
	c-0.8-0.9-2-1.3-3.1-1.1c-1,0.1-1.7,1-1.6,2.1c0,0,0,0.1,0,0.1c0.3,1.8,1,3.6,1.8,5.3C71.1,34.3,72.1,36,73.4,37.6z"/>
</svg>
