<?xml version="1.0" encoding="utf-8"?>
<!-- Generator: Adobe Illustrator 28.1.0, SVG Export Plug-In . SVG Version: 6.00 Build 0)  -->
<svg version="1.1" id="Layer_1" xmlns="http://www.w3.org/2000/svg" xmlns:xlink="http://www.w3.org/1999/xlink" x="0px" y="0px"
	 viewBox="0 0 128 128" style="enable-background:new 0 0 128 128;" xml:space="preserve">
<path id="icon" fill="currentColor" d="M59.2,43.4c-0.4-1.6-0.1-3.3,0.8-4.7c-1.9,0.1-3.8-0.4-5.5-1.2c-1.2-0.6-2.3-1.5-3.3-2.5
	c-1.7-1.7-2.6-4.1-2.2-6.5c0.4-2.3,2.1-4.4,5.1-6.1c2.7-1.7,5.8-2.3,9-2c2.7,0.3,5.3,1.6,7.2,3.6c0.9,0.9,1.5,2,2,3.2
	c0.5,1.4,0.4,3-0.4,4.3c2.1-0.1,4.2,0.2,6.1,1c1.9,0.8,3.6,2,5,3.5c2,1.9,3,4.7,2.6,7.4c-0.4,2.7-2.3,5-5.7,6.9
	c-5.7,3.7-13.3,2.7-18-2.2C60.6,46.9,59.7,45.2,59.2,43.4z M71.9,46.8c1.5,0.3,3,0,4.2-0.7c1.2-0.5,2-1.6,2.2-2.9
	c0-1.4-0.6-2.8-1.7-3.8c-1.1-1.2-2.5-2.1-4.1-2.5c-1.4-0.3-2.9,0-4.2,0.8c-1.2,0.5-2,1.6-2.2,2.9c0,1.5,0.6,2.9,1.7,3.8
	C68.9,45.6,70.3,46.4,71.9,46.8z M60.8,34.2c1.2,0.2,2.5,0,3.6-0.7c1-0.5,1.8-1.4,2-2.6c0-1.1-0.4-2.2-1.2-2.9c-0.9-1-2-1.7-3.3-2
	c-1.3-0.2-2.6,0-3.7,0.7c-1,0.5-1.8,1.4-2,2.5c0,1.2,0.4,2.3,1.3,3.1C58.3,33.4,59.5,34,60.8,34.2L60.8,34.2z M127.7,30.2
	c-0.4-0.7-1-1.2-1.7-1.5L31.7,0.8c-1.5-0.5-3.2,0.4-3.7,1.9l-28,91.3c-0.5,1.5,0.4,3.2,1.9,3.7l94.2,29.4c0.3,0.1,0.6,0.1,0.9,0.1
	c0.5,0,0.9-0.1,1.4-0.4c0.7-0.4,1.2-1,1.5-1.7l27.9-92.8C128.1,31.7,128,30.9,127.7,30.2z M119.7,33.1L46.7,76.4l-13.5-69
	L119.7,33.1z M31.2,12.7l12.7,65l-37,14L31.2,12.7z M9.6,93.9l35.7-13.5l43.1,38.1L9.6,93.9z M95.2,120.7L48.1,78.9l72.6-43.1
	L95.2,120.7z"/>
</svg>
