<?xml version="1.0" encoding="utf-8"?>
<!-- Generator: Adobe Illustrator 28.2.0, SVG Export Plug-In . SVG Version: 6.00 Build 0)  -->
<svg version="1.1" id="Layer_1" xmlns="http://www.w3.org/2000/svg" xmlns:xlink="http://www.w3.org/1999/xlink" x="0px" y="0px"
	 viewBox="0 0 128 128" style="enable-background:new 0 0 128 128;" xml:space="preserve">
<style type="text/css">
	.st0{fill:#BC0F0F;}
</style>
<g id="icon" fill="#BC0F0F">
	<g>
		<path class="st0" d="M0,80.2c0.6-7.8,5.8-15,11.9-19.6c0.3,0.2,0.6,0.6,0.5,1c-0.2,1.3-0.5,2.7-0.6,4c-0.2,1.4-0.4,2.9-0.5,4.4
			c-0.2,2.1-0.3,4.2-0.5,6.2c0,0.1,0,0.2,0,0.3c0.1,0.1,0.1,0.1,0.2,0.1c0.1-0.1,0.1-0.3,0.2-0.4c1.6-1.7,3.2-3.5,4.8-5.3
			c2-2.3,4.5-3.9,7-5.5c0.8-0.5,1.5-0.8,2.3-1.3c-0.9,3-1.2,6-1.8,9c0.1,0,0.1,0.1,0.1,0.1c0.2-0.1,0.3-0.2,0.5-0.3
			c1.9-1.3,3.8-2.7,5.7-3.9c1.7-1.2,3.6-1.2,5.7-0.7c-0.6,0.6-1.1,1.2-1.6,1.8c-2.7,3.2-4.8,6.7-6.1,10.6c-0.9,2.9-1.4,5.8-1.2,8.8
			c0.3,4.6,1.9,8.7,5.4,11.8c2.3,2,4.9,3.1,7.9,3.3c3,0.2,5.7-0.6,8.3-2c3.3-1.9,6-4.4,8.4-7.3c1.1-1.3,2-2.8,3-4.2
			c0.1-0.1,0.2-0.2,0.3-0.4c1.3,1,2.5,2,3.7,3c2.1,1.8,4.3,3.6,6.4,5.4c0.8,0.6,0.8,0.6,0.3,1.5c-2.5,4.9-5.6,9.4-9.5,13.2
			c-4.6,4.5-10,7.6-16.3,9c-2.9,0.6-6,1-9,0.8c-6.3-0.3-12-2.3-17.1-6.1c-2.2-1.6-3.9-3.7-5.6-5.8c-0.2-0.3-0.5-0.6-0.8-0.8
			c-0.7-0.6-1.6-0.3-1.7,0.6c-0.1,0.6-0.1,1.4,0.1,2c0.1,0.9,0.4,1.7,0.6,2.5c0.1,0.1,0.1,0.2,0.1,0.3c-0.1,0-0.1,0.1-0.1,0.1
			c-0.8-0.9-1.6-1.7-2.3-2.6c-3.5-4.2-5.6-9.1-6.4-14.5c-1-6.5-0.2-12.8,1.7-19c0.2-0.7,0.3-1.4,0.4-2.1c0.1-0.8-0.5-1.2-1.2-0.8
			c-0.7,0.5-1.3,1-2,1.6C0.6,79.5,0.3,79.9,0,80.2z"/>
		<path class="st0" d="M48.2,63.8c0.1,0.4,0.1,0.9,0.2,1.3c0.5,1.6,1.6,2.4,3,3.1c1.2,0.5,2.5,0.6,3.8,0.8c0.9,0.1,1.9,0.3,2.8,0.6
			c1.2,0.4,1.9,1.4,2.2,2.6c0.2,0.9,0.3,1.7,0.5,2.5c0.1,0.2,0.1,0.4,0.2,0.6c0.3,1.2,1.2,1.7,2.4,1.9c1.2,0.1,2.4,0.2,3.6,0.2
			c1.7,0.2,3.1,0.8,4.4,1.9c4.9,4,9.7,8,14.5,12c1.2,0.9,2.4,1.7,3.9,1.9c3.3,0.6,6.4-1.7,6.9-5c0.2-1,0.1-2-0.2-2.9
			c0-0.1-0.1-0.2-0.1-0.3c0,0,0,0,0.1-0.1c1,0.6,1.9,1.3,2.5,2.2c2.7,3.6,3.3,7.5,1.8,11.8c-0.5,1.3-1.3,2.4-2.4,3.3
			c-0.1,0.1-0.1,0.1-0.2,0.1c0,0.1,0.1,0.1,0.1,0.2c0.8,0.1,1.6,0.2,2.4,0.2c2.3,0,4.5-0.4,6.6-1.4c2.2-1.1,3.9-2.7,4.5-5.2
			c0.7-3.1-0.4-5.7-2.8-7.7c-1-0.9-2.2-1.5-3.5-1.9c0-0.1,0-0.1,0-0.1c1.3,0.1,2.5,0,3.8,0.2c3.5,0.5,6.7,1.7,9.4,4
			c2.8,2.4,4.6,5.4,5.1,9.1c0.6,4.5-0.8,8.4-3.9,11.6c-2.9,3.1-6.7,4.9-10.9,5.3c-1.4,0.1-2.8,0-4.2,0c-0.1,0-0.2,0-0.3,0.1
			c1.7,1.5,3.7,2.3,5.8,2.7c2.1,0.5,4.3,0.6,6.5-0.1c-0.5,0.8-1.2,1.4-1.8,2c-2.3,1.9-5,3.1-7.9,3.9c-3.9,1-7.9,1.2-11.8-0.2
			c-4.3-1.5-7.3-4.5-9.3-8.5c-0.9-1.9-1.6-3.9-1.7-6.1c0-0.1,0-0.1-0.1-0.1c-2.5,1.9-4.2,8.3-0.2,12.7c-1.5-0.4-2.8-1.2-4-2
			c-2.6-2-4.3-4.6-4.7-7.8c-0.2-1.4-0.1-3-0.1-4.5c0.1-1.9,0.3-3.8,0.1-5.7c-0.3-2.6-1.5-4.7-3.5-6.4c-3.9-3.2-7.8-6.4-11.6-9.7
			c-0.7-0.6-1.3-1.2-2-1.9c-1.7-1.8-2.5-4-2.7-6.5c0-0.5-0.1-0.9-0.1-1.4c-0.1-1.4-0.8-2.5-1.8-3.4c-0.9-0.8-2-1.6-2.9-2.4
			c-1.2-0.9-2.1-1.9-2.5-3.4c-0.3-1.3-0.3-2.6,0.1-3.9C48.2,64.1,48.2,64,48.2,63.8C48.2,63.8,48.2,63.8,48.2,63.8z"/>
		<path class="st0" d="M41.6,53c-4.5-1.7-15.4,1.5-17.5,5.1c1.9,0.2,3.8,0.5,5.6,1c-2.9,0.7-5.5,2-8,3.4c-2.5,1.4-4.9,3.1-7.1,5.3
			c0.2-1,0.5-2,0.6-2.9c0.2-1.2,0.4-2.3,0.4-3.4c0-1.7-0.8-3-2.4-3.8c-1.1-0.6-2.4-0.8-3.6-0.8c-1.7-0.1-3.5,0.2-5.2,0.5
			c0.6-0.5,1.3-1,1.9-1.6c2.1-1.6,4.4-2.7,6.7-4c1.4-0.8,2.8-1.6,4.2-2.4c0.1-0.1,0.2-0.2,0.3-0.2c1.2-1,1.4-1.9,0.7-3.3
			c-1-1.8-2.4-3.1-4-4.3c-0.4-0.3-0.9-0.6-1.4-0.9c3.2-0.1,6.4,0.1,9.6,0.9c-1.7-2.9-2.1-6-1.3-9.3c0.1,0,0.1,0.1,0.1,0.1
			c1.2,2.7,3.2,4.7,5.6,6.2c2.3,1.5,4.6,2.8,7,4.2c1.8,1.1,3.6,2.2,5,3.8c0.6,0.6,1.1,1.4,1.7,2.2c-0.2-0.6-0.3-1.1-0.6-1.6
			c-1.2-2.7-3.2-4.7-5.6-6.2c-0.4-0.2-0.6-0.5-0.7-1C33.1,38,33,36,33.1,34.1c0.1-2.4,0.5-4.7,1.3-6.9c0.3-0.8,0.6-1.4,1.2-2.1
			c0.1,0.9,0.1,1.7,0.2,2.6c0.3,2.3,1.3,4.4,2.7,6.3c1.9,2.7,4.3,5,6.7,7.2c2.5,2.3,4.9,4.5,7.3,6.9c1.2,1.2,2.3,2.6,3.1,4.1
			c0.1,0.1,0.1,0.1,0.2,0.2c-0.1-0.2-0.1-0.3-0.2-0.5c-0.9-2.4-2.3-4.5-4.1-6.4c-2.3-2.3-4.6-4.4-6.9-6.6c-0.8-0.8-1.6-1.6-2.3-2.3
			c-0.4-0.4-0.6-0.9-0.8-1.4c-0.6-2.9-0.3-5.7,1-8.3c0.1-0.2,0.2-0.3,0.3-0.5c0,0.3,0.1,0.6,0.1,0.9c0.2,2.9,1.4,5.4,3.1,7.8
			c2,2.8,4.5,5,6.9,7.3c1.8,1.7,3.6,3.4,5.3,5.1c2,2.1,3.5,4.5,4.2,7.3c0.4,1.4,0.5,2.8,0.3,4.3c0,0.2,0.1,0.4,0.2,0.5
			c1.6,0.6,2.5,1.6,2.4,3.5c1.9-0.6,3.1-1.9,4-3.5c0.5,1.2,0,5-1,7.5c-1.2,2.8-2.8,5.1-5.6,6.7c0.1-0.6,0.2-1.1,0.2-1.6
			c0.1-2.7-1.1-4.3-3.6-5c-1.8-0.5-3.6-0.6-5.4-0.6c-0.2,0-0.3,0-0.6,0c0.1-0.2,0.2-0.3,0.2-0.5c0.5-0.9,0.9-1.9,1.1-2.8
			c0.2-1.2-0.2-1.9-1.3-2.1c-1.2-0.3-2.5-0.4-3.8-0.4c-3.2,0.1-6.4,0.5-9.5,1.3c-0.3,0.1-0.6,0.2-0.9,0.3c2,0.1,4.1,0.2,6,0.8
			c-0.4,1-0.9,2-1.1,2.9c-0.2,0.9-0.3,1.8-0.4,2.7c-0.1,0.2,0.1,0.5,0.2,0.8c0.3,0.8,1,1,1.7,0.7c0.5-0.2,0.9-0.6,1.2-0.9
			c-0.2,0.8-0.4,1.7-0.6,2.6c-0.1,0.5-0.1,1.1-0.2,1.7c0,1.3,0.6,2,2,2c0.6,0,1.2-0.1,2-0.2c-0.4,0.6-0.8,1.2-1.2,1.7
			c-1.4,1.7-3.4,2.9-5.6,3.6c-1.2,0.4-2.4,0.6-3.5,0.9c-0.3,0.1-0.6,0.1-0.9,0.1c1.8-1.2,3.2-2.5,4-4.6c-1.6,0.5-3.2,0.7-4.7,0.6
			c0.1-0.1,0.3-0.2,0.4-0.3c2.3-1.9,3.3-5.6,2.2-8.4c-0.8-2-2.3-3.1-4.3-3.7c-2.8-0.8-5.5-0.6-8,0.9c-0.1,0-0.1,0.1-0.2,0.1
			c1.6-3.8,4.3-6.5,7.9-8.3c0-0.1,0-0.1,0-0.1c-1.9-0.5-3.8-1-5.8-1.4c1.6-1.2,3.5-1.9,5.5-2.5C37.5,53.4,39.4,53,41.6,53z M49,52
			c0,0.2,0,0.2,0.1,0.3c0.3,0.9,0.7,1.9,1.1,2.8c0.4,0.9,1,1.6,1.8,2.1c0.9,0.6,1.9,0.8,2.9,0.8C53.8,55.2,51.9,53.1,49,52z"/>
		<path class="st0" d="M29.7,36.5c-2.4-1.6-4.6-3.2-5.7-6c-1-2.4-2-4.9-3.1-7.3c-0.1-0.2-0.1-0.3-0.3-0.6c-0.1,0.4-0.2,0.8-0.3,1
			c-0.8,2.4-1.6,4.9-2.3,7.3c-0.6,1.7-0.8,3.6-0.5,5.4c0,0.2,0,0.4-0.1,0.6c-0.1-0.1-0.2-0.2-0.2-0.3c-1.3-2.2-2.1-4.6-2.5-7.1
			c-0.5-3.4-0.3-6.7,0.5-9.9c1.3-4.7,3.9-8.6,7.7-11.7c3.6-3,7.8-4.7,12.4-5.4c5.1-0.8,10.2-0.6,15.2,1.1c8,2.7,13,8.3,14.8,16.5
			c1.2,5.3,0.3,10.4-1.6,15.3c-1.2,2.8-2.5,5.6-4.3,8c-0.1,0.1-0.1,0.2-0.3,0.4c-0.3-0.4-0.6-0.8-1-1.1c-2.3-2.2-4.7-4.4-7-6.7
			c-0.9-0.9-1.7-2-2.5-3c-0.2-0.2-0.2-0.5-0.1-0.8c1.4-2.8,2-5.8,1.7-9c-0.2-2.7-1.1-5.1-3.1-7.1c-2.1-2-4.6-2.7-7.5-2.2
			c-4.2,0.8-6.7,3.6-7.7,7.6c-0.3,1-0.2,2.1-0.3,3.2c-0.1,0.3-0.1,0.6-0.2,0.8c-0.9,2.3-1.4,4.6-1.6,6.9c-0.1,1.3,0,2.5,0,3.9
			C29.8,36.5,29.8,36.5,29.7,36.5z"/>
		<path class="st0" d="M101.7,53.7c-1.2,0-2.4-0.1-3.6,0c-8.1,0.9-15,4.5-20.9,9.9c-0.5,0.4-0.9,0.8-1.3,1.3
			c-0.4,0.4-0.8,0.9-1.2,1.3c0-4.2,9.3-15.9,14-17.8c-0.5,0.7-0.9,1.3-1.3,2c-0.3,0.6-0.6,1.2-0.8,1.8c-0.3,0.9,0.2,1.4,1.2,1.1
			c0.5-0.2,1-0.5,1.5-0.8c1.6-1.2,3.1-2.5,4.7-3.8c2-1.6,4.2-2.9,6.7-3.5c0.5-0.1,1.1-0.2,1.7-0.3c0,0.1,0,0.1,0.1,0.1
			c-0.2,0.2-0.5,0.3-0.8,0.5c-0.9,0.6-1.9,1.3-2.7,2c-0.3,0.2-0.6,0.6-0.8,1c-0.3,0.8,0.2,1.5,1,1.4c0.5-0.1,1.1-0.2,1.6-0.4
			c1.9-0.6,3.6-1.2,5.6-1.5c2.4-0.3,4.7-0.3,7.1,0.2c5.6,1.2,10.2,3.9,14.3,7.8c0.1,0.1,0.2,0.2,0.2,0.3c0,0,0,0.1,0.1,0.1
			c-1.6-0.4-3.2-0.5-4.9-0.4c-4.3,0.2-8.4,1.1-12.3,2.9c-0.6,0.3-1.2,0.7-1.8,1.1c-0.2,0.1-0.3,0.2-0.5,0.1c-2-1.4-4.2-2-6.6-2.1
			c-4.5-0.1-8.4,1.2-11.6,4.5c-1.8,1.9-3.3,3.9-4.8,6c-2.7,3.8-4.9,7.8-6.9,12c-0.1,0.1-0.1,0.3-0.2,0.4c-0.1-0.1-0.2-0.2-0.3-0.2
			c-1.5-1.2-3-2.4-4.5-3.7c-1-0.9-2.1-1.5-3.4-2c-0.1-0.1-0.2-0.1-0.3-0.1c0.1-0.1,0.1-0.2,0.2-0.2c4-5.3,8.5-9.9,13.9-13.8
			c4-2.8,8.3-5.1,13.2-6.2C98.6,54.2,100.1,54,101.7,53.7L101.7,53.7z"/>
	</g>
</g>
</svg>
