<?xml version="1.0" encoding="utf-8"?>
<!-- Generator: Adobe Illustrator 28.2.0, SVG Export Plug-In . SVG Version: 6.00 Build 0)  -->
<svg version="1.1" id="Layer_1" xmlns="http://www.w3.org/2000/svg" xmlns:xlink="http://www.w3.org/1999/xlink" x="0px" y="0px"
	 viewBox="0 0 128 128" style="enable-background:new 0 0 128 128;" xml:space="preserve">

<path id="icon" style="fill-rule:evenodd;clip-rule:evenodd;fill:currentColor" d="M21.7,33.5h74.6L17.8,21.9l1.3-8.7c0.4-3,11.8-3.4,26.3-2.1L47,0l40.2,5.9l-1.6,11c14.3,3,25,6.6,24.5,9.7
	l-1.3,8.7l-2.6-0.4v80c0,18.5-84.6,15.6-84.6,1.3L21.7,33.5L21.7,33.5z M51.7,6.4L81,10.7l-0.8,5.2c-9.4-1.8-19.8-3.3-29.3-4.3
	L51.7,6.4z M35.9,48.1h10v65.4h-10V48.1z M59,48.1h10v65.4H59V48.1z M82.1,48.1h10v65.4h-10V48.1z"/>
</svg>
