<?xml version="1.0" encoding="utf-8"?>
<!-- Generator: Adobe Illustrator 28.0.0, SVG Export Plug-In . SVG Version: 6.00 Build 0)  -->
<svg version="1.1" id="Layer_1" xmlns="http://www.w3.org/2000/svg" xmlns:xlink="http://www.w3.org/1999/xlink" x="0px" y="0px"
	 viewBox="0 0 128 128" style="enable-background:new 0 0 128 128;" xml:space="preserve">
<path id="icon" fill="currentColor" d="M124.7,57.6c-2.9,0.8-4.8,1.4-7.7,0.6c-2.4-0.6-4.5-2.1-6.7-3c-2.4-1.1-1.9-1.6-0.2-3.3l0.2-0.2
	c1-0.8,3.7-3.5,2.7-4.8c-1-1.1-3.8-1.6-5.1-1.9c-3.8-0.8-7.7-1-11.5-0.3c-8,1.6-15.5,7.7-21,11.5c-2.4,1.8-4.9,5.4-6.5,8
	c-0.3,0.6-1,0.2-0.6-0.3c0.6-1.4,1.3-2.9,2.1-4.1c2.9-5.3,7-9.6,10.2-14.7c1.9-3,3.2-6.2,3.5-9.9c0.2-1.6,0.6-7.8-1.4-8.6
	c-2.1-0.8-4.6,3.7-6.2,2.9c-0.6-0.3-0.3-1.8-0.3-2.2c-0.2-1.6-0.5-3.2-1.1-4.8c-2.6-5.7-7.3-13.7-9.4-19.8c-0.5-1.4-1.1-2.1-1.6-2.1
	s-1.1,0.6-1.6,2.1c-2.1,6.1-6.9,14-9.4,19.8c-0.6,1.4-1.1,3-1.1,4.8c0,0.5,0.3,1.9-0.3,2.2c-1.6,0.6-4.1-3.8-6.2-2.9
	c-2.1,0.8-1.6,7-1.4,8.6c0.3,3.7,1.6,6.7,3.5,9.9c3.2,5.1,7.3,9.4,10.2,14.7c0.8,1.3,1.4,2.7,2.1,4.1c0.3,0.6-0.3,1-0.6,0.3
	c-1.6-2.6-4-6.4-6.5-8c-5.6-3.8-13.2-9.9-21-11.5c-3.8-0.8-7.7-0.6-11.5,0.3c-1.3,0.3-4.1,0.8-5.1,1.9c-1,1.3,1.8,3.8,2.7,4.8
	l0.2,0.2c1.8,1.8,2.2,2.2-0.2,3.3c-2.2,1.1-4.3,2.4-6.7,3C8,59.1,6,58.4,3.2,57.6c-3.8-1.1-1.6,2.1-0.5,3.7
	c6.5,9.7,18.2,12.1,29,9.1c5.9-1.6,14-3,19.1-1.3c4,1.4,7.7,4.9,7.7,9.6c0,7.2-2.6,10.2-4.6,12.8c-1.8,2.1-4.6,3.3-7.2,1.6
	c-3.7-2.6-1-4.9-1.8-8c-0.5-2.2-5.7,0-6.7,0.6c-2.6,1.6-4.1,4.1-4.5,7.2c-0.8,7.3,7.3,13.1,14.2,11.5c0.8-0.2,6.2-3.3,6.1-1.6
	c-0.3,3.5,0,6.4,1.3,9.7c1.1,3.2,3,6.1,4.3,9.1c0.2,0.2,0.3,1.4,0.8,3c1,3.8,6.4,3.8,7.3,0c0.3-1.6,0.6-2.9,0.8-3
	c1.3-3,3.2-5.9,4.3-9.1c1.3-3.3,1.6-6.2,1.3-9.7c-0.2-1.8,5.4,1.4,6.1,1.6c6.9,1.6,15-4.1,14.2-11.5c-0.3-2.9-1.9-5.6-4.5-7.2
	c-1-0.6-6.4-2.9-6.7-0.6c-0.6,3,2.1,5.4-1.8,8c-2.6,1.8-5.4,0.5-7.2-1.6c-2.1-2.6-4.5-5.6-4.6-12.8c0-4.5,3.7-8.1,7.7-9.6
	c5.1-1.8,13.2-0.3,19.1,1.3c11,3,22.5,0.6,29-9.1C126.3,59.5,128.6,56.5,124.7,57.6L124.7,57.6z"/>
</svg>
