<?xml version="1.0" encoding="utf-8"?>
<!-- Generator: Adobe Illustrator 28.2.0, SVG Export Plug-In . SVG Version: 6.00 Build 0)  -->
<svg version="1.1" id="Layer_1" xmlns="http://www.w3.org/2000/svg" xmlns:xlink="http://www.w3.org/1999/xlink" x="0px" y="0px"
	 viewBox="0 0 128 128" style="enable-background:new 0 0 128 128;" xml:space="preserve">
<g id="icon" fill="currentColor">
	<path class="st0" d="M1.5,21.2c-0.1-0.6,0-1.3,0.3-1.8c0.3-0.5,0.9-0.9,1.5-1.1l13.3-3v0c0.8-0.2,1.7,0.1,2.3,0.7
		c0.6,0.6,0.8,1.5,0.5,2.4c-0.3,0.8-0.9,1.5-1.8,1.6L4.4,23c-0.2,0-0.4,0.1-0.5,0.1c-0.5,0-1.1-0.2-1.5-0.5
		C1.9,22.2,1.6,21.8,1.5,21.2L1.5,21.2z M25,18.3L25,18.3c0.2,0,0.4,0,0.5-0.1l3.9-0.9c0.8-0.2,1.5-0.8,1.8-1.6
		c0.3-0.8,0-1.7-0.5-2.4c-0.6-0.6-1.5-0.9-2.3-0.7l-3.9,0.9c-0.8,0.2-1.4,0.7-1.7,1.5c-0.3,0.7-0.2,1.6,0.3,2.2
		C23.5,17.9,24.2,18.3,25,18.3L25,18.3z M41.9,77.1c-0.6,0-1.1,0.2-1.6,0.6l-14.9,13V79.5c0-0.6-0.3-1.3-0.7-1.7
		c-0.5-0.5-1.1-0.7-1.7-0.7H4.8V32.9l69.1-15.7v30.3l4.8,1.4V14.1c0-0.7-0.3-1.4-0.9-1.9c-0.6-0.5-1.3-0.6-2.1-0.5L1.9,28.6
		c-0.5,0.1-1,0.4-1.3,0.8c-0.3,0.4-0.5,1-0.5,1.5v48.6c0,0.6,0.3,1.3,0.7,1.7c0.5,0.5,1.1,0.7,1.7,0.7h18.1V96
		c0,0.5,0.1,0.9,0.4,1.3c0.2,0.4,0.6,0.7,1,0.9c0.3,0.1,0.7,0.2,1,0.2c0.6,0,1.2-0.2,1.6-0.6l18.2-15.9h12.4v-4.8L41.9,77.1z
		 M87.7,105.7H71.4c-0.9,0-1.7,0.5-2.1,1.2c-0.4,0.7-0.4,1.7,0,2.4c0.4,0.7,1.2,1.2,2.1,1.2h16.3c0.9,0,1.7-0.5,2.1-1.2
		c0.4-0.7,0.4-1.7,0-2.4C89.4,106.1,88.6,105.7,87.7,105.7L87.7,105.7z M64,105.7h-2c-0.9,0-1.7,0.5-2.1,1.2c-0.4,0.7-0.4,1.7,0,2.4
		c0.4,0.7,1.2,1.2,2.1,1.2h2c0.9,0,1.7-0.5,2.1-1.2c0.4-0.7,0.4-1.7,0-2.4C65.7,106.1,64.9,105.7,64,105.7z M126.3,62.2L78.7,48.7
		v30.7c0,0.6-0.3,1.3-0.7,1.7c-0.5,0.5-1.1,0.7-1.7,0.7H55.2v16.5c0,0.6,0.3,1.3,0.7,1.7c0.5,0.5,1.1,0.7,1.7,0.7h33l15.7,14.8
		c0.4,0.4,1,0.7,1.7,0.7c0.3,0,0.6-0.1,0.9-0.2c0.4-0.2,0.8-0.5,1.1-0.8c0.3-0.4,0.4-0.8,0.5-1.3l0.9-13.2h14.3
		c0.6,0,1.3-0.3,1.7-0.7c0.5-0.5,0.7-1.1,0.7-1.7V64.5c0-0.5-0.2-1-0.5-1.5C127.2,62.6,126.8,62.3,126.3,62.2L126.3,62.2z
		 M56.1,43.3c-0.6,0.5-1,1.2-0.9,1.9v31.8h18.7V47.4l-15.7-4.4C57.5,42.7,56.7,42.9,56.1,43.3L56.1,43.3z"/>
</g>
</svg>
