<?xml version="1.0" encoding="UTF-8"?>
<svg id="Layer_1" data-name="Layer 1" xmlns="http://www.w3.org/2000/svg" version="1.1" viewBox="0 0 128 128">
  <g fill="currentColor" id="icon">
    <path class="cls-1" d="M104.4,11.7c-2.3-2.2-5-4.3-7.9-6.2-2.8-2-5.9-3.5-8.9-4.7-3.9-1.6-8.4-.1-10.6,3.5L27.3,80.6c-.1.3-.3.7-.4.9l-3.9,30.4c-.1,1.5.5,3,1.8,3.8.7.4,1.3.7,2.2.7s1.3-.1,2-.5l26.3-16c.3-.1.5-.4.8-.7L105.6,22.8c2.3-3.6,1.8-8.4-1.2-11.2ZM32,104.6c-1.1-.7-2-1.1-3.1-1.3l2.6-19.5c3.5,1.1,7.1,3,10.8,5.3,3.6,2.3,6.7,5,9.2,7.7l-16.8,10.2c-.8-.8-1.6-1.6-2.6-2.3ZM101.5,20.3l-47.3,72.7c-2.6-2.8-5.9-5.5-9.6-7.9-3.8-2.4-7.5-4.3-11.2-5.5L80.8,6.8c1.1-1.8,3.2-2.4,5-1.8,2.7,1.1,5.4,2.6,8.1,4.3s5.1,3.6,7.3,5.7c1.3,1.3,1.5,3.5.4,5.3Z"/>
    <path class="cls-1" d="M87.1,11.9c-1.1-.7-2.6-.4-3.2.7l-40.7,62.5c-.7,1.1-.4,2.6.7,3.2.4.3.8.4,1.3.4.8,0,1.5-.4,2-1.1L87.9,15c.5-.9.3-2.4-.8-3.1Z"/>
    <path class="cls-1" d="M102.8,123.3H23.3c-1.3,0-2.3,1.1-2.3,2.3s1.1,2.3,2.3,2.3h79.5c1.3,0,2.3-1.1,2.3-2.3s-.9-2.3-2.3-2.3Z"/>
  </g>
</svg>