<?xml version="1.0" encoding="UTF-8"?>
<svg id="Layer_1" data-name="Layer 1" xmlns="http://www.w3.org/2000/svg" version="1.1" viewBox="0 0 128 128">
  <path
    id="icon"
     d="M 16,116.00001 H 28.000001 V 128 H 16 C 7.1750001,128 0,120.825 0,112 V 16 C 0,7.1750001 7.1750001,0 16,0 h 41.375001 c 4.25,0 8.325,1.6750001 11.325,4.6750001 L 91.325002,27.3 c 3,3 4.674999,7.075001 4.674999,11.325001 v 37.375 h -12 v -36 h -20 c -4.425,0 -8,-3.575 -8,-8.000001 V 12 H 16 c -2.2,0 -4,1.8 -4,4 v 96 c 0,2.2 1.8,4.00001 4,4.00001 z M 44.000001,88.000002 h 8 c 7.725,0 14,6.275 14,13.999998 0,7.72501 -6.275,14.00001 -14,14.00001 h -4 V 124 c 0,2.2 -1.8,4 -4,4 -2.2,0 -4,-1.8 -4,-4 V 112 92.000002 c 0,-2.200001 1.8,-4 4,-4 z m 8,19.999998 c 3.325,0 6,-2.675 6,-6 0,-3.325003 -2.675,-5.999999 -6,-5.999999 h -4 V 108 Z m 24,-19.999998 h 8 c 6.625,0 12,5.375 12,12.000008 v 16 c 0,6.625 -5.375,11.99999 -12,11.99999 h -8 c -2.2,0 -3.999999,-1.8 -3.999999,-4 V 92.000002 c 0,-2.200001 1.799999,-4 3.999999,-4 z m 8,31.999998 c 2.2,0 4.000001,-1.8 4.000001,-3.99999 v -16 c 0,-2.200007 -1.800001,-4.000009 -4.000001,-4.000009 h -4 V 120 Z M 104,92.000002 c 0,-2.200001 1.8,-4 4,-4 h 12 c 2.20001,0 4,1.799999 4,4 0,2.2 -1.79999,3.999999 -4,3.999999 h -8 V 104 h 8 c 2.20001,0 4,1.8 4,4 0,2.2 -1.79999,4 -4,4 h -8 v 12 c 0,2.2 -1.8,4 -4,4 -2.2,0 -4,-1.8 -4,-4 v -16 z"
     fill="currentColor"/>
</svg>
