<?xml version="1.0" encoding="utf-8"?>
<!-- Generator: Adobe Illustrator 28.2.0, SVG Export Plug-In . SVG Version: 6.00 Build 0)  -->
<svg version="1.1" id="Layer_1" xmlns="http://www.w3.org/2000/svg" xmlns:xlink="http://www.w3.org/1999/xlink" x="0px" y="0px"
	 viewBox="0 0 128 128" style="enable-background:new 0 0 128 128;" xml:space="preserve">
<g id="icon" fill="currentColor">
    <circle fill="none" stroke="currentColor" cx="64" cy="64" r="57" stroke-width="4"/>
	<path d="M35.8,12.2c-0.1,0.5,0.5,0.2,0.9,0.2c-0.1-0.3-0.6-0.2-0.7-0.2c0.1-0.1,0.1-0.2,0.1-0.2c0.4,0.1,0.7,0.2,1.1,0.3
		c0,0.2,0.1,0.3,0,0.5c0.3,0,0.7-0.3,0.9-0.2C38,13,37.5,12.7,37.6,13c0,0.2,0.5,0.1,0.5-0.2c0.3,0.2,0.5,0.2,0.7,0.2
		c-0.1,0.2-0.4,0.1-0.6,0.1c0.2,0.2,0.1,0.5,0.2,0.6c0,0.1,0,0.2,0,0.2c-0.1,0.1-0.2,0.1-0.2,0.2c0.2,0,0.2-0.1,0.2-0.2
		c0.2,0,0.4-0.2,0.7-0.3c0.2,0.2,0.7,0.4,0.4,0.7c0.4-0.1,0.5,0.4,0.6,0.7c0.7,0.7,0.7,1.6,0.2,3c0.2,0.7-0.5,2.3-1.1,3.6
		c-0.7,1.6-1.4,2.8-1.8,4.1c-0.2-0.3,0.2-1.4,0.6-2.3c-0.6,0.3-0.7,1.9-1.4,2.2C36.2,25.6,36,25.7,36,26c-0.6,0-0.7,0.7-1.1,1
		c-0.5,0.1-0.8,0.3-1.4,0.5c-0.6-0.2-1.3,0.2-1.8-0.1c-2.3,0.8-3.2-0.8-3.1-2.5c-0.1,0-0.1,0.1-0.2,0.2c0-0.3,0-0.7,0.1-1.1
		c0.3,0,0.4-0.5,0.8-0.4c-0.1,0.2-0.2,0.2-0.2,0.4c0.2,0.1,0.2-0.2,0.5-0.1c0,0.2-0.2,0.4-0.1,0.4c0.5-0.5,1-1.6,1.1-2.3
		c0.5-0.8,1.3-2.3,1.1-3.3c-1,0.7-1.9,1.4-2.7,2.3c-1-0.1-1.1,1.1-2.1,1.1c0.1,0.1,0.1,0.2,0,0.4c-0.1,0.2-0.3,0.2-0.5,0.2
		c-0.6,1.2-2.1,1.8-2.8,3.2c-0.8,0.3-1,1.4-1.9,1.7c0,0.1,0.2,0.2,0,0.3c-2.1,2.3-3.8,4.8-5.7,7.2c-0.1,0.2,0.2,0.2,0,0.4
		c-1.3,1.4-2.2,3.3-3.4,5.2c-0.1,0.2,0.2,0.1,0.1,0.3c-0.6,0.2-0.7,1.1-1.1,1.4c-0.1,0.2-0.1,0.3,0.1,0.3c-1.2,1.7-1.9,3.7-2.8,5.5
		c-0.6,1.1-0.6,1.7-1.1,2.5c-0.5,1.4-0.7,2.8-1.4,4.2c-0.1,0.7-0.1,2.1-0.2,2.8c0.1,0.2,0.3,0.5,0,0.9c0,0.7,0.2,1.4,0.2,2.1
		c0.7,1.2,3.2,0.3,4.7-0.4c0.1,0.1,0,0.2,0,0.4c0.7-0.2,1.4-0.5,1.9-1.1c1.3,0,2.3-1.3,3.5-1.9c0.2,0,0,0.2,0.2,0.2
		c0.2-0.2,0-0.2,0.1-0.5c2.2-1.2,3.9-3,5.8-4.3c0.2,0.2-0.4,0.6-0.3,0.9c0.5,0.1,0.2-0.7,0.7-0.7c-0.1,0.2,0.2,0.2,0.2,0.1
		c0-0.1-0.2-0.1-0.2-0.1c0.1-0.2-0.1-0.2-0.1-0.4c0.5-0.1,0.6-1,1.2-0.7c-0.3,0.2-0.5,0.4-0.8,0.7c0.1,0.1,0.2,0.2,0.3,0.2
		c-0.2,0.3-0.3,0.4-0.8,0.7c0.5,0.2,0.8-0.6,1.2-0.7c0-0.2-0.2-0.2-0.3-0.2c0.9-0.9,1.6-1.6,2.5-2.6c0.1-0.1,0.2-0.2,0.2-0.3
		c0.2,0,0.1,0.2,0.1,0.3c0.6-0.2,0.8-0.8,1.4-1.1c-0.7,1.1-1.9,1.6-2.6,2.7c-0.1,0-0.1,0-0.1,0.1c0.1,0,0.1,0,0.1-0.1
		c0.9-0.4,1.4-1.1,2.1-1.6c0.3,0,0,0.1,0,0.3c0.4,0,0.5-0.4,0.3-0.7c0.3-0.1,0.2,0.2,0.2,0.3c0.2-0.1,0.4-0.8,0.5-0.9
		c0.2-0.1,0.4-0.2,0.7-0.4C29,49.2,29,49.4,29,49.5c0.2-0.1,0.4-0.2,0.6-0.6c0.6,0.2,0.4-0.9,1-1c-0.1-0.5-0.4,0.2-0.6,0
		c-0.3,0.2-0.6,0.8-0.9,0.7c0.7-0.6,1.1-1.1,1.8-1.7c-0.2,0.3-0.2,0.5-0.4,0.7c0.2,0.2,0.2-0.1,0.5-0.1c-0.1,0.2-0.2,0.2-0.3,0.5
		c0.5-0.2,0.9-0.5,1-1.2c-0.2,0-0.2,0.3-0.4,0.2c0-0.1,0-0.2-0.2-0.2c0.3-0.4,0.7-0.8,1.2-1.1c0-0.1,0-0.2,0-0.3
		c2.2-1.7,4.2-3.6,6.2-5.6c1.3-1,2.5-2.1,3.7-3.2c1.2-1,2.5-1.9,3.5-3.3c1.1-0.7,1.8-1.6,3-2.2c0.4-0.9,1.6-1.4,2.3-2.2
		c-1,1.6-2.1,2.6-2.8,3.7c-0.7,0.7-1.4,1.3-2.1,2.3c-0.5,0.2-1.2,1-1.6,1.6c-0.9,0.2-0.5,1.1-1.3,1.6c0.1-0.2,0-0.2,0-0.3
		c-0.2,0-0.6,0.6-0.2,0.5c-0.2,0.4-0.7,0.7-0.8,1.1c-0.2,0-0.2-0.1-0.3-0.1c-0.2,0.1,0.1,0.2-0.1,0.4c-1,0.7-1.7,1.9-2.8,2.5
		c-0.1,0.2,0.1,0.2-0.2,0.4c-0.2,0-0.1-0.1-0.2-0.2c-0.2,0.2-0.3,0.6-0.5,0.8c-0.2,0-0.2,0-0.4,0c-0.1,0.2,0.2,0.2,0,0.4
		c-0.6,0.2-0.8,0.6-1.1,1c-0.7,0.2-1,0.9-1.4,1.3c-0.2,0.3,0.1,0.3-0.2,0.6c0.4-0.1,0.5-0.6,0.8-0.5c0.1-0.1,0.1-0.2,0-0.2
		c0.1-0.2,0.3,0.2,0.4-0.1c-0.2-0.2,0.2-0.7,0.2-0.9c0.2,0.3,0.3,0.6,0.4,0.8c-0.7,0.2-1,1.4-1.7,2.1c0.2,0.4-0.2,0.7-0.4,1.3
		c0.5,0.3-0.3,1.1-0.7,1.8c0-0.1,0.1-0.2,0-0.2c-0.3,0.2-0.4,0.5-0.6,0.7c-1.1,0-1.2,1.2-1.9,1.6c0.2-0.2,0.2-0.4,0.2-0.6
		c-0.3,0.1-0.3,0.4-0.7,0.6c0.2,0.6-1.1,1.2-1.6,1.8c-0.1,0,0-0.2-0.1-0.2c-0.2,0.4-0.6,0.6-0.7,0.8c-0.9,0-1.1,1.6-2.1,1.6
		c0.2-0.1,0.2-0.2,0.3-0.5c-0.7,0-0.2,0.7-0.2,0.8c-0.2,0.1-0.3,0.2-0.7,0.2c-0.1,0.3-0.3,0.3-0.3,0.7c-1.1,0.2-1.6,1.9-2.7,1.7
		c0,0.2-0.2,0.3-0.2,0.6c-1.1,0.3-1.1,1.4-2.3,1.6c-0.4,0.3-0.7,0.8-1.2,0.8c0.1-0.1,0.2-0.2,0.1-0.2c-0.1,0-0.3,0.2-0.1,0.2
		c0.1,0.2-0.5,0.2-0.2,0.2c0,0.1-0.2,0.1-0.2-0.1c-0.2,0.2-0.7,0.3-0.7,0.7c-0.2,0.1-0.1-0.2-0.1-0.3c-0.2,0.1-0.1,0.4-0.2,0.6
		c-0.2-0.2-0.4,0.2-0.7,0.2c-0.1,0-0.1-0.1,0.1-0.2c0.1,0,0.1,0,0.1-0.1c0.1,0,0.2,0,0.2-0.1c-0.1,0-0.2,0-0.2,0.1
		c-0.1,0-0.1,0-0.1,0.1c-0.6,0.5-1.6,0.7-1.6,1.3c-0.2,0.2-0.6,0.2-0.7,0.4c-0.3,0-0.4-0.2-0.8-0.1c-0.2,0.3,0,0.6,0.2,0.3
		c0.3,0.2-0.2,0.3-0.5,0.2c-0.1-0.2,0.3-0.4,0.2-0.6c-0.2,0-0.3,0.2-0.5,0.5c-0.3-0.1-0.2-0.2-0.6-0.2c-0.2,0.1-0.1,0.4-0.4,0.3
		c-0.2,0.2,0,0.3,0,0.5c-0.9-0.2-1.4,0.9-2.5,0.3c-1.6,0.9-3.1,0.1-4.6-0.1c-0.1-0.1-0.1-0.2,0.2-0.3c-0.7,0.1-1-0.6-1.2-0.8
		c-0.4-0.2-0.7-0.1-0.8-0.5c-0.1-0.5-0.7-0.6-0.9-0.8c0.1-0.1,0.1-0.2,0-0.3c-0.2-0.7-1-1.1-1.2-1.6c0-0.2,0.1-0.2,0.1-0.3
		c0-0.2-0.2,0.2-0.4,0c0-0.1-0.1-0.1,0.1-0.2c0.2,0,0.2-0.1,0.2-0.2c0-0.2,0-0.4-0.2-0.4c-0.2,0.2,0.1,0.3,0,0.6
		C1.1,62,1.1,61.8,1,61.5c0.2,0,0.2,0,0.2-0.1C1.2,61,0.9,60.7,1,60c0.2,0.1,0.2,0.1,0.3,0c0-0.3-0.5,0.1-0.4-0.2
		c0.4,0.1,0.3-0.5,0.6-0.6c0-0.9-0.4-1.4-0.5-2.3c0.2,0.1,0.3-0.1,0.4-0.2c-0.2-0.3,0.2-1.2-0.5-1.2c-0.2,0.3,0.2,0.6-0.1,0.9
		C0.7,56.3,1,56.1,0.7,56c-0.2,0.6,0,1.6-0.4,2.2c-0.7-0.9,0.1-2.1,0.2-3.7c-0.1,0-0.2,0-0.2,0.2c0-0.4,0.8-1.1,0.4-1.6
		c0.2-0.1,0.2-0.3,0.2-0.5c0.2,0,0.2-0.1,0.3-0.2C1,51.9,1.2,51.5,1.6,51C1.6,51,1.6,51,1.4,51c1.2-1.1,1.6-3,2.1-4.6
		c0.1-0.2,0.2-0.2,0.4-0.2c-0.2-0.4,0.3-0.7,0.6-1.1c0-0.1-0.2-0.1-0.2,0c-0.2-0.1,0.2-0.3,0.2-0.4c0-1.1,1.2-1.8,1.3-3
		c0.2,0.1,0.2-0.3,0.4-0.3C7,39.4,8.2,37.7,9,35.6c0.6-0.4,0.8-1.1,1.1-1.7c1.6-0.2,1-2.5,2.6-2.8c0.7-0.7,1.1-1.4,1.1-2.5
		c0.1,0,0.1-0.1,0.2-0.2c0.2,0,0.4,0,0.6,0c-0.2,0.2-0.2,0.7-0.7,0.7c0,0.2-0.1,0.4-0.2,0.6c0.6-0.5,1.4-1.4,1.3-1.9
		c0.3-0.2,0.7-0.3,0.8-0.7c-0.3,0.1-0.4,0-0.7,0.3c-0.2-0.1,0.3-0.5,0.1-0.7c0.2,0,0.2-0.1,0.3-0.1c-0.1-0.4,0.5-0.9,0.7-1.4
		c0.2,0,0.2,0.1,0.3,0.1c0.8-0.7,1.6-1.6,2.3-2.5c0.1,0.1,0.3,0.1,0.4,0c-0.1-0.2,0-0.4,0-0.6c-0.2,0-0.7,0.2-0.7,0.2
		c1-1.3,2.2-1.6,2.8-3c0.5-0.1,1.1-0.6,1-1c0.2-0.2,0.3,0,0.7-0.1c0.2-0.3,0.7-0.6,0.9-1.1c0.2,0,0.4-0.2,0.7-0.2
		c0.4-0.6,0.9-0.7,1.3-0.9c0.2-0.3,0.2-0.4,0.2-0.6c0.6,0,0.8-0.5,1.3-0.5c0.1-0.2,0-0.2,0-0.3c0.5,0.2,0.5-0.1,0.9-0.2
		c-0.2-0.3,0.7-0.9,1.1-0.7c0.2-0.1,0.2-0.2,0.2-0.4c0.2-0.1,0.2,0.2,0.3,0.2c0.2-0.2,0.2-0.3,0.4-0.5c0.3,0,0.6,0.1,0.9-0.4
		c0.2-0.1-0.1,0.2,0.2,0.2c0.3-0.2,0-0.3-0.2-0.4c0.3-0.3,0.7-0.3,1.1-0.7c0.1,0.2-0.4,0.3-0.6,0.6c0.3,0.4,0.7-0.5,1.2-0.5
		c0.1-0.3-0.2,0-0.4-0.1c0.1-0.3,0.6-0.2,0.9-0.3c0.2,0.1,0,0.5,0.4,0.4c-0.2,0.2-0.3,0-0.3-0.1c-0.1,0.1-0.2,0.2-0.3,0.4
		c0.2,0.5,1.1-0.5,1,0.2c0.3-0.1,0.1-0.2,0.2-0.6c0.5,0.3,0.7,0.5,1.6,0.2c0.2-0.2,0.1-0.3,0.1-0.5c0.2,0,0.3,0.2,0.4,0.2
		c-0.1,0.2-0.2,0.1-0.2,0.2C36,12,35.9,12,35.8,12.2z M0.4,58.3c-0.2,0.6-0.2,0.9-0.4,1.2c0-0.4,0.2-0.7,0-1.3
		c0.2,0,0.2-0.1,0.2-0.2C0.4,58,0.1,58.4,0.4,58.3z M0.4,59.8c-0.1-0.1-0.2,0-0.2,0.2c-0.3-0.1,0.1-0.4,0.1-0.7
		C0.5,59.3,0.5,59.6,0.4,59.8z M0.4,56.4c0.1,0,0.1,0,0.2,0c-0.2,0.1-0.2,0.1-0.2,0.2c-0.1,0-0.1,0-0.2,0
		C0.2,56.5,0.2,56.5,0.4,56.4z M0.4,60.5c-0.1,0.2-0.2,0-0.2-0.2C0.4,60.3,0.4,60.5,0.4,60.5z M0.4,59.3C0.6,59,0.7,58.8,1,58.7
		C0.9,58.9,0.9,59.1,0.4,59.3z M0.6,61c0-0.2,0.4,0.2,0.4,0.4C0.9,61.2,0.6,61.2,0.6,61z M0.9,59.3c0.2,0.1-0.1,0.2,0.1,0.3
		C0.7,59.6,0.7,59.3,0.9,59.3z M1.1,58.4c0,0.1,0,0.1,0,0.2c0,0-0.1,0-0.1,0.1H1C1,58.6,1,58.4,1.1,58.4z M1.2,54
		c-0.2,0.2-0.3,0.7-0.1,0.8C1.4,54.5,1.6,54,1.2,54z M1.6,57.2c0.2-0.3-0.2-0.4-0.4-0.2C1.2,57.1,1.3,57.3,1.6,57.2z M1.8,51.9
		c0.2,0,0.4-0.1,0.2,0.2c-0.1,0-0.2,0-0.3,0c0.1,0.3-0.2,0.3-0.2,0.7c0.4-0.2,0.2,0.1,0.3,0.2c0.4-0.6,0.6-1.1,0.5-1.6
		c-0.1,0.1-0.2,0.2-0.3,0.3C1.8,51.7,1.8,51.7,1.8,51.9z M1.5,49.9c0-0.2,0-0.3,0.2-0.3C1.8,49.7,1.8,49.9,1.5,49.9z M1.6,54
		c0.1,0.2-0.2,0.5,0,0.5C1.6,54.4,1.9,53.9,1.6,54z M2.1,53c-0.5,0-0.8,0.7-0.5,0.9C2,53.6,2,53.5,2.1,53z M2.1,50.3
		c-0.1,0-0.2,0-0.2,0c-0.2,0.2,0,0.3-0.2,0.6C2,50.9,2.1,50.6,2.1,50.3z M2.4,51.4C2.2,51,2.5,51,2.6,50.6c-0.1,0,0-0.2-0.2-0.2
		c-0.2,0.3-0.7,0.7-0.6,1C2.1,51.5,2.2,51.4,2.4,51.4z M2,62.4c0-0.1,0-0.2-0.2-0.2c0,0.1,0,0.1,0,0.2C2,62.3,2,62.4,2,62.4z
		 M2.4,53.4c-0.1,0.2-0.3,0.6,0,0.5C2.5,53.7,2.5,53.6,2.4,53.4z M2.3,64.9c-0.1,0,0.2-0.2,0-0.2C2.4,64.4,2.5,64.9,2.3,64.9z
		 M2.8,50.3c0-0.1,0-0.1,0-0.2c-0.1,0-0.1-0.1-0.2-0.1c0,0.2-0.2,0.1-0.2,0.2C2.5,50.3,2.6,50.3,2.8,50.3z M2.5,53.1
		c0-0.2-0.1-0.7,0.2-0.7c0-0.2,0.2-0.7,0-0.7c-0.2,0.3-0.2,0.2-0.3,0.5C2.8,52.2,2.1,52.9,2.5,53.1z M2.6,50c0.1,0,0.2,0,0.2-0.1
		C2.8,49.9,2.7,49.9,2.6,50z M4.1,47.4c0.2,0.2-0.1,0.5-0.2,0.5c0.1-0.2,0.1-0.2-0.1-0.2C3.6,48,4,48,3.8,48.6
		c0.2,0,0.2-0.1,0.3-0.1c-0.2,0.4-0.3,1.1-0.9,1.6c0.2,0.3-0.3,1-0.2,1.2c0.2-0.3,0.7-0.5,0.4-0.8c0.2,0.1,0.2-0.2,0.3-0.2
		c0-1,1.1-2.3,1.7-3.2c-0.1,0-0.3,0.1-0.3-0.1c0.1-0.2,0.3-0.2,0.4-0.2c0.2-0.6,0.6-1.2,1.1-1.8c-0.5-0.7,1.2-1.6,0.9-2.5
		c1.6-2.3,2.6-4.9,4-6.5c0.1-0.7,0.8-1.4,1.4-2.2c-0.2-0.5,0.2-0.8,0.5-1.1c-0.2,0-0.2,0-0.4,0c0.1,0.2-0.2,0.3-0.3,0.3
		c-0.2-0.2-0.1-0.2,0-0.5c-0.6,0.3-0.7,0.9-1.1,1.3c0.3,0.2,0.8-0.7,1.1-0.6c-0.4,0.2-0.6,0.9-1.4,0.9c-0.7,1-1.4,2.3-2.1,3.2
		c0.7-1.4,1.6-2.5,2.1-3.7c-0.2,0-0.2,0-0.4,0c-0.2,0.3-0.5,1.1-0.7,1.4c0,0.1-0.3,0.2-0.3,0.2c-0.2,0.4,0.2,0.1-0.2,0.5
		c-0.6,0.5-0.6,1.2-1,1.8l-0.3-0.1c-0.2,0.5-0.2,0.9-0.7,1.2c0.2,0.7-0.9,1.9-1.1,2.5c-0.1-0.1-0.2-0.1-0.3,0
		c-0.1,0.2-0.2,0.4-0.2,0.6c0.2,0.2,0.4-0.1,0.4,0.2c0,0.2-0.2,0.2-0.3,0.4c0.4-0.1,0.3-0.2,0.6-0.4c0,1-1,1.4-1.8,1.8
		c-0.2,1.3-1,2.3-1.2,3.5c-0.3,0.1-0.2-0.2-0.4,0c-0.1,0.1-0.1,0.2-0.1,0.3c0.3-0.1,0.3-0.2,0.6,0c0.3-0.3,0.4-0.9,0.6-1.1
		C4.4,46.6,4.3,47.1,4.1,47.4C3.8,47.3,4.1,47.6,4.1,47.4z M3,49.5c0.1,0,0.1,0.2,0.2,0C3.1,49.4,3,49.4,3,49.5z M3.4,47.6
		c-0.2,0.6-0.7,1.1-0.3,1.4C3.3,48.5,3.5,48.1,3.4,47.6z M3.9,44.8c-0.2-0.1,0-0.2,0-0.2c0-0.1,0-0.2-0.1-0.2
		C4.1,44.2,4.3,44.8,3.9,44.8z M4.3,48.5c0,0.2-0.1,0-0.2,0C4.1,48.3,4.3,48.3,4.3,48.5z M4.3,44.1c-0.2,0-0.2-0.3-0.1-0.5
		C4.6,43.6,4.4,43.9,4.3,44.1z M4.8,65.6c-0.1-0.2,0.2-0.2,0.2-0.4c-0.3,0.1-0.2-0.2-0.6-0.1c-0.1,0.2-0.2,0.2-0.2,0.3
		C4.5,65.3,4.5,65.6,4.8,65.6z M4.3,46.3c0.2-0.2,0.2-0.7,0.5-0.7C4.6,45.9,4.6,46.3,4.3,46.3z M4.6,47.7c-0.1,0-0.1,0-0.2,0.1
		c-0.1,0,0-0.2,0-0.2C4.6,47.5,4.6,47.6,4.6,47.7z M5,47c-0.1,0.2-0.3,0.4-0.6,0.4c0-0.1,0.1-0.2,0-0.2c0.1-0.2,0.3-0.2,0.2,0
		C4.8,47.1,4.8,47,5,47z M5,45.3c-0.2,0-0.2,0.1-0.3,0.2C4.5,45.3,5,45.2,5,44.9C5.1,44.9,5.1,45.1,5,45.3z M4.8,42.9
		c-0.1,0-0.1,0-0.2,0c0-0.1,0-0.1,0-0.2c0.1,0,0.1,0,0.1-0.1C4.9,42.7,4.9,42.8,4.8,42.9z M4.6,52.7c0.1,0,0.2,0,0.2-0.1
		C4.8,52.6,4.6,52.6,4.6,52.7z M4.8,56C4.9,56,5,56,5,55.9C4.9,55.9,4.8,55.9,4.8,56z M4.8,57.6c0.2,0,0.4,0,0.4-0.2
		c0.1,0,0.1,0,0.2,0c0.1-0.1,0.1-0.1,0.2-0.2c-0.2,0-0.2,0.1-0.3,0.2C5.1,57.5,4.8,57.5,4.8,57.6z M5.5,50.3c0-0.2,0.2-0.4,0.1-0.5
		c-0.3,0-0.7,0.4-0.4,0.6C5.3,50.4,5.3,50.3,5.5,50.3z M5.3,58.2C5.1,58.5,5.5,58.2,5.3,58.2c0-0.1-0.1-0.1-0.2-0.1c0-0.1-0.1,0,0,0
		C5.1,58.2,5.2,58.2,5.3,58.2z M5.5,48.6c-0.2,0-0.2,0.2-0.3,0.3C5.5,48.9,5.5,48.8,5.5,48.6z M5.7,58.9c-0.2,0-0.2,0.1-0.2,0.2
		C5.6,59,5.7,58.9,5.7,58.9z M5.9,43.1c0-0.1,0-0.2,0-0.2c-0.2,0-0.2,0.1-0.3,0.1C5.4,43.2,5.7,43.1,5.9,43.1z M5.8,53.1
		c0,0.1-0.1,0.2-0.1,0.2C6,53.6,6,53.1,5.8,53.1z M5.9,58.3c0.1-0.1,0.1-0.1,0.1-0.2c-0.1,0-0.1,0-0.2,0c0,0.1,0,0.1-0.1,0.2
		C5.8,58.3,5.8,58.3,5.9,58.3z M6,48.5C6,48.8,5.8,49,5.8,49.2C6,49,6.2,48.6,6,48.5z M5.8,57.5c0,0.2,0.1,0.2,0.2,0.2
		C6,57.6,6,57.5,5.8,57.5z M6,59.6c-0.1,0.2,0,0.2,0.1,0.2C6.2,59.6,6,59.6,6,59.6z M6,46.4c0.1,0.2-0.2,0.4,0,0.4
		C6.2,46.6,6.4,46.4,6,46.4z M6.2,48.8c0.1,0,0.2,0,0.2-0.1C6.3,48.7,6.2,48.7,6.2,48.8z M6.4,56.9c0-0.1,0-0.1,0-0.2
		c-0.1,0-0.1,0-0.2,0c0,0.1,0,0.1,0,0.2C6.3,56.9,6.3,56.9,6.4,56.9z M6.5,47.4c0,0.2-0.2,0.4,0.2,0.3C6.7,47.5,6.7,47.4,6.5,47.4z
		 M6.7,41.5c0.1-0.1,0.1-0.2,0.2-0.2C6.9,41.4,6.9,41.5,6.7,41.5z M6.9,66.5c0.2,0.2,0.6,0.2,1.1,0.2C8,66.3,7.3,66.4,6.9,66.5z
		 M6.9,41.3c0.2-0.2,0.2-0.4,0.4-0.5C7.2,40.9,7.3,41.5,6.9,41.3z M7.2,53.1c0-0.1,0-0.2,0-0.3c-0.1,0-0.1,0-0.2,0
		c0,0.1,0,0.2,0,0.3C7.1,53.1,7.1,53.1,7.2,53.1z M8.1,38.9C8,39,7.9,39,7.9,39C7.9,38.9,8,38.9,8.1,38.9z M9.2,38.6
		C8.9,39,9.2,39,9,39.4c-0.2,0-0.5,0.1-0.6,0.2c-0.2-0.1-0.2-0.2-0.2-0.5c0.2,0.2,0.4-0.2,0.4,0.2c0.1,0,0.2-0.2,0.2-0.2
		c0.2-0.2,0-0.3,0.1-0.6C9,38.6,9,38.6,9.2,38.6z M8.3,38.4c0-0.1,0-0.2,0-0.2C8.5,38.1,8.4,38.6,8.3,38.4z M10.7,39.7
		c-0.1,0.2-0.2,0.2-0.2,0.4C10.8,40.2,10.9,39.5,10.7,39.7z M11.3,35.1C11.2,35.1,11.3,35,11.3,35.1c-0.1-0.1-0.1-0.1-0.1-0.2
		C11.3,34.8,11.3,35,11.3,35.1z M11.9,32.8c0.1-0.2,0.2-0.5,0.4-0.7c-0.1,0-0.1,0-0.2,0c-0.1,0.3-0.4,0.3-0.6,0.7
		C11.7,32.6,11.7,32.8,11.9,32.8z M11.8,31.2c-0.1,0.1-0.1,0.1-0.1,0.2c-0.1,0-0.1,0-0.2,0c0-0.1,0-0.1,0.1-0.2
		C11.7,31.2,11.7,31.2,11.8,31.2z M11.8,42c0,0.2,0,0.2,0.1,0.2C12,42.1,11.9,42.1,11.8,42z M12.5,30c0,0.1-0.1,0.1-0.2,0.1
		C12.3,30,12.4,30,12.5,30z M16.4,26.8c-0.1,0.2-0.2,0.3-0.1,0.5c-1.1,0.7-1.7,1.9-2.5,2.8c0,0.2,0.2-0.2,0.3,0.1
		c-0.3,0.7-1.1,1.3-1.1,1.9c0.6-0.1,0.4-0.7,0.9-0.9c0.2-0.2-0.2-0.2-0.1-0.4c1.3-0.7,1.8-1.9,3-3c-0.1,0.6-0.6,0.7-0.7,1.1
		c1.1-0.5,1.1-1.8,2.1-2.2c0.2-0.7,0.7-1.1,1.1-1.4c-0.2-0.1-0.3,0.2-0.3,0c0.4-0.3,0.7-0.7,0.9-1.1c-0.4,0-0.3,0.4-0.7,0.6
		c0-0.7,0.9-1.1,1.1-1.9c-1.1,1-2.1,2.1-3.1,3.1c0.2,0,0,0.3,0,0.4c-0.2,0.2-0.5,0.2-0.7,0.4H16.4z M13.7,30.3
		c-0.1,0.1-0.6,0.4-0.3,0.6C13.4,30.7,13.8,30.5,13.7,30.3z M13.4,32.4c0.6,0.1,0.7-0.4,0.7-0.8c-0.1,0-0.3,0-0.3,0.1
		c0.2,0.1-0.1,0.3-0.2,0.6C13.6,32.3,13.4,32.3,13.4,32.4C13.4,32.5,13.4,32.5,13.4,32.4z M14.3,30.3c-0.1-0.2-0.2-0.2-0.1-0.6
		C14.6,29.8,14.4,30,14.3,30.3z M14.6,30.6c-0.1,0.2-0.4,0.5-0.2,0.5C14.6,31,14.7,30.7,14.6,30.6z M14.7,27.7c0,0.2-0.1,0-0.2,0
		C14.6,27.6,14.7,27.6,14.7,27.7z M15.2,65.3c0.1-0.1,0.1-0.2,0.1-0.2c-0.2,0-0.6,0.2-0.4,0.3C14.8,65.3,15.1,65.3,15.2,65.3z
		 M15,65.8c-0.1,0,0.1-0.2,0.1-0.3C15.2,65.6,15.1,65.8,15,65.8z M15.7,29.9c0-0.1,0-0.1,0-0.2c-0.1,0-0.1,0-0.2,0
		c0,0.1,0,0.1,0,0.2C15.6,29.9,15.6,29.9,15.7,29.9z M15.8,30.9c-0.1,0.1-0.2,0.3-0.2,0.5C15.8,31.5,16.1,30.9,15.8,30.9z
		 M15.7,26.2c0.2,0.2,0.3-0.2,0.2-0.2c-0.1,0.1-0.1,0.1-0.2,0.1C15.7,26.1,15.7,26.1,15.7,26.2z M16.4,26.1c-0.1,0-0.2,0-0.2-0.1
		c0,0.1-0.1,0.2-0.1,0.3C16.2,26.4,16.4,26.4,16.4,26.1z M16.5,27c0.2-0.1,0.2-0.2,0-0.2C16.5,26.8,16.4,27,16.5,27z M16.6,64.9
		c0.2-0.3,0.5-0.5,0.8-0.7C17.2,64.6,17,64.9,16.6,64.9z M17,24.3c0-0.2,0.2-0.2,0.2-0.4C17.6,23.8,17.2,24.4,17,24.3z M17.5,64.2
		C17.5,64.3,17.5,64.3,17.5,64.2C17.5,64.2,17.5,64.2,17.5,64.2z M18.2,23.2c-0.2-0.2,0.3-0.5,0.4-0.7C18.8,22.7,18.2,23,18.2,23.2z
		 M19.8,62.3c0-0.1,0-0.2-0.2-0.2c0,0.1,0,0.1,0,0.2C19.7,62.3,19.7,62.3,19.8,62.3z M20.3,24.3c-0.1,0-0.2-0.1-0.3-0.1
		c0,0.1-0.2,0.4,0,0.4C20,24.4,20.2,24.4,20.3,24.3z M21.4,21.8c-0.3,0.1-0.7,0.5-0.7,0.7C21.1,22.4,21.2,22.2,21.4,21.8z
		 M21.2,23.8c-0.1,0-0.1-0.1-0.2-0.1c-0.1,0.2-0.1,0.2-0.2,0.3C21,24.2,21,24,21.2,23.8z M21,61.5c0-0.1,0-0.2,0-0.3
		c-0.1,0-0.1,0-0.2,0c0,0.1,0,0.2,0,0.3C21,61.5,21,61.5,21,61.5z M21.4,23.2c-0.2,0.2-0.2,0.3,0.1,0.2
		C21.4,23.3,21.4,23.3,21.4,23.2z M21.6,60.7c0.1,0,0.2,0,0.2-0.1C21.7,60.7,21.6,60.7,21.6,60.7z M22,21c-0.1,0.2-0.1,0.2-0.2,0.3
		C22,21.5,22.1,21,22,21z M22.2,54.9c0-0.1,0-0.1,0-0.2c0-0.1,0-0.1-0.1-0.1c0,0.2-0.2-0.1-0.2,0.2C22,54.9,22.1,54.9,22.2,54.9z
		 M22.6,18.7c0.1,0,0.2,0.2,0.2,0C22.8,18.6,22.6,18.6,22.6,18.7z M25.1,52.4c-0.2,0.1-0.4,0.2-0.7,0.5
		C24.9,52.7,25.1,52.7,25.1,52.4z M25,51.4c0.2,0.1-0.1,0.5-0.4,0.4C24.6,51.5,25,51.7,25,51.4z M27,51.1c0.2,0.2,0.3-0.2,0.2-0.2
		C27.1,51,27.1,51,27,51C27,51,27,51,27,51.1z M28,53.9c-0.3,0-0.7,0.3-0.5,0.6C27.9,54.5,27.9,54,28,53.9z M27.5,14.6
		c0.2-0.1,0.2-0.2,0.4-0.2C27.9,14.5,27.7,14.6,27.5,14.6z M27.6,22.2c0-0.1,0.2-0.1,0.2-0.2C28.1,22,27.8,22.2,27.6,22.2z
		 M28.8,48.8c-0.2,0.2-0.3,0.6-0.7,0.5C28.3,49.2,28.5,48.8,28.8,48.8z M28.2,48.7c0-0.2,0.2-0.2,0.2-0.3
		C28.6,48.5,28.3,48.8,28.2,48.7z M29.2,52.7c-0.3-0.1-0.7,0.7-0.7,0.9C28.9,53.4,28.9,53,29.2,52.7z M29,51.3c-0.1,0-0.2,0-0.2-0.1
		c-0.1,0.3,0.2,0.2-0.1,0.6c0.5,0,0.7-0.4,0.9-0.7c-0.2,0.1-0.4-0.1-0.3-0.2c0.2-0.1,0.2-0.2,0.2-0.5c0.2,0,0.2,0,0.4,0
		c0-0.2,0.4-0.4,0.1-0.4c-0.2,0.5-0.7,0.2-1,0.7C28.8,51,29,51,29,51.3z M29.7,49.9c0-0.1,0-0.1,0-0.2c-0.1,0-0.1,0-0.2,0
		c0,0.1,0,0.1,0,0.2C29.5,49.9,29.5,49.9,29.7,49.9z M29.7,47.4c0.1-0.1,0.2-0.3,0.3-0.2C29.9,47.3,29.8,47.4,29.7,47.4z M29.7,53.8
		c0,0.1,0,0.2,0,0.2C29.8,54.2,29.9,53.7,29.7,53.8z M30,52.4c0.2,0.2,0.3-0.2,0.2-0.2c0,0.1,0,0.1-0.1,0.1C30,52.4,30,52.4,30,52.4
		z M30.4,53.2c-0.1-0.4,0.3-0.5,0.4-0.8c-0.3,0.1-0.7,0.7-0.7,0.8C30.2,53.2,30.3,53.2,30.4,53.2z M32.1,47.5
		c-0.1,0.4-0.2,0.7-0.5,0.8c0-0.1,0-0.2-0.2-0.2c-0.5,0.5-1.2,1.4-1.2,1.9c0.5-0.5,1-0.9,1.6-1.4c-0.1,0.2,0.2,0.1,0.1,0.3
		c-0.1,0-0.2,0-0.2,0.2c-0.1,0.1,0,0.1,0,0.2c0.3,0,0.5-0.2,0.5-0.7c-0.2,0-0.2-0.1-0.2-0.2c0.2-0.1,0.3-0.1,0.3-0.4
		c0.2,0,0.2,0.2,0.4-0.1c-0.2-0.3,0.4-0.6,0.7-1.2c0.2,0.1,0.2-0.2,0.4-0.2c0-0.4,0.7-0.7,0.2-0.7c-0.2,0.2-0.3,0.7-0.7,0.5
		C33,46.9,32.5,47.1,32.1,47.5z M30.6,46.5c0.2,0,0.1,0.2,0,0.2h-0.1C30.5,46.6,30.6,46.6,30.6,46.5z M30.6,53.2
		c0.1,0,0.2,0,0.2-0.1C30.7,53.1,30.6,53.1,30.6,53.2z M33.8,48.2c0.1,0.3-0.4,0.1-0.3,0.4c0.2,0.1,0.4-0.2,0.4,0
		c-0.9,0.4-1.4,1.3-2.2,2.1c0-0.2,0.3-0.4,0-0.5c-0.5,0.7-0.1,1.2-0.8,1.7c-0.1,0.2,0,0.3,0.2,0.4c0.6-0.7,1.1-1.3,1.7-1.9
		c0.4-1.1,1.6-1.3,1.9-2.5c-0.3,0-0.5,0.4-0.7,0.6C33.9,48.5,33.9,48.2,33.8,48.2z M31,51.1c-0.1,0.2-0.2,0.4,0.1,0.4
		C31.2,51.4,31.3,51,31,51.1z M32.1,12.9c-0.2,0-0.2,0.1-0.3,0.2C31.9,13.1,32.1,13,32.1,12.9z M32.1,45.2C32,45.2,32,45.2,32,45.3
		c-0.1,0-0.1,0-0.2,0c0-0.1,0-0.1,0.1-0.2C32,45.2,32,45.2,32.1,45.2z M32.3,50.6c-0.1,0-0.2,0-0.2,0c0-0.1,0.2-0.1,0.2-0.2
		C32.3,50.4,32.3,50.6,32.3,50.6z M32.2,46.7c0.1-0.1,0.3-0.1,0.3-0.3c0.7-0.2,1.1-0.7,1.2-1.4c0.2-0.1,0.3-0.1,0.5-0.1
		c0-0.4,0.2-0.7,0.5-0.5c0.2-0.2,0.3-0.6,0.6-0.7c0.1,0.1,0.2,0.1,0.2,0.1c0.7-0.3,0.9-1.7,1.6-1.6c1-0.8,1.7-1.7,2.6-2.5
		c-0.2-0.2,0.3-0.6,0-0.6c-0.2,0.2-0.4,0.6-0.9,0.7c-1.4,1.9-3.3,3.1-5,4.9c-0.1,0-0.2,0-0.2,0c-0.2,0.4-0.6,0.8-1.1,0.9
		C32.7,46.2,31.9,46.2,32.2,46.7C32,46.8,32.1,46.8,32.2,46.7z M32.5,46.3L32.5,46.3C32.5,46.4,32.5,46.3,32.5,46.3z M33.8,49.4
		c-0.1,0.4-0.3,1.1-0.9,1.6c0.7,0.3,0.7-1.2,1.4-1.3c-0.1-0.3,0.6-0.5,0.2-0.7c-0.2,0.2-0.5,0.3-0.3,0.6
		C34.1,49.5,33.9,49.4,33.8,49.4z M33.5,12.5c-0.1,0-0.2,0-0.3,0c0,0.1,0,0.2-0.2,0.2C33.3,12.7,33.5,12.6,33.5,12.5z M34.3,47
		c-0.1,0.1-0.2,0.2-0.4,0.2c0.2-0.2,0.2-0.2,0.1-0.4c-0.2,0.2-0.2,0.5-0.2,0.7c-0.2,0.1-0.5,0.3-0.6,0.6c0.4-0.2,0.7-0.5,0.9-0.8
		c0.2,0,0.2,0.1,0.4,0.2c0.2-0.2,0.4-0.2,0.4-0.6c-0.2-0.1-0.2,0.3-0.4,0.2c0.2-0.3,0.5-0.3,0.5-0.7c-0.3,0.1,0-0.3-0.3-0.2
		c-0.2,0.2-0.3,0.3-0.4,0.5C34.4,46.6,34.3,46.8,34.3,47z M33.2,48.2c0,0.2,0,0.3,0.2,0.2C33.4,48.3,33.3,48.3,33.2,48.2z
		 M34.1,47.8c0,0.1,0,0.2-0.1,0.2C34.2,48.3,34.4,47.8,34.1,47.8z M34.4,12.4c-0.1,0.2,0.1,0.4,0.2,0.2
		C34.6,12.5,34.6,12.4,34.4,12.4z M35,45.3c0.1-0.1,0.1-0.1,0.1-0.2c-0.1,0-0.1,0-0.2,0c0,0.1,0,0.1-0.1,0.2
		C34.9,45.3,34.9,45.3,35,45.3z M35.1,45.5c0.1,0,0.2,0,0.2-0.1C35.2,45.4,35.1,45.4,35.1,45.5z M35.7,44.1c0,0.2-0.5,0.4-0.3,0.6
		C35.6,44.4,36.2,44.2,35.7,44.1z M35.9,47.7c-0.1,0-0.1-0.1-0.2-0.1c0-0.1,0-0.1,0-0.2C35.9,47.5,35.9,47.6,35.9,47.7z M36.9,12.5
		c-0.3,0.1-0.4,0-0.6,0.1C36.2,13,36.9,12.9,36.9,12.5z M36.8,46.3c-0.2,0,0.1-0.3,0.2-0.2C37.1,46.2,36.8,46.2,36.8,46.3z
		 M37.2,41.9c0,0.1-0.1,0.1-0.2,0.1C37.1,41.9,37.1,41.9,37.2,41.9z M37.6,44.5c-0.2,0.1-0.2,0.3-0.4,0.4c0-0.2,0.2-0.2,0.1-0.4
		C37.3,44.5,37.4,44.5,37.6,44.5z M37.8,12.5c-0.2,0.1-0.2-0.2-0.3-0.2C37.4,12.2,37.8,12.4,37.8,12.5z M37.7,46.4
		c0,0.1,0,0.1,0,0.2c-0.1,0-0.1,0-0.2,0c0-0.1,0-0.1,0-0.2C37.6,46.4,37.6,46.4,37.7,46.4z M37.7,44.6c0-0.1,0-0.1,0.1-0.2
		c0.1,0,0.1,0,0.1-0.1C38,44.3,37.9,44.8,37.7,44.6z M37.9,13.6c0.1-0.1,0.1-0.1,0.1-0.2c-0.1,0-0.1,0-0.2,0c0,0.1,0,0.1-0.1,0.2
		C37.8,13.6,37.8,13.6,37.9,13.6z M38.1,15.5C38.3,15.4,38.2,15.4,38.1,15.5C37.9,15.5,38,15.5,38.1,15.5z M38.5,41.5
		c-0.1,0.2-0.2,0.2-0.3,0.4C38.5,42,38.5,41.7,38.5,41.5z M38.3,43.4c0.2-0.2,0.3,0.3,0.1,0.5C38,44.1,38.6,43.4,38.3,43.4z
		 M38.8,13.2c0,0.2,0.1,0.2,0.2,0.3c-0.2,0.1-0.4,0.4-0.6,0.2C38.8,13.4,38.5,13.2,38.8,13.2z M38.5,43.9
		C38.5,43.9,38.5,43.9,38.5,43.9C38.5,43.9,38.5,43.9,38.5,43.9z M38.8,43.4c-0.4,0-0.1-0.7,0.2-0.4C39,43.2,38.8,43.2,38.8,43.4z
		 M39,13.8c0,0.2,0.1,0.2,0.2,0.2C39.2,13.8,39.1,13.8,39,13.8z M39.2,14.2c0,0.1,0,0.2-0.1,0.3C39.5,14.5,39.4,14.3,39.2,14.2z
		 M39.6,20.1c-0.1,0.2-0.4,0.5-0.2,0.5C39.4,20.3,39.8,20.1,39.6,20.1z M39.6,16.3c-0.1,0.1-0.2,0.2-0.2,0.2
		C39.7,16.7,39.8,16.2,39.6,16.3z M39.4,17.3c0.1,0,0.2,0,0.2-0.1C39.6,17.2,39.5,17.2,39.4,17.3z M39.7,15C39.9,15,39.7,15,39.7,15
		C39.7,15.2,39.7,15.2,39.7,15z M40.5,41.4c0.2,0.2-0.2,0.4,0,0.7c-0.4-0.3-0.5,0.7-0.7,0.3C39.9,42,40.2,41.8,40.5,41.4z M40,15.4
		c0.1,0,0.2,0,0.2-0.1C40.1,15.3,40,15.3,40,15.4z M40.1,39c0,0.1,0,0.2,0,0.2C40.3,39.4,40.4,38.9,40.1,39z M41,41.3
		c-0.2,0-0.2,0.1-0.3,0.1c-0.2-0.2,0.2-0.3,0.2-0.6C41.1,40.9,41,41.2,41,41.3z M41.5,37.9c0-0.1,0-0.1,0.1-0.2c-0.1,0-0.1,0-0.2,0
		c-0.1,0.1-0.1,0.1-0.1,0.2C41.3,37.9,41.3,37.9,41.5,37.9z M42.9,37.7c0.1,0,0.2,0,0.2-0.1C42.9,37.6,42.9,37.6,42.9,37.7z
		 M43,38.2c0-0.1,0.1-0.1,0.2-0.2C43.1,38.1,43.1,38.2,43,38.2z"/>
	<path d="M65.8,51c0.1,0.2,0.6-0.2,0.6,0.1c-0.9,2.5-2.3,3.6-3.2,5.5c0.2,0.1,0.5-0.1,0.6-0.2c0.2,0.5-0.5,0.6-0.7,0.8
		c0.2,0.2,0.2-0.2,0.4-0.1c-0.4,0.4-0.7,1.4-1.4,1.7c-0.7,1.7-2.1,3.5-2.7,5c0,0.2-0.2,0.1-0.2,0c-0.4,0.3,0.2,0.3-0.1,0.6
		c-0.3,0.1,0.1-0.2-0.2-0.2c-0.4,0.2,0.2,0.3-0.1,0.6c0.5-0.1,0.5-0.7,0.9-1.1c0.1,0.5-0.3,1.3-1,1.3c-0.4,1.4-1.6,2.7-1.4,3.7
		c0.3-0.3,0.2-1.1,0.7-1.2c-0.2,0.5-0.3,1.1-0.7,1.8c-1.7,1.6-2.2,4.7-3.7,6.4c-0.2,0.8-0.3,0.9-0.7,1.6c0,0.6-0.2,1.1-0.7,1.3
		c-0.1,0.4-0.1,1.1-0.4,1.2c0.1-0.2,0-0.2-0.1-0.2c-0.1,0.2,0,0.2,0.1,0.2c-1,2.1-1.6,5.3-3.2,7.6c0.2,0.6-0.6,1.4-0.9,2.1
		c-0.1-0.7,0.9-1.7,0.7-2.6c0.2-0.3,0.3-0.7,0.7-0.9c0-0.2-0.1-0.2-0.1-0.3c0.2-0.2,0.3-0.4,0.2-0.7c-0.2,0.3-0.4,0.6-0.5,1
		c-0.2,0.2-0.4,0.2-0.7,0.3c-0.3,2.2-1.7,3.8-2.2,5.8c-0.2,0.1-0.4,0.2-0.3,0.5c-0.2,0-0.1-0.3-0.2-0.3c-0.4,0.2-0.7,0.5-1.1,1
		c-0.8,0.2-1.1,0.9-1.7,0.5c-0.2,0.2-0.4,0.4-0.5,0.7c-0.1-0.1-0.2-0.1-0.5-0.1c-0.4,0.5-1.1,0.9-1.7,0.7c0.1-0.4,0.1-0.6,0-1.1
		c0.2,0,0.2,0.2,0.3,0c0.6-1.1-0.3-1.8,0.4-2.5c0,0.2-0.2,0.6,0,0.6c0.1-0.4,0.6-1.1,0.2-1.4c0.4-1.1,0.7-2.1,1.1-3.2
		c0.5-0.1,0.6-0.7,1-0.8c0-0.8,0.3-1.6,1-1.9c-0.6,1.1-0.5,1.9-1,3c0.5-0.1,0.2-0.7,0.7-0.8c-0.5,1-0.6,1.8-0.8,2.6
		c0.6-0.2,0.5-1.2,0.7-1.8c0.3,0.1,0.7-0.7,0.4-0.8c0.2-0.3,0.5-0.6,0.4-1c0.8-0.8,0.9-2.8,1.9-3.4c-0.1-0.2-0.2,0.1-0.3,0
		C45.7,82,46,82,46,81.8c-0.4-0.1-0.2,0.6-0.6,0.5c1-1,1.6-2.8,2.3-4c-0.6,1.4-1.3,3.4-1.4,4.8c-0.1,0-0.2-0.1-0.2,0
		c-0.1,0.2,0.1,0.2,0,0.5c-0.3,0.2-0.7,1.1-0.4,1.6c0.6-1.3,1.1-3.6,2.2-4.5c-0.2-0.2,0.2-0.4,0-0.6c0-0.2,0.2,0,0.3-0.2
		c0.4-1.1,1-2.1,1.3-3.1c0.7-0.7,1.8-2.1,1.7-3.2c-0.4,0.7-0.6,1.4-1.1,1.9c-0.2-0.1,0.2-0.7,0.2-1.1c0.1,0,0.1,0.1,0.2,0.1
		c0.3-1.1,0.9-1.9,1.3-3c0.8-0.4,1.6-1.4,1.7-2.3c-0.4,0.4-0.4,1.1-0.9,1.3c0.2-0.7,1.1-1.7,1.3-2.8c0.6-0.2,0.7-1,1-1.6
		c0.2-0.4,0.5-0.3,0.3-0.7c0.1,0,0.2-0.1,0.3-0.2c0-1.1,1.2-2.1,1.4-3c0-0.2,0.3-0.1,0.6-0.2c0.4-0.9,0.1-1.6,0.8-2.1
		c-0.7,0.2-1.1,0.9-1.4,1.6c-0.2-0.2-0.2-0.2-0.4-0.1c0.2-0.4,0.5-0.7,0.9-0.8c-0.4-0.3,0.6-0.7,0.4-1.1c0.7,0.2,1-0.6,1.3-1.1
		c0-0.2-0.1,0.4-0.3,0.2c0-0.2,0.1-0.3,0.2-0.5c-0.5,0.2-0.5,0.8-0.9,0.9c-0.4-0.2,0.6-0.3,0.5-0.8c0.6-0.2,1-0.7,1.4-1.4
		c0.1-0.2,0.4,0.2,0.4-0.2c-0.3,0.2-0.1-0.5,0.1-1c-0.7,0.4-1.4,1.1-1.9,1.8c-0.2-0.2,0.4-0.7,0.5-1.1c0.2,0,0.4-0.1,0.5-0.3
		c-0.2-0.2-0.2,0.2-0.3,0.1c0.2-0.5,0.5-0.8,0.7-1.4c0.7-0.2,0.9-0.7,1.1-1.4c-0.3-0.1-0.2,0.3-0.4,0.4c-0.1-0.3,0.3-0.7,0.4-1.1
		c0.7-0.1,0.7-0.9,1.3-1.1c0-1.2,1.3-2.1,2.1-3.5c-0.4,0.4,0.3,0.2-0.1,0.7c0.3,0.1,0.2-0.2,0.3-0.4c0.2,0.7-0.9,0.9-1,1.6
		c0.2,0,0.2-0.1,0.3-0.3c0.2-0.1,0,0.2,0.3,0.2c0.8-0.8,0.5-1.9,1.6-2.5c-0.3-0.5,0.8-1.3,0.5-1.6c0.3-0.2,0.6-0.4,0.7-0.7
		c-0.4-0.1-0.2,0.3-0.5,0.3c-0.3,0,0.1-0.1-0.1-0.2c-0.4,0.3-0.4,0.8-0.5,1.3c-0.3,0.2-0.4,0.5-0.7,0.6c-0.2,0.2,0.2,0.2,0.1,0.4
		c-0.4,0.2-0.6,0.9-1,0.7c0.2-0.3,0.8-0.7,0.7-1.1c0.2-0.2,0.4-0.4,0.7-0.6c-0.1-0.2,0.1-0.3-0.1-0.4c-1.1,0.9-1.7,2.1-2.6,3.1
		c0.6-0.9,0.6-1.8,1.6-2.5c-0.2-0.2-0.6,0.3-0.9,0.2c1.2-0.5,2.2-2.3,2.3-3.5c-0.2,0.1-0.3,0.4-0.6,0.2c0-0.2,0.2-0.1,0.3-0.2
		c-0.4-0.2-1,0.5-0.9,0.8c-0.2-0.1-0.3,0.1-0.5,0.1c0.2-0.1,0.2-0.4,0.4-0.4c-0.2-0.1-0.4-0.1-0.3-0.3c-0.5,0.4-0.7,1.1-1,1.6
		c0.1,0.2,0.5,0,0.6,0.3c-0.7,0.2-0.8,0.7-1.4,1.1c0.1,0.6-0.5,0.7-0.7,1.2c-0.1,0.2-0.2,0.6-0.5,0.7c-0.2,0.2,0.2-0.1,0.3,0
		c-0.3,0.2-0.5,0.4-0.8,0.4c0.6-1.7,1.6-2.5,2.1-4.2c0.3-0.1,0.7-0.7,0.7-1c-0.3-0.1-0.2,0.2-0.6,0.2c-0.2,0.1-0.2,0.6-0.5,0.6
		c0-0.2,0.2-0.4,0.3-0.6c-0.6,0.2-1.2,0.2-1.8,0c-0.7,0.2-1.3,0.5-2.1,0.3c-0.2-0.1-0.2,0.2-0.4,0.2c-1.4-0.3-3.3,0.3-4.6,0.3
		c-0.4,0.2-0.7,0.4-1.3,0.3c-1.1,1.4-1.1,3.1-2.5,4c-0.2,0.9-0.7,1.6-1.4,1.9c0.2,0.7-0.9,1.4-1.4,1.7c-0.4,1.1-1.3,2.2-1.9,3.4
		c-0.4,0.1-0.6,0.4-0.7,0.7c-0.3-0.4-0.6,0.3-1.1,0.3c-0.2,0.9-1.1,1.6-1.6,2.3c-0.2,0.1-0.2-0.1-0.4-0.1c-1.1,1.1-1.6,2.3-2.8,3.2
		c-0.4-2.2,1.6-4.8,2.2-6.7c0.1,0,0.2,0,0,0.2c0.8-1.6,1.6-2.8,1.9-4.6c0.8-1,1.4-2.5,1.7-3.4c0.3-0.5,0.9-1.1,0.9-1.7
		c-1.1,0.2-2.1,0.6-3,1c-0.7,0-0.7-0.7-0.8-1.1c-0.1-0.4-0.3-0.8-0.4-1.4c0-0.8,0.1-1.4-0.1-2.1c0-0.2,0.3-0.2,0.2-0.4
		c-0.5-0.2-0.2-1-0.3-1.4c0.7-0.7,0.5-2.1,1.4-2.8c0.7,0.4,1,0.2,1.8,0.1c0.3,0,0,0.2-0.1,0.2c1.4,0.2,3.2-0.3,4.9-0.5
		c0,0.6,1.1,0.6,1.3-0.6c0-0.2,0.2-0.2,0.3-0.2c0.3-1.4,1.4-2.2,1.6-3.3c0.5-0.2,0.7-0.7,0.8-1.3c0.2,0,0.2-0.1,0.2-0.2
		c2.5-4.1,4.6-8.1,7-12.1c0.1-0.1,0.3-0.1,0.3-0.2c0.7-0.9,0.7-2.1,1.6-2.7c1.9,0.4,3.7,0.5,4.6,1.7c-0.2,0.7,0.1,0.8,0.2,1.1
		c-0.7,2.6-2.1,4.2-3.2,6c-0.7,1.2-1.9,3.4-3,4.8c-0.4,1.1-1.1,1.8-1.4,2.5c-0.2,0-0.2,0-0.4,0.1c-0.6,1.6-1.1,3-1.9,4.1
		c-0.1,0.2,0.2,0.1,0.1,0.3c0.7,0,1.2-0.1,1.8-0.2c-0.7,0.6-1.9-0.1-2.5,0.7c2.1-0.1,3.9-0.6,6.4-0.8c0-0.3-0.8-0.1-1.1-0.1
		c0.9-0.4,1.4-0.2,2.3-0.3c-0.1,0.2-0.5,0.2-0.7,0.2c0.6,0.4,1.4,0.1,2.3-0.1c0.2-0.2-0.1-0.2,0.1-0.4c0.1,0.4,0.5,0.7,1.1,0.4
		c-0.2-0.5,0.2-0.5,0.7-0.9c0-0.2,0.3-0.6,0-0.5c0.4-0.6,0.9-0.5,0.7-1.3c0.3-0.6,1.7-1.2,0.9-1.6c0.4-0.7,0.3-1.1,0.7-1.7
		c0.1-0.1,0.2-0.1,0.4-0.1c0.4-0.7,0.8-1.6,1.1-2.2c0.1-0.1-0.1-0.1-0.2-0.1c0.2-0.2,0.8-0.7,0.7-1.1c0.3-0.5,0.9-1.1,1.2-1.4
		c0.2-0.3-0.3-0.1-0.2-0.4c0.5-0.2,0.3-0.7,0.9-0.9c0.2-0.2-0.2-0.1-0.1-0.3c0.9-0.2,0.6-1.7,1.6-2.1c0-0.2-0.1-0.2-0.1-0.2
		c1.9-3,3.2-5,5.1-8.3c0.2-0.2,0.2-0.4,0.2-0.7c0.7-1.2,1.4-2.8,1.9-3.9c-0.2-0.1-0.3-0.2-0.4-0.2c0.2-0.4,0.2-0.7,0.8-0.9
		c0.2-1.2,1.2-1.9,2.3-1.9c-0.2,0.2-0.2,0.3-0.1,0.4c0.2,0,0-0.3,0.3-0.4c0.1,0,0,0.2,0.2,0c0.2,0.2-0.2,0.2-0.2,0.5
		c0.1,0.2,0.5,0,0.7-0.2c1.1,0.5,2.3,0.7,3.1,1.4c0.2,0,0.5,0,0.7,0C91,9,92.4,9,91.9,10.5c-1.1,1.4-1.8,3.2-2.7,4.6
		c-0.5,0.8-0.9,1.4-1.4,2.3c-0.3,0.6-0.8,1.1-1.1,1.6c-0.4,1-0.7,1.3-1.2,2.1c-0.7,1.1-1.1,2.2-1.9,3.2c-0.2,0.2-0.3,0.2-0.5,0.3
		c-0.7,1.1-1.1,2.1-1.8,3c-0.2,0.3-0.6,0.5-0.7,0.7C80,29.3,79.7,30,79,30.7c-0.2,0.2-0.1,0.3-0.1,0.5c-1.3,1.4-2.3,3.2-3.3,4.9
		c0,0.2,0.2,0.1,0.3,0.2c-0.1,0.2-0.6,0-0.7,0.3c1.4-0.1,3.4,0.3,4.9-0.3c-0.3-0.2-1.1,0.2-1.4-0.2c0.6,0,1.8-0.2,2.8-0.2
		c0,0.2-0.1,0.2-0.1,0.3c0.7-0.2,1.3-0.2,1.8-0.8c0.2,0.3,1-0.2,1.4,0c-0.5,0.2-0.8,0.2-1.6,0.2c0.2,0.7,1.4,0.2,2.2,0.2
		c0.3,0,0.3-0.2,0.6-0.3c1-0.2,2.5,0.3,3.5-0.1c1.3,0.1,3,0,4.2,0.3c-0.7,0.6-1.9,0.7-2.8,1.1c-0.1,0-0.1,0.2-0.2,0.3
		c-0.4,0-0.8-0.1-1.1,0.4c-0.6,0.1-1.4,0.2-1.9,0.1c-0.2,0.2-0.2,0.5-0.3,0.6c-0.9-0.2-1.8,0.2-2.5,0.7c-0.7-0.2-1.6,0.5-2.5,0.6
		c-0.2,1,0.8,0.4,1.4,0.2c-0.5,0.7-1.1,0.4-1.4,0.8c-0.2,0-0.3,0-0.3-0.2c-0.4,0.2-1.4,0.8-1.6,0.3c-0.5,0.5-1.4,0-2.1,0.5
		c-0.6-0.1-0.9,0.1-1.4,0.1c-1-0.6-2.3,0.8-3.2,0.2c-0.1,0-0.1,0.2-0.2,0.2c-0.4-0.2-0.8,0.2-1.3,0.1c-0.2,0.1-0.2,0.4-0.4,0.6
		c1,0,1.8-0.2,2.8-0.5c-0.4,0.5-1.1,0.5-1.6,0.9c-0.7-0.1-1,0-1.6,0.2c-0.9,1.4-1.6,2.5-2.3,4.1c-0.4,0.1-0.7,0.7-0.6,1
		c-0.2,0.2-0.1,0.1-0.3,0.1c-0.1,0.7-0.7,1-0.7,1.4c0.6-0.2,0.6-0.7,1-0.9c-0.3,1-1.9,1.6-2.1,2.6C66,50.7,66,50.8,65.8,51z
		 M42.4,89.6c0.2,0,0,0.3,0.2,0.2c0.2-0.2,0.1-0.3,0.2-0.6c-0.3,0.2-0.2,0-0.6-0.1c0.2,0.5-0.7,1.1-0.2,1.2
		C42.2,90.1,42.2,89.7,42.4,89.6z M42,43.4c0.1,0,0.2,0,0.2-0.1C42.2,43.4,42.1,43.4,42,43.4z M42.7,44.4c-0.1,0-0.1,0-0.2,0
		c-0.1,0.1-0.2,0.1-0.2,0.2C42.6,44.6,42.7,44.6,42.7,44.4z M42.7,92.7c-0.1,0.2-0.2,0.6-0.1,0.7C42.7,93.3,43,92.7,42.7,92.7z
		 M43.5,92.1c-0.2,0.2-0.6,0.8-0.4,1.1C43.1,93,43.8,92.3,43.5,92.1z M43.5,91.7c0,0.1-0.1,0.2-0.1,0.2
		C43.6,92.1,43.7,91.6,43.5,91.7z M43.6,86.2c-0.2-0.2,0.5-0.4,0.2-0.6C44.1,85.3,44,86.4,43.6,86.2z M43.6,86.8
		c0-0.1,0.1-0.2,0.2-0.2C43.9,86.7,43.8,86.8,43.6,86.8z M52.1,66.3c-0.1,0-0.1-0.2-0.2-0.2c-0.2,0.6-0.3,0.7-0.5,1.1
		c0.5-0.4,0.2,0.5-0.2,0.4c0,0.5-0.2,0.7-0.6,0.9c-0.1,0.3,0.2,0.2,0.1,0.5c-0.7,0.5-0.9,2.2-1.6,3.2c-0.1,0.2,0.2,0.1,0.2,0.2
		c-0.4,0.3-0.5,1-1,1.2c-0.1,1.1-0.5,1.7-1.1,3c0.2,0,0.3-0.2,0.4-0.4c0.2,0.1-0.1,0.4,0,0.6c-1.1,0.7-1.4,2.1-1.7,3.1
		c-0.3,0.8-1,1.4-0.8,1.9c-0.7,0.6-0.4,1.7-1.4,1.8c0.1-0.2,0.2-0.6,0.4-0.7c0.1-0.2-0.2-0.2-0.4-0.2c0-0.2,0.2-0.2,0.3-0.4
		c0.2,0,0,0.3,0.2,0.3c0.3-0.3,0.2-0.7,0.7-1.2c-0.1-0.2-0.1-0.1-0.3-0.1c0.2-0.4,0.7-1.1,1-1.7c0.2-1,0.3-1.4,0.7-2.5
		c0.1,0.2,0.2,0,0.3-0.2c-0.2-0.3-0.4,0.2-0.7,0.2c0.2-0.6,0.7-2.1,1.6-2.6c0-0.1-0.1-0.1,0-0.2c-0.2-0.1-0.3,0.1-0.5,0.2
		c0.2-1,0.8-1.6,1.2-2.6c0.2,0-0.2,0.6,0.1,0.4c-0.5,0.3-0.5,1.1-0.9,1.6c-0.1,0.1,0.1,0.2,0.1,0.2c0.6-0.7,0.8-1.9,1.4-2.2
		c-0.2-0.7,0.5-1.1,0.6-1.8c1.2-1.4,0.9-2.3,2.1-3.7c-0.2-0.2,0.3-0.7,0.5-0.9C52.5,65.7,52.1,66.1,52.1,66.3z M43.8,84.3
		c-0.1-0.2-0.1-0.5,0.2-0.5C44.1,84.1,44,84.1,43.8,84.3z M44.2,84.7c-0.2-0.1,0.1-0.2,0.2-0.5C44.8,84.2,44.2,84.5,44.2,84.7z
		 M44.6,87.5c-0.3-0.1-0.5,0.7-0.2,0.7C44.5,88,44.6,87.7,44.6,87.5z M44.4,82.3c-0.2,0,0-0.2-0.1-0.4
		C44.5,81.9,44.5,82.2,44.4,82.3z M44.9,86.4c-0.2,0.3-0.2,0.6-0.5,1C44.9,87.3,45,86.7,44.9,86.4z M44.6,55.7c0,0,0-0.1,0.1-0.2
		c-0.1,0-0.1,0-0.2,0c-0.1,0.1-0.1,0.2-0.1,0.2C44.5,55.7,44.5,55.7,44.6,55.7z M44.6,92.1c0,0,0-0.1,0.1-0.2c-0.1,0-0.1,0-0.2,0
		c-0.1,0.1-0.1,0.2-0.1,0.2C44.5,92.1,44.5,92.1,44.6,92.1z M44.7,83.3c0.1-0.2,0.2-0.2,0.3-0.2C45,83.2,44.9,83.3,44.7,83.3z
		 M45.4,85c-0.2,0.4-0.3,0.7-0.2,1C45.5,86,45.7,85,45.4,85z M45.7,90.7c-0.1,0,0-0.1-0.2-0.1c-0.2,0.5-0.3,1-0.2,1.2
		C45.9,91.6,45.2,91.2,45.7,90.7z M45.5,42.2c0.1,0,0.1,0.2,0.2,0.1C46,42,45.5,42,45.5,42.2z M45.9,77.9c-0.3,0.2,0.1-0.2-0.1-0.2
		C45.9,77.4,45.9,77.7,45.9,77.9z M46.3,84.5c-0.2,0-0.3,0.2-0.3,0.4C46.3,85,46.1,84.7,46.3,84.5z M47,83c-0.1,0-0.2,0-0.3,0
		c-0.2,0.3-0.4,1-0.3,1.3C46.6,83.8,46.7,83.4,47,83z M47.1,75.4c0.1,0,0.1,0,0.2,0c0,0,0-0.1,0.1-0.1c0,0,0-0.1,0-0.2
		c-0.1,0-0.1,0-0.2,0c0,0.1,0,0.1-0.1,0.1C47.1,75.3,47.1,75.4,47.1,75.4z M47.9,82.1c-0.1,0-0.1-0.1-0.2-0.1c0,0.3-0.2,0.2-0.2,0.4
		C47.6,82.5,47.8,82.3,47.9,82.1z M47.6,80.8c-0.1,0.2-0.2,0.2-0.2,0.3C47.7,81.1,47.9,80.8,47.6,80.8z M49.9,38
		c-0.4-0.1-0.4,0.4-0.8,0.2c0-0.2,0.3-0.3,0-0.3c-0.2,0.3-1.2,0.2-1.6,0.7C48.2,38.4,49.4,38.8,49.9,38z M48,83.8
		c0,0.2,0,0.3,0.2,0.3C48.1,83.9,48.3,83.7,48,83.8z M48.8,82.8c-0.1,0-0.2-0.1-0.3-0.1c0.1,0.4-0.6,0.9-0.1,0.9
		C48.4,83.2,48.7,83.1,48.8,82.8z M48.6,85.2c-0.2,0.2-0.6,0.4-0.3,0.7C48.6,85.9,48.9,85.3,48.6,85.2z M48.9,38.7
		c-0.2,0-0.2,0-0.4,0c-0.1,0.1-0.1,0.2-0.1,0.2C48.6,38.8,48.9,39,48.9,38.7z M48.4,71.7c0.1-0.3,0.2-0.7,0.4-0.9
		C48.9,71.1,48.8,71.6,48.4,71.7z M48.6,78.6c-0.2-0.1,0-0.2,0-0.2C48.8,78.5,48.6,78.5,48.6,78.6z M49.2,78.5
		c-0.2,0.5-0.6,1.1-0.5,1.4C48.9,79.6,49.2,79,49.2,78.5z M48.7,73.7c0-0.2,0.2-0.2,0.2-0.4C49,73.2,48.9,73.8,48.7,73.7z
		 M48.8,77.8c0-0.1,0.1-0.2,0.1-0.2C49.1,77.5,48.9,78,48.8,77.8z M49.1,81.8c-0.2,0-0.3,0.2-0.3,0.3C49,82.2,48.9,81.9,49.1,81.8z
		 M49.4,70c0,0.1-0.1,0.1-0.2,0.1C49.2,70,49.3,70,49.4,70z M49.3,76C49.3,76.1,49.3,76.1,49.3,76C49.2,76.1,49.2,76,49.3,76z
		 M49.4,76.7c-0.2,0,0-0.2,0-0.4C49.6,76.4,49.4,76.4,49.4,76.7z M49.4,69.7c-0.2-0.3,0.4-0.5,0.4-0.9C50,69.2,49.4,69.5,49.4,69.7z
		 M49.4,74.1c0.4-0.7,0.7-1.6,1.1-2.2C50.6,72.5,50.1,73.8,49.4,74.1z M49.8,75.8c-0.1,0-0.2-0.1-0.2-0.2c-0.1,0-0.2,0-0.2,0.1
		c-0.2-0.2,0.4-0.2,0.3-0.6C50.1,75.1,49.8,75.6,49.8,75.8z M53,75c-0.4,0.6-1,1.4-0.9,2.1c-1,2.1-1.7,3.7-2.5,6.1
		c0.2,0,0.3-0.4,0.5-0.1c0.1-1.6,1.6-3.9,2.2-5.8c0.1,0,0.2,0,0.2,0c-0.3-1.2,1.6-3.2,1.6-4.2c0.2,0,0.4-0.1,0.5-0.2
		c0-0.2-0.1-0.4-0.2-0.6c0.2-0.2,0.5-0.3,0.2-0.6c0.3-0.4,1.1-1.4,1.1-1.7c-1.1,0.4-0.6,1.2-1.6,1.7C53.8,73.2,53.1,73.7,53,75z
		 M50.1,71.1c0,0.1-0.1,0.1-0.2,0.1C49.9,71.1,50,71.1,50.1,71.1z M50.3,37.9c0,0.1-0.2,0.2-0.1,0.2C50.1,38.1,50.4,38,50.3,37.9z
		 M50.7,72.3c0.1-0.2,0.2-0.2,0.2-0.3C51.1,72,51,72.5,50.7,72.3z M51,76.5c0,0.2-0.3,0.3-0.2,0.5C51,77.1,51.4,76.4,51,76.5z
		 M54,64.9c0.1,0.2,0.2,0.3,0.2,0.4c0,0.2-0.2,0.3-0.3,0.4c0,1.1-2.1,2.7-2.1,4.2c-0.4,0.2-0.5,0.6-0.8,0.7c0.7-0.9,1.1-2.3,1.3-3.1
		c0.8-1.1,1.1-2.5,2.1-3.3C54.4,64.6,54.4,64.6,54,64.9z M51.1,71.8c-0.2,0,0.1-0.3,0-0.5C51.5,71.4,51.1,71.7,51.1,71.8z M51.3,76
		c0,0.2-0.1,0.2-0.2,0.3C51.4,76.4,51.5,76,51.3,76z M51.4,67.6c0-0.1,0.1-0.2,0.1-0.2c-0.1,0-0.2,0-0.2,0c0,0.1,0,0.2,0,0.2
		C51.3,67.4,51.3,67.6,51.4,67.6z M52.1,74.7c-0.1,0-0.2,0-0.2,0c-0.2,0.3-0.3,0.9-0.5,1.1C51.9,75.9,51.8,75.1,52.1,74.7z
		 M52.3,65.7c-0.3-0.2,0.2-0.6,0.3-1C52.9,64.8,52.3,65.3,52.3,65.7z M53.8,61.3c1.1-0.1,0.7-1.4,1.3-1.9c0.2,0.2,0.3-0.1,0.6-0.2
		c0.2,0.3-0.3,1.1-0.7,1.1c0.2,0.2-0.1,0.3-0.2,0.5c0.2,0,0.2-0.1,0.4-0.1c-0.2,0.4-0.2,0.9-0.8,1.1c0,0.6-0.7,1-1,1.6
		c-0.1,0.2,0.2,0.1,0.2,0.2c-0.2,0.3-0.4,0.7-0.7,1.1c-0.2-0.1-0.3,0.1-0.4,0.2c0.2-0.6,0.1-2.2,1.2-2.2c-0.3-0.2,0.2-0.3,0.2-0.9
		c0.1-0.1,0-0.1-0.1-0.1C53.8,61.4,53.8,61.4,53.8,61.3z M53,73c0,0,0-0.1,0-0.2c-0.1,0-0.1,0-0.2,0c0,0.1,0,0.2,0,0.2
		C52.9,73,52.9,73,53,73z M54,70.2c0.3,0,0.4-0.7,0.3-0.7c0,0.1-0.2,0.1-0.2,0.1C54,69.8,54,70.1,54,70.2z M54.2,64.9
		c0.2-0.1,0.3-0.1,0.3-0.2C54.7,64.7,54.3,64.9,54.2,64.9z M54.4,60.9C54.3,60.9,54.3,60.9,54.4,60.9c-0.1,0.1-0.1-0.1-0.1-0.2
		C54.4,60.7,54.4,60.8,54.4,60.9z M54.3,64.2c0.1-0.6,0.7-1.6,1.1-2.5h0.1C55.1,62.4,54.9,63.7,54.3,64.2z M54.9,69.3
		c-0.2,0-0.3,0.1-0.4,0.2C54.7,69.5,54.9,69.5,54.9,69.3z M55.3,58.6c-0.2-0.1,0.2-0.4,0.3-0.4C55.4,58.4,55.3,58.4,55.3,58.6z
		 M55.4,67.4C55.4,67.5,55.3,67.4,55.4,67.4C55.2,67.9,55.8,67.1,55.4,67.4z M60.2,60.4c0-0.1,0-0.2-0.2-0.2
		c-0.7,1.1-1.4,2.8-2.1,4.2c0.1-0.1,0.1-0.2-0.1-0.2c-0.8,2.3-2.3,4.4-2.7,6.1c0.3,0.1,0.3-0.2,0.5-0.3c0.1-0.2-0.2-0.2,0.1-0.6
		c0.3-0.2,0.4-0.8,0.7-1.1c0.2-1.4,1.6-2.6,2.1-4.4c1.1-1.7,2.5-3.7,3.2-5.8c-0.7,0.7-0.9,1.3-1.6,1.9
		C60.6,59.8,60.6,60.3,60.2,60.4z M55.5,59.1c0,0.1-0.1,0.1-0.2,0.1C55.4,59.1,55.4,59.1,55.5,59.1z M55.4,40.9
		c0.6-0.3,2.1,0.1,2.6-0.5c-1,0.2-1.6-0.2-2.3-0.1C55.7,40.6,55.3,40.9,55.4,40.9z M56.9,58.9c0.2,0.1-0.1,0.2,0,0.3
		c0.4-0.2,0.4-0.8,0.8-1.1c-0.1-0.2-0.4,0.1-0.5,0.2c-0.2-0.2,0.5-0.8,0.7-1.2c0.5,0.1,0.4-0.3,0.9-0.7c-0.2-0.5,0.7-1.2,0.7-1.9
		c-0.3,0.1-0.1,0.3-0.5,0.2c0.3-0.5,1-0.7,1.2-1.2c0.2,0.2-0.7,0.8-0.2,0.8c-1.3,1.9-2.1,3.6-3.1,5.5c-0.1,0-0.2-0.1-0.1-0.2
		c-0.2,0.2-0.2,0.3-0.5,0.3c0,0.6-0.6,1.2-0.9,1.6C56.1,60.5,56.2,59.8,56.9,58.9z M55.8,58.9c-0.1,0-0.2,0-0.2,0
		c0-0.1,0.2-0.1,0.2-0.2C55.9,58.7,55.8,58.9,55.8,58.9z M56.9,41.2c-0.6,0.1-0.9-0.2-1.2,0.3C56,41.7,56.7,41.5,56.9,41.2z
		 M56.7,65.3c-0.2-0.8,1.2-1.4,0.7-2.2c-0.6,1.1-1.3,1.7-1.6,2.8C56.2,65.9,56.3,65.3,56.7,65.3z M55.8,62.8c0-0.2,0.2-0.2,0.2-0.4
		c0.2,0,0.2-0.1,0.3-0.1C56.3,62.6,56.2,62.8,55.8,62.8z M56.8,60.2c-0.1,0.4-0.4,0.9-0.7,1.3c-0.2-0.2,0.7-0.9,0.3-1.2
		C56.5,60.2,56.8,60.2,56.8,60.2z M56.1,58.3c-0.2-0.2,0.2-0.5,0.6-0.5C56.6,58.1,56.3,58.1,56.1,58.3z M57.2,68.5
		c-0.1,0-0.2,0-0.2,0c0.1,0.4-0.3,0.5-0.3,0.9C57.1,69.3,57.2,68.9,57.2,68.5z M56.9,57c-0.1-0.1,0-0.2-0.1-0.4
		C57.1,56.6,57.2,56.9,56.9,57z M57.2,56.1c-0.2-0.1,0.2-0.2,0.2-0.4C57.6,55.9,57.2,56.1,57.2,56.1z M59.1,52.6
		c0.2,0.2-0.9,1.1-0.5,1.4c-0.2,0.1-0.3,0.4-0.5,0.7c-0.2,0.2-0.8,0.2-1,0.7c-0.2-0.4,0.3-0.7,0.6-1.1c0.2,0.2-0.2,0.3-0.2,0.6
		c0.7-0.6,1-1.6,1.4-2.3c0.3-0.4,0.7-0.7,0.9-1.4C60,51.5,59.4,52.4,59.1,52.6z M57.3,40.3c0,0,0-0.1,0-0.2c-0.1,0-0.1,0-0.2,0
		c0,0.1,0,0.2,0,0.2C57.2,40.3,57.2,40.3,57.3,40.3z M57.5,55.9c0-0.1,0-0.2,0-0.2C57.8,55.5,57.7,56,57.5,55.9z M57.6,55.4
		c0-0.2,0.1-0.2,0.2-0.2C57.7,55.3,57.7,55.5,57.6,55.4z M58.3,41.1c-0.2-0.1-0.4-0.1-0.5,0.1C58.1,41.2,58.1,41.4,58.3,41.1z
		 M58.1,60.9c0,0.2-0.2,0.3,0,0.2S58.1,61,58.1,60.9z M58.1,56.8c0.1-0.1,0.1-0.2,0.2-0.3C58.4,56.4,58.3,56.9,58.1,56.8z
		 M58.1,66.9c0-0.2,0.2-0.4,0.3-0.4C58.4,66.7,58.4,66.9,58.1,66.9z M58.2,39.2c0.2,0,0.3,0.1,0.3-0.1c0.1,0,0.1,0,0.2,0
		c0,0,0-0.1,0.1-0.2c-0.2,0-0.2,0.1-0.2,0.2C58.4,39,58.4,38.9,58.2,39.2z M58.6,36.9c-0.1,0-0.2,0-0.2,0c0,0,0-0.1,0-0.2
		C58.6,36.7,58.6,36.7,58.6,36.9z M58.6,60.2c0,0,0.1-0.1,0.1-0.2c-0.1,0-0.1,0-0.2,0c0,0.1-0.1,0.2-0.1,0.2
		C58.4,60.2,58.4,60.2,58.6,60.2z M58.7,65.8c0.2,0.2-0.1,0.6-0.2,0.7h-0.1C58.4,66.3,58.6,66.1,58.7,65.8z M58.6,55.9
		c-0.1-0.3,0.4-0.7,0.5-1C59.4,55,58.7,55.4,58.6,55.9z M59.8,41.1c-0.4-0.2-0.9,0.1-1.1,0.3C59,41.3,59.5,41.4,59.8,41.1z
		 M58.9,53.9c0,0.1,0,0.2,0,0.2c-0.1,0-0.1,0-0.2,0c0,0,0-0.1,0-0.2C58.9,53.9,58.9,53.9,58.9,53.9z M58.9,59.5c0.1,0,0.2,0,0.2,0
		c0-0.1,0-0.2,0-0.2c-0.1,0-0.1,0-0.2,0c0,0.1,0,0.1-0.1,0.1C58.9,59.4,58.9,59.5,58.9,59.5z M59.1,53.3c-0.2-0.2,0.5-0.5,0.6-0.9
		C60,52.5,59.4,53.2,59.1,53.3z M60.7,40.1c-0.1,0-0.2-0.1-0.2-0.2c-0.4,0.4-1.1-0.1-1.3,0.5C59.6,40.5,60.3,40.4,60.7,40.1z
		 M59.4,51c-0.1-0.1,0.2-0.2,0.2-0.2C59.8,50.8,59.5,50.9,59.4,51z M59.4,36.9c0.1-0.2,0.2-0.2,0.5-0.2
		C59.8,36.9,59.7,36.9,59.4,36.9z M59.9,52.8C59.9,52.8,59.9,52.9,59.9,52.8c-0.1,0.1-0.1-0.1,0-0.2C60.1,52.7,60,52.7,59.9,52.8z
		 M60.2,37.2c0,0.1-0.1,0.1-0.2,0.1C60,37.2,60.1,37.2,60.2,37.2z M60,52.1c0.2-0.1,0.3-0.7,0.7-0.7C60.4,51.6,60.4,52.1,60,52.1z
		 M60.2,50.3c0-0.1,0.1-0.2,0.2-0.2C60.5,50.2,60.4,50.3,60.2,50.3z M60.3,42.5c0.1,0,0.2,0,0.2-0.1C60.5,42.4,60.4,42.4,60.3,42.5z
		 M60.3,53.9c0,0,0-0.1,0-0.2c0.1,0,0.1,0,0.2-0.1C60.7,53.6,60.5,54,60.3,53.9z M60.5,54.1c-0.1,0.2-0.1,0-0.2,0
		C60.3,54,60.5,54,60.5,54.1z M60.4,37.2c0.6-0.2,1.4-0.3,1.9-0.2C61.6,37.2,60.9,37.3,60.4,37.2z M60.4,49.2
		c0.2-0.2,0.2-0.2,0.3-0.4C61.1,48.8,60.7,49.2,60.4,49.2z M60.8,49.6c-0.2,0-0.2,0-0.4,0c0.2-0.3,0.5-0.4,0.7-0.8
		C61.5,49,60.8,49.3,60.8,49.6z M60.7,52.4c0.2-0.7,0.6-1.1,0.9-1.6C61.4,51.2,61.2,52.2,60.7,52.4z M61.1,54.5
		c-0.2,0.3-0.5,0.4-0.5,0.8C61,55.4,61.1,54.7,61.1,54.5z M61.1,36.6c-0.1,0.1-0.2,0.1-0.3,0.1C60.8,36.6,61,36.6,61.1,36.6z
		 M61.4,41.1c0.6-0.1,0.9-0.5,1.3-0.9c-0.1,0-0.2-0.1-0.3-0.1c-0.2,0.5-0.9,0.4-1.4,0.6C60.7,41.3,61.6,40.6,61.4,41.1z M63,51.7
		c-0.7,0.6-0.7,1.1-1.2,2.1c-0.1,0-0.2,0-0.2-0.1c0.1,0.2-0.2,0.2-0.2,0.5c0.2,0,0.3,0,0.3,0.1c-0.2,0.1-0.3,0.7-0.1,0.7
		c0.9-1.3,1.6-2.5,2.3-4.1c0-0.1-0.1-0.2-0.2-0.2c0.3-0.2,0.3-0.6,0.4-0.9c-0.5,0.7-1.1,1.3-1.4,1.9C62.8,51.6,63,51.6,63,51.7z
		 M62,53.2c-0.1,0-0.2,0-0.2,0c-0.1,0.1-0.1,0.2-0.1,0.2C61.9,53.6,61.8,53.3,62,53.2z M61.8,51.5c-0.1-0.1,0.1-0.5,0.2-0.4
		C62.1,51.3,61.8,51.2,61.8,51.5z M62.3,47c-0.2-0.2-0.3,0-0.4,0.2C62.1,47.2,62.2,47.2,62.3,47z M62.3,42.3c0-0.1,0.1-0.2,0.1-0.2
		c-0.2,0-0.3,0.2-0.4,0.2C62.1,42.3,62.3,42.3,62.3,42.3z M62.1,48.8c0-0.2,0.2-0.2,0.2-0.3C62.5,48.5,62.2,48.9,62.1,48.8z
		 M62.2,50.1c0,0.2-0.1,0-0.2,0C62.1,50.1,62.2,50.1,62.2,50.1z M62.1,50.9c0,0,0.1-0.1,0.1-0.2c0.1,0,0.1,0,0.1-0.1
		C62.3,50.6,62.1,51,62.1,50.9z M62.3,36.5c-0.1,0-0.2,0-0.2,0c0,0,0-0.1,0-0.2C62.3,36.3,62.3,36.3,62.3,36.5z M63,47.2
		c-0.3-0.1-0.7,0.7-0.7,0.2c0.2,0,0.2-0.1,0.4-0.3c0.1,0,0,0.1,0.1,0.1c0.2,0,0.1-0.3,0.3-0.4h0.1C63,46.9,63,47.1,63,47.2z
		 M63.1,40.6c-0.1,0.3-0.5,0.2-0.6,0.5c0.2,0.2,0.8-0.3,0.8-0.5c0.3,0.2,1.4,0.2,1.7-0.2c-0.7-0.1-1.6-0.3-2.6,0.2
		C62.5,40.9,62.8,40.6,63.1,40.6z M62.5,44.7c0-0.2,0.2-0.2,0.3-0.4C63,44.3,62.8,44.8,62.5,44.7z M62.5,50.2
		c0.2-0.2,0.2-0.9,0.6-1.1C63,49.6,63,49.7,62.5,50.2z M63.1,56.3c-0.1,0.2-0.2,0.2-0.2,0.4C63.2,56.9,63.3,56.3,63.1,56.3z
		 M63.2,48.9C63.2,49,63.1,49,63,49C63.1,48.9,63.2,48.9,63.2,48.9z M63.2,46.6C63.2,46.7,63.2,46.7,63.2,46.6
		C63.1,46.7,63.1,46.6,63.2,46.6z M63.1,51.5c0.1,0,0.2-0.1,0.2-0.2C63.2,51.3,63.2,51.4,63.1,51.5z M63.5,46.2
		c0,0.1-0.1,0.1-0.2,0.1C63.3,46.2,63.4,46.2,63.5,46.2z M63.4,45.9c0.1-0.1,0.2-0.2,0.3-0.2C63.7,45.8,63.6,45.9,63.4,45.9z
		 M67,38.2c-1.1,0.2-2.6,0-3.4,0.5C64.8,38.3,66,38.7,67,38.2z M64.3,52.7c-0.5,0.1-0.8,0.8-0.7,1.1C64.1,53.5,64.1,53.1,64.3,52.7z
		 M64.1,55.7c0,0.1,0,0.2,0,0.2c-0.1,0-0.1,0-0.2,0c0,0,0-0.1,0-0.2C64.1,55.7,64.1,55.7,64.1,55.7z M64.3,40c0.7,0,0.7,0,1.4,0
		c0.2-0.3,0.4-0.3,0.7-0.7c-0.7-0.2-1.6,0.2-2.1,0.4C64.2,39.9,64.3,39.9,64.3,40z M64.9,52c0.2-0.5,0.5-0.7,0.6-1
		c-0.1,0-0.2,0-0.2,0c-0.4,0.5-0.5,0.9-0.9,1.1C64.5,52.4,64.6,51.9,64.9,52z M64.9,45.1c-0.2,0,0.1-0.3,0.2-0.2
		C65.1,44.9,64.9,45,64.9,45.1z M65.5,45.3c-0.2,0.3-0.7,0.7-0.6,1C65.1,46,65.6,45.6,65.5,45.3z M66,36.6c-0.2,0.4-1,0.3-0.9,0
		C65.3,36.8,65.5,36.6,66,36.6z M65.3,51.9c0.1,0.2-0.2,0.6,0,0.6C65.3,52.2,65.7,51.9,65.3,51.9z M65.5,36.3
		c-0.2-0.1,0.2-0.3,0.3-0.2C65.7,36.2,65.5,36.1,65.5,36.3z M66.9,43.6c-0.7,0.1-0.8,0.7-1.2,1.1C66.2,44.4,66.5,43.9,66.9,43.6z
		 M66.4,50.7c0.1-0.2,0.2-0.3,0.4-0.5c0.2,0.2-0.6,1-0.6,0.5C66.2,50.7,66.2,50.7,66.4,50.7z M66.4,43.2
		C66.4,43.2,66.4,43.2,66.4,43.2c0.2,0.1,0.2,0,0.3-0.2c0.1,0,0-0.1,0,0C66.6,43,66.5,43.1,66.4,43.2z M67.1,44.1
		c-0.2,0-0.2,0.2-0.3,0.3C67,44.3,67.1,44.3,67.1,44.1z M67.1,49.2c0-0.1-0.1-0.2-0.2-0.2c0.1,0.2-0.2,0.4,0,0.5
		C66.9,49.3,67.2,49.4,67.1,49.2z M67.3,41.4c-0.2,0.1-0.5-0.1-0.5,0.1c0,0.1,0.1,0.1,0,0.2C67.1,41.8,67.2,41.6,67.3,41.4z
		 M67,36.7c0.1-0.2,0.2-0.2,0.3-0.2C67.3,36.6,67.2,36.7,67,36.7z M68.1,42.9c-0.2,0-0.2,0-0.3-0.1c-0.1,0.2-0.6,0.7-0.3,0.9
		C67.6,43.3,67.9,43.2,68.1,42.9z M67.7,41.5c-0.2,0-0.3,0.1-0.3,0.2C67.6,41.7,67.6,41.6,67.7,41.5z M68.1,39.7
		c0.1,0,0.2,0,0.2-0.1C68.2,39.5,68.1,39.5,68.1,39.7z M68.6,39.5c0.1-0.1,0.1-0.2,0.1-0.3c-0.2,0.1-0.4,0.1-0.5,0.2
		C68.4,39.4,68.4,39.5,68.6,39.5z M70.6,32.1c0,0.2-0.3,0.3-0.1,0.4C70.6,32.5,70.8,32.1,70.6,32.1z M72,30.2
		c-0.1,0-0.1-0.1-0.2-0.1c-0.2,0.2-0.2,0.5-0.2,0.6C71.6,30.5,71.9,30.5,72,30.2z M72,32.8c0.2,0.1,0.3-0.2,0.3,0
		C72.3,33,72,33.1,72,33.3c0.9-0.3,0.9-1.2,1.4-2.1c-0.1,0-0.1-0.1-0.2-0.1c-0.2,0.6-0.7,1.1-0.9,1C72.2,32.4,72,32.5,72,32.8z
		 M72,33.5c0.1,0,0.2,0,0.2-0.1C72.1,33.5,72,33.5,72,33.5z M72.2,40.9c0,0.2,0.1,0.2,0.3,0.2C72.5,41,72.5,40.9,72.2,40.9z
		 M72.9,42.1c0.1,0,0.2,0,0.2-0.1C72.9,42,72.9,42,72.9,42.1z M73.4,39c0,0.3,0.5,0.1,0.2,0.5c-0.2,0.2-0.2,0-0.5,0
		c-0.2,0.2-0.4,0.5-0.2,0.7c0.7-0.2,2.1-0.6,2.8-0.6c0,0.4-0.5,0.1-0.5,0.4c0.7,0,1.2-0.2,1.6-0.7c-0.5,0.3-0.7-0.2-1.2,0.1
		c-0.2-0.2,0.1-0.2,0.1-0.5c-0.5,0-0.8,0.1-1.2,0c-0.2,0.2-0.1,0.3-0.2,0.4C73.9,39.2,73.8,38.8,73.4,39z M74.3,42.2
		c0.5-0.7,0.8-0.2,1.6-0.2C75.5,42.2,74.8,42.2,74.3,42.2z M74.9,39.3c0-0.2,0.5-0.2,0.4,0.1C75,39.5,75,39.3,74.9,39.3z M75.9,38.7
		c-0.1,0-0.1,0-0.2,0c-0.1,0.1-0.2,0.1-0.2,0.2C75.8,38.8,75.9,38.8,75.9,38.7z M76.1,38.8c0.1,0,0.2,0,0.2-0.1
		C76.2,38.8,76.1,38.8,76.1,38.8z M76.4,41.8c0,0.1-0.1,0.1-0.2,0.1C76.2,41.8,76.3,41.8,76.4,41.8z M77.6,41.8
		c-0.2,0.2-0.7,0.3-1,0.1C76.8,41.7,77.3,41.8,77.6,41.8z M77.3,39.7c-0.2-0.1-0.3-0.1-0.6,0.2C76.9,39.9,77.2,40,77.3,39.7z
		 M77.9,39c0.1-0.1,0.1-0.2-0.1-0.2C77.8,38.8,77.8,38.9,77.9,39C77.9,38.9,77.8,39,77.9,39z M78,40.4c0.1,0,0.2,0,0.2-0.1
		C78.2,40.3,78.2,40.3,78,40.4z M78.2,39c0.8-0.2,1.8,0,2.1-0.2c-0.4-0.4-1-0.1-1.7-0.2C78.5,38.9,78.2,38.7,78.2,39z M78.7,35.6
		c-0.1,0.3-0.3,0.2-0.5,0.2c0,0,0-0.1,0.1-0.2C78.5,35.6,78.5,35.6,78.7,35.6z M79.7,35.3c0,0.1,0,0.2,0,0.2c-0.1,0-0.1,0-0.2,0
		c0,0,0-0.1,0-0.2C79.6,35.3,79.6,35.3,79.7,35.3z M79.7,39.5c0,0,0-0.1,0.1-0.2c-0.1,0-0.1,0-0.2,0c-0.1,0.1-0.1,0.2-0.1,0.2
		C79.6,39.5,79.6,39.5,79.7,39.5z M80.3,35.9c-0.3,0.4,0.7,0.3,0.7,0.1C80.8,36,80.6,35.9,80.3,35.9z M81.6,39.2
		c-0.2-0.2-0.5-0.1-0.7-0.1C80.6,39.7,81.5,39.5,81.6,39.2z M83.3,38.4c-0.2,0-0.3,0.1-0.3,0.2C83.1,38.6,83.2,38.5,83.3,38.4z
		 M85.2,37.9c-0.1-0.2-0.3,0-0.5,0.1C84.6,38.5,85.2,38.3,85.2,37.9z"/>
	<path d="M113.9,34.6c0.1,0.2,0.8,0.1,0.6,0.7c0.2,0,0.2-0.1,0.2-0.2c0.2,0.2-0.2,0.9,0.2,1.1c-0.4,0.9-1.6,0.9-2.1,1.7
		c-0.2-0.2-0.4,0-0.7,0.1c-0.2,0,0,0.1,0,0.2c-2.5,1.1-5.7,1.1-8.5,1.7c-1,1.4-1.2,3.5-2.5,5.7c-0.7,2.3-1.9,5.1-3,7.6
		c-0.2,1.1-0.6,2.1-1.2,3.2c-0.7,2.6-1.9,5.1-2.3,7.6c-0.4,0.7-0.5,1.8-0.7,2.6c-0.4,0.3-0.6,0.5-0.5,1.1C93,67.5,93.1,67.1,93,67
		c0.5-1.1,0.4-3,1.2-4.5c-0.5-0.1-0.3,0.7-0.6,1.1c-0.4-0.2,0.3-0.8,0.1-1.1c0.2-0.1,0.3-0.2,0.6-0.2c-0.1-0.4,0.3-0.9-0.1-1
		c0.5-0.3,0.2-0.8-0.2-0.4c0.1-0.2,0.1-0.5,0.4-0.3c-0.2-0.7,0.4-1.7,0.9-2.5c-0.2-0.4,0.1-1.2,0.3-1.8c0.3-1.1,1.2-2.2,1.6-3.2
		c0.2-0.4,0.1-0.8,0.4-1.2c-0.4-0.1-0.2,0.7-0.7,0.7c0.1-0.3,0.2-0.5,0.1-0.7c-0.4,0.5-0.5,0.7-0.3,1.3c-0.2-0.1-0.2-0.2-0.2-0.2
		c0.2,0.2-0.4,0.7-0.1,0.8c-0.4,0.5-0.3,1.4-0.7,1.8c-0.2-0.4,0.4-0.6,0.1-0.9c-0.4,0.3-0.3,0.8-0.5,1.4c-0.7,1.4-1.1,2.3-1.6,3.9
		c0.1,0.1,0.2-0.1,0.3-0.2c0.2,0.1-0.1,0.3,0,0.5c-1,0.7-0.4,1.9-1.2,2.8c-0.2,1.9-0.9,4.7-1.6,7c0,0.4-0.1,1.1-0.4,1.4
		c-0.2-0.1-0.3-0.2-0.2-0.3c-0.4-0.1-0.2-0.4-0.4-0.6c0.5-1.4,0.9-3.4,1.1-5c0.2-0.1,0.3-0.3,0.5-0.4c0-0.2-0.2-0.2-0.2-0.1
		c1.1-3.7,2.3-7.4,3.1-10.6c-0.4,0.3-0.2,1.2-1,1.4c0.2-0.5,0.7-1.4,1.1-1.9c-0.2-0.7,0.5-1.4,0.9-1.8c-0.1-0.3-0.3,0.1-0.5,0.1
		c0.7-1.3,0.7-3,1.7-4.2c0-1.1,0.3-1.6,0.7-2.3c0-0.2-0.2-0.1-0.1-0.2c0.5-0.5,0.5-1.6,0.6-2.1c-0.3,0.5-0.6,1.1-0.6,1.8
		c-0.3,0.2-0.5,0.8-0.6,1.4c-0.8,1.2-0.7,2.5-1.6,3.8c-0.3,1.1-0.5,2.5-1.6,3.5c0.1,0.2,0.2,0.3,0.2,0.5c-1,1-0.7,2.1-1.6,3.4
		c0,0.1,0.2,0.1,0.2,0.2c-0.7,2.2-1.6,3.9-1.9,5.8c-0.2,0-0.2,0.2-0.4,0.2c0.3,0.2-0.1,0.9,0.2,1.1c-0.4,0.8-0.3,1.6-0.8,2.6
		c-0.1,0.5,0.3,1.4-0.4,1.8c-0.1,0.6,0.1,0.9-0.2,1.4c0.1,0.2,0.4-0.2,0.4,0.1c-0.1,0.7-0.7,0.9-0.5,1.4c-0.3-0.1-0.4,0.2-0.7,0.2
		c-0.2,0.3,0,0.2-0.1,0.6c-0.4,0-0.4,0.1-0.5-0.2c-0.3,0.2-0.6,0.3-0.7,0.8h-0.1c0,0.1,0.1,0,0.1,0c0.1-0.1,0.2,0,0.2,0.1
		c-0.1,0.2-0.3,0.3-0.5,0.4c0.2-0.3-0.2-0.2-0.1-0.3c-0.7,0.4-1.7,0.3-1.9-0.3c0.2-0.2,0.2-0.2,0.3-0.2c-0.1-0.2-0.2-0.3-0.3-0.3
		c0.2-0.4,0.3-0.9,0.7-1.1c0-0.3-0.1-0.6-0.3-0.7c0.4-0.2,0.6-0.6,0.9-0.6c0-0.3,0-0.5-0.1-0.7c-0.2,0-0.3-0.1-0.3,0.1
		c-0.1-0.2,0.1-0.4-0.2-0.6c0.2-0.2,0.4-0.5,0.7-0.7c-0.1-0.3-0.2,0-0.4,0c0.2-0.7,0.7-0.6,0.7-1.2c-0.3-0.1-0.2,0.3-0.6,0.3
		c0.2-0.3,0.6-1.1,0.2-1.3c0.2-0.3,0.2-0.5,0.3-0.8c0.4-0.2,0.5-0.7,0.8-0.8c0-0.2-0.2-0.2-0.2-0.2c0.1-0.2,0.3-0.2,0.4-0.2
		c-0.1-0.2,0-0.5-0.2-0.6c0-0.2,0.2-0.1,0.3-0.2c-0.2-0.7,0.4-1.4,0.7-2.3c-0.5,0.1-0.8,0.2-1,0.6c-0.1-0.2,0.1-0.8,0.3-1.1
		c0.4,0.1-0.2,0.3,0,0.5c0.5-0.2,0.2-0.9,0.8-1c-0.1-0.2-0.4-0.1-0.4-0.2c1.3-1.6,1.6-2.3,2.1-4.2c0.2-0.2,0-0.2-0.2-0.1
		c0.3-0.3,0.6-0.7,1-0.7c0,0.1-0.1,0.2,0,0.3c0.4-0.9,0.7-2.1,1.3-2.7c0-0.9,0.7-1.4,1.3-1.9c-0.1-0.3-0.1-0.4-0.2-0.7
		c-0.4,0,0,0.3-0.2,0.6c-0.2-0.1-0.2,0.1-0.2,0.2c-0.6-0.9,0.7-1.6,0.7-2.5c0.2-0.1,0.2,0.2,0.4,0.1c-0.1-0.2-0.1-0.3-0.3-0.3
		c0.3-1.1,0.5-1.6,0.7-2.3c-0.3-0.2-0.3,0.2-0.5,0.4c-0.2-0.2,0.2-0.5-0.1-0.6c0.2-0.2,0.7-0.7,0.4-0.8c0.3-0.4,0.5-1.2,1.1-1.4
		c0.1-0.2-0.1-0.2-0.2-0.1c1-1.1,1.6-2.5,1.3-3.3c0.3,0.3,0.2-0.2,0.6-0.2c0-0.2-0.1-0.2,0-0.2c-0.3-0.2-0.2,0.3-0.6,0.3
		c0.2-0.7,0.6-1.1,0.6-1.6c-0.1,0.2-0.4,0-0.9,0.4c-0.2,0.2,0,0.2,0,0.5c0.3-0.2,0.1-0.6,0.6-0.5c-0.2,0.4-0.8,1.1-0.5,1.3
		c-0.1,0.2-0.2,0.2-0.3,0.4c0,0.1,0.1-0.1,0.2,0c0,0.1-0.2,0.2-0.3,0.2c0.1,0.1,0.2,0.5,0.3,0.3c0,0.2-0.8,0.6-0.5,0.8
		c-0.1,0.2-0.2,0.2-0.4,0.5c-0.1,0.2,0.2,1.1-0.4,1.1c0-0.2,0.2-0.3,0.2-0.5c-0.1-0.2-0.2-0.2-0.3-0.2c-0.2,0.1-0.1,0.6-0.5,0.7
		c-0.2,0.2,0.2,0.1,0.2,0.2c-0.3,0.3-0.2,0.7-0.3,1.1c-0.1,0.1-0.3,0.1-0.3,0.4c-0.3,0-0.2-0.2-0.5-0.2c0.6-1.2,0.7-1.9,1.6-3.1
		c-0.1-0.3-0.3,0.2-0.5,0.1c0.2-0.2,0.4-0.4,0.7-0.6c-0.1-0.2-0.1,0-0.2,0c0.3-1,0.7-1.6,1.1-2.5c-2.1,0.2-3.6,0.3-5.5,1.1
		c-0.9-0.4-1.9,0.8-2.5,1.9c-0.3-0.6,0.7-0.9,0.8-1.4c-0.2-0.2-0.4,0.2-0.7,0.2c-3.2,3.8-6.3,8-9.5,11.7c0,0.1,0,0.2,0,0.3
		c-0.2,0.2-0.2-0.2-0.2-0.4c-0.3,0.1,0,0.4-0.5,0.5c0,0.2-0.1,0.2,0,0.3c-0.1,0.2-0.2-0.2-0.4,0.1c-0.1,0.2,0.3,0.1,0.2,0.4
		c-0.2-0.1-0.2,0.3-0.5,0.5c-0.2-0.3-0.9,0.5-0.5,0.7c-0.5,0.2-0.6,0.9-1,0.7c-0.1,1.1-1.7,1.6-1.8,3c0.2,0,0.2-0.2,0.3-0.1
		c-0.7,0.7-1.2,1.4-2.2,1.3c0-0.7-0.2-1.2-0.6-1.6c0.2-0.5-0.1-0.4,0-0.7c0.4-0.1-0.1-0.7,0.4-1c0.1,0,0.1,0.2,0,0.2
		c0.2,0,0.2-0.2,0.4-0.2c0-0.3-0.3-0.2-0.6-0.1c0.2-0.2,0.1-0.2,0.1-0.4c0.5,0,0.5-0.8,1-0.8c0,0.1,0,0.2,0,0.2
		c-0.1-0.1-0.2,0-0.2,0.1c0.1,0,0.2-0.1,0.2-0.1c0.1,0,0.1,0,0.2,0c0-0.7,0.4-1.2,0.8-1.6c0.1-0.3-0.2-0.2-0.1-0.6
		c0.3-0.1-0.1,0.2,0.2,0.2c0.1,0,0.1-0.1,0.2-0.1c0-0.2,0-0.3-0.2-0.2c1.1-1.6,1.7-2.6,3.1-3.7c0-0.9,1.6-1.6,1.2-2.8
		c-0.7,0.6-0.9,1.2-1.6,1.9c0.1,0.1,0.2,0.2,0.1,0.5c-0.9,0.3-1.4,1.1-1.9,2.1c-0.1,0-0.2,0.1-0.3,0.1c0.1,0.3-0.7,0.7-0.7,1.1
		c-0.2,0.2,0-0.2-0.2-0.2c-0.2,0.1-0.1,0.2-0.2,0.5c-0.1-0.1,0-0.4,0.1-0.6s0.3-0.2,0.4-0.2c0.1-0.3-0.1-0.1-0.2-0.1
		c0.7-0.8,0.9-1.1,1.3-2.1c0.3-0.2,0.9-0.7,0.8-1.1c0.7-0.4,1.1-1.2,1.4-1.9c1.3-0.8,1.9-2.6,3.2-3.4c0-0.4,0.2-0.7,0.4-0.8
		c-0.9,0.1-1.7,0.4-2.3,0.7c-0.5-0.2-0.3-0.9-1-0.7c-0.1-0.4-0.1-0.7-0.4-0.8c0.2-0.2,0.3-0.2,0.2-0.4c-0.2-0.1-0.2,0.1-0.2,0.2
		c-0.5-0.6-0.3-1.6-1-1.9c0.1-0.4,0.4-0.4,0.7-0.3c0.2-0.3,0-0.3-0.2-0.2c0.3-0.2,0.2-0.2,0.2-0.4c0.1,0,0.2,0.1,0.3,0.2
		c0.2-0.2-0.1-0.2,0-0.5c1.9,0,3.7-0.5,6-0.9c-0.1,0.2-0.2,0.2-0.4,0.2c0.5,0.1,1.4-0.2,2.1-0.4c0,0.2-0.3,0.1-0.3,0.4
		c0.2,0,0.2-0.2,0.4-0.1c1.7-2.8,3.6-5.1,5.6-7.5c0.1-0.2-0.1-0.2,0.1-0.4c0.4-0.2,0.2-0.8,0.7-0.7c0.2-0.3,0.2-0.2,0.2-0.4
		c2.1-2.2,3.7-5.1,5.6-7.1c0.4-0.8,1.2-1.9,1.9-2.5c0.7-1.2,1.8-1.9,2.6-2.8c0.7-0.4,1.2-0.6,1.9-0.8c0.2,0.2,0.6,0.2,0.8,0.1
		c-0.1-1.3,1.2-1.4,2.2-1.4c1.6-0.2,3,0.3,4.2,0.5c0.4,0.3,1.2,0.2,1.4,0.7c0,0.2-0.2,0.2-0.2,0.5c-0.1,0.3,0.2,0.4,0.2,0.7
		c-0.5,0.7-0.2,1.1-0.9,1.7c0.2,0.7-1.1,2.3-1.1,3.2c-0.4,0.3-0.7,1-0.8,1.6c0,0.2,0.2-0.2,0.3,0.1c-0.7,0.5-0.7,1.4-1.1,1.8
		c-0.1,0.1,0.2,0,0.2,0.1c-0.7,0.8-0.9,1.9-1.3,3.2c-1,1.9-1.1,3.7-2.2,5.7c2.2,0.3,4.9-0.6,6.9,0c0.2,0-0.2-0.3,0.2-0.2
		c0.2,0.1,0.1,0.2-0.1,0.4c0,0.1,0.5,0.1,0.5,0C113.1,34.4,113.6,34.4,113.9,34.6z M71.8,57.1C71.8,57.1,71.8,57.1,71.8,57.1
		c-0.1,0-0.1-0.1-0.1-0.2C71.9,56.9,71.8,57,71.8,57.1z M72,58.9c0.1-0.2,0-0.2-0.1-0.2c-0.1-0.2-0.1,0,0,0C72,58.8,72,58.9,72,58.9
		z M72.3,58.3c-0.1,0.1-0.2,0.1-0.2,0.2C72.2,58.5,72.5,58.3,72.3,58.3z M72.1,57.8c0.1,0,0.1,0.1,0.2,0
		C72.3,57.7,72.2,57.6,72.1,57.8z M72.4,57.6C72.4,57.6,72.4,57.7,72.4,57.6C72.5,57.5,72.4,57.5,72.4,57.6z M72.5,58.7
		c0-0.2,0-0.3-0.1-0.2C72.4,58.5,72.4,58.5,72.5,58.7C72.5,58.6,72.5,58.6,72.5,58.7z M72.5,58.1C72.5,58,72.5,58,72.5,58.1
		C72.5,58,72.5,58,72.5,58.1z M72.7,56.8c0.1-0.1,0.1,0.1,0.2,0C72.9,56.6,72.7,56.6,72.7,56.8z M72.8,57c0.1-0.1,0.2-0.1,0.2-0.1
		C72.9,57,72.8,57,72.8,57z M72.8,60.2c0.1-0.1,0.2,0,0.2-0.1C72.9,60.1,72.9,60,72.8,60.2z M72.9,56.5c0.2-0.1,0.3-0.1,0.3-0.1
		C73.1,56.4,73,56.4,72.9,56.5z M73.3,55.9c0.1,0,0.1,0,0.2,0c-0.1,0.2,0.3-0.1,0,0c0-0.2-0.1-0.2-0.2-0.2c0-0.1,0.1-0.2,0.1-0.2
		c-0.1,0-0.1,0-0.2,0c0,0.1,0,0.1,0.1,0.2C73.3,55.7,73.3,55.8,73.3,55.9z M73.6,56.3c0-0.1,0-0.2,0-0.2c-0.1,0-0.1,0-0.2,0
		C73.4,56.1,73.5,56.1,73.6,56.3C73.7,56.3,73.7,56.1,73.6,56.3z M74.3,54.9c0.1-0.3,0.1-0.7,0-0.8c0.1,0.3-0.7,0.9-0.5,1.1
		C73.8,54.8,74.3,55,74.3,54.9z M74.3,55.3c-0.1,0-0.2,0-0.3,0c0,0.1,0,0.2-0.1,0.2C74.1,55.5,74.1,55.3,74.3,55.3z M74.1,55.1
		c0.2-0.1,0.2-0.1,0.2-0.1C74.3,55,74.3,55,74.1,55.1z M74.1,56.1c0.1-0.1,0.2-0.1,0.2-0.1C74.3,56.1,74.1,56.1,74.1,56.1z
		 M74.3,59.5c-0.2-0.1,0.1-0.5,0.3-0.3C74.6,59.3,74.3,59.3,74.3,59.5z M74.6,53.9c0-0.1,0-0.2,0-0.2c-0.1,0-0.1,0-0.2,0
		c0,0,0,0.1,0,0.2C74.6,53.9,74.6,53.9,74.6,53.9z M75.4,53c0.1-0.2-0.2-0.2-0.2-0.3c-0.2,0.2-0.1,0.3-0.4,0.7
		C75.2,53.5,75,52.9,75.4,53z M74.9,54.1c-0.2,0.2,0.2,0.2,0.2,0.1C75,54.1,75,54,74.9,54.1z M75.3,58.8c-0.2-0.1,0-0.3,0-0.3
		C75.5,58.4,75.3,58.7,75.3,58.8z M76.7,52.4c0,0.2-0.2,0.1-0.2,0.3C76.6,52.7,76.8,52.4,76.7,52.4z M77.1,41.5
		c0-0.2,0.1-0.3-0.2-0.2c0,0,0,0.1,0,0.2C77,41.4,77,41.4,77.1,41.5z M77.5,41.7c0.1-0.3-0.1-0.3-0.3-0.2c0,0.1-0.2,0.2-0.2,0.2
		C77.1,41.8,77.2,41.6,77.5,41.7z M77.7,50.6c0-0.2-0.1-0.5-0.2-0.6c-0.1,0.1-0.2,0.1-0.2,0.4C77.5,50.5,77.4,50.5,77.7,50.6z
		 M77.5,41.2c0.3,0,0.2-0.3,0.6-0.1c0-0.2-0.2-0.2-0.2-0.2C77.8,40.9,77.5,40.9,77.5,41.2C77.3,41.2,77.4,41.3,77.5,41.2z
		 M77.4,55.9c0-0.2,0.1-0.2,0.2-0.2C77.6,55.8,77.6,55.9,77.4,55.9z M78,49.2c0,0.2-0.4,0.7-0.2,0.9C78.2,49.7,78.4,49.3,78,49.2z
		 M77.8,42.6c0.1-0.1,0.2-0.1,0.2-0.1C77.9,42.5,77.8,42.5,77.8,42.6z M78,50.4c0.1-0.1,0.1,0.1,0.2,0C78.2,50.3,78,50.2,78,50.4z
		 M78.2,53.9c-0.1,0-0.2,0-0.2,0.1C78.2,53.9,78.2,53.9,78.2,53.9z M78.3,42.8c0-0.1,0-0.2,0-0.2c-0.1,0-0.1,0-0.2,0
		c0,0,0,0.1,0,0.2C78.2,42.8,78.2,42.8,78.3,42.8z M78.2,48.7c0.1-0.1,0.2-0.1,0.2-0.1C78.2,48.7,78.2,48.7,78.2,48.7z M79.2,48.3
		c-0.5,0.1-0.8,0.6-0.8,1.1C78.8,49.1,78.9,48.7,79.2,48.3z M80.1,46.3C80.1,46.3,80.1,46.3,80.1,46.3c0.1-0.1,0.5-0.2,0.2-0.3
		c0,0-0.1,0-0.2,0.1c0-0.1,0.1-0.1,0.1-0.2c-0.1,0-0.1,0-0.2,0c0.5-1,1.4-1.8,1.7-2.5c-0.3,0.3-1,0.7-1,1.2
		c-1.2,0.7-1.6,1.9-2.3,3.2c0.7-0.4,1-1.2,1.7-1.7C80.2,46.2,80.1,46.2,80.1,46.3z M79.4,53.6c-0.2,0.3-0.4,0.5-0.6,0.8
		c-0.2-0.2,0.3-0.5,0.3-0.8C79.2,53.6,79.3,53.6,79.4,53.6z M80.2,47.5c-0.4,0-0.7,0.2-1,0.7C79.7,48,79.9,47.7,80.2,47.5z
		 M80.2,52.5c-0.2,0.3-0.6,0.5-0.7,0.9c-0.3-0.3,0.6-0.7,0.6-1.1C80,52.4,80.1,52.4,80.2,52.5z M79.6,48.6c0.1-0.1,0.2-0.1,0.2-0.1
		C79.7,48.5,79.6,48.5,79.6,48.6z M81.2,51.1c-0.2,0.5-0.6,0.7-0.8,1.2c-0.1,0-0.2,0-0.3,0C80.3,51.7,80.8,51.5,81.2,51.1z
		 M80.6,46.3c0.1-0.1,0.2-0.1,0.2-0.1C80.7,46.2,80.6,46.2,80.6,46.3z M80.8,46c0.4,0,0.4-0.7,0.8-0.4c0.5-1.3,1.8-2.3,2.3-3.3
		c-0.2-0.1-0.2,0.1-0.5,0.1C82.4,43.7,81.7,44.5,80.8,46z M81.2,38.8c0.1-0.1,0.1-0.2,0.1-0.2c-0.1,0-0.1,0-0.2,0c0,0,0,0.1-0.1,0.2
		C81.1,38.8,81.1,38.8,81.2,38.8z M81.8,45.7c-0.1,0-0.2,0-0.2,0c-0.1,0.4-0.9,0.8-0.4,1.1C81.3,46.2,81.8,46.2,81.8,45.7z M82,50.3
		c-0.2,0.2-0.3,0.6-0.7,0.7c0.1-0.3,0.4-0.3,0.4-0.7C81.8,50.3,81.9,50.3,82,50.3z M81.7,43.2c0.1-0.2,0-0.2-0.2-0.2
		c0,0-0.1,0.1-0.1,0.2C81.6,43.2,81.7,43.2,81.7,43.2z M82.2,38.3c0,0.1-0.2,0-0.2,0.2C82.1,38.5,82.4,38.3,82.2,38.3z M82.6,42.5
		c-0.2,0.1-0.5,0.2-0.4,0.6C82.6,43,82.7,42.7,82.6,42.5z M82.4,49.8c-0.2-0.2,0.2-0.6,0.3-0.7C83.1,49.1,82.4,49.6,82.4,49.8z
		 M82.8,48.5c0,0,0,0.1,0,0.2c-0.1,0-0.1,0-0.2,0c0-0.1,0-0.2,0-0.2C82.7,48.5,82.7,48.5,82.8,48.5z M82.9,44.6
		c0.1-0.2,0.2-0.3-0.1-0.2c0,0,0,0.1-0.1,0.2C82.8,44.5,82.8,44.5,82.9,44.6z M83.1,48.8c0-0.2,0.2-0.1,0.2-0.2
		C83.4,48.7,83.1,49,83.1,48.8z M83.1,38.4c-0.2,0.1,0.3-0.1,0.2-0.1C83.3,38.3,83.1,38.3,83.1,38.4z M83.3,37.9c0,0,0,0.1-0.1,0.2
		c-0.1,0-0.1,0-0.2,0c0.1-0.1,0.1-0.2,0.1-0.2C83.3,37.9,83.3,37.9,83.3,37.9z M83.3,43.7c0-0.1,0.1-0.2,0.1-0.2c-0.1,0-0.1,0-0.2,0
		c0,0-0.1,0.1-0.1,0.2C83.2,43.7,83.2,43.7,83.3,43.7z M83.3,48.5c0-0.2,0.1-0.2,0.2-0.2C83.4,48.5,83.4,48.5,83.3,48.5z M83.5,45.3
		c-0.2,0.1-0.1,0.2,0.2,0.3C83.7,45.4,83.8,45.3,83.5,45.3z M83.5,38c0.2-0.2,0.3-0.3,0.6-0.2C83.9,37.9,83.7,37.9,83.5,38z
		 M83.8,38.4c-0.1,0.1-0.2,0-0.2,0.2C83.8,38.7,84,38.4,83.8,38.4z M83.6,47.4c0-0.2,0.2-0.2,0.2-0.3C84,47,83.8,47.5,83.6,47.4z
		 M84,38.2c-0.2,0-0.3-0.1-0.2,0.2C83.9,38.3,83.9,38.3,84,38.2z M83.9,47.8c0,0,0,0.1,0,0.2c-0.1,0-0.1,0-0.2,0c0-0.1,0-0.2,0-0.2
		C83.8,47.8,83.8,47.8,83.9,47.8z M83.9,43.2c0.1-0.1,0.2-0.1,0.2-0.1C84,43.2,83.9,43.2,83.9,43.2z M83.9,47.6c0.3-0.8,1-1,1.2-1.6
		C85.3,46.5,84.2,47.1,83.9,47.6z M85.4,71.8c0,0,0,0.1,0,0.2c-0.1,0-0.1,0-0.2,0c0-0.1,0-0.2,0-0.2C85.3,71.8,85.3,71.8,85.4,71.8z
		 M85.4,45.9c-0.2-0.5,0.6-0.7,0.7-1.1C86.3,45,85.6,45.6,85.4,45.9z M85.5,70.8c-0.1-0.1-0.1-0.3-0.1-0.4
		C85.8,70.3,85.6,70.7,85.5,70.8z M86.3,67.2c0,0.1-0.2,0-0.2,0.2C86,67.3,86,66.9,86.3,67C86.3,67.1,86.3,67.1,86.3,67.2z
		 M86.1,70.1c0.1,0,0.1,0,0.2,0c0-0.1,0-0.2,0.1-0.1c0-0.1,0.1-0.2,0.1-0.2c-0.1,0-0.1,0-0.2,0c0,0-0.1,0.1-0.2,0.1
		C86.1,69.9,86.1,70,86.1,70.1z M86.3,68.5c0,0,0,0.1,0,0.2c-0.1,0-0.1,0-0.2,0c0-0.1,0-0.2,0-0.2C86.2,68.5,86.2,68.5,86.3,68.5z
		 M86.5,36.5c0-0.1,0-0.2,0-0.2c-0.1,0-0.1,0-0.2,0c0,0,0,0.1,0,0.2C86.3,36.5,86.3,36.5,86.5,36.5z M86.3,44.7
		c-0.2-0.2,0.3-0.5,0.3-0.7C87,44.1,86.5,44.3,86.3,44.7z M86.5,37.4c0.1-0.1,0.1,0.1,0.2,0C86.6,37.4,86.5,37.3,86.5,37.4z
		 M86.5,38.2c0.1-0.1,0.2-0.1,0.2-0.1C86.5,38.1,86.5,38.1,86.5,38.2z M87.1,37.5c-0.4,0,0.2-0.2-0.1-0.3c-0.2,0.2-0.5,0.6-0.4,0.8
		C86.8,37.8,87,37.8,87.1,37.5z M86.7,38.3c0.1-0.1,0.2,0,0.2-0.1C86.8,38.3,86.7,38.2,86.7,38.3z M87.3,36.5
		c-0.1,0.2-0.3,0.2-0.4,0.7C87.2,37,87.7,36.5,87.3,36.5z M87.3,64.4c-0.1,0-0.2,0-0.2,0.1C87.2,64.4,87.3,64.4,87.3,64.4z
		 M87.3,65.1c0,0,0,0.1,0,0.2c-0.1,0-0.1,0-0.2,0c0-0.1,0-0.2,0-0.2C87.2,65.1,87.2,65.1,87.3,65.1z M87.5,64
		c-0.2,0.1-0.2-0.2-0.3-0.2C87.4,63.7,87.7,63.8,87.5,64z M87.3,37.4c-0.2,0.2,0.3,0.2,0.3,0C87.6,37.4,87.4,37.4,87.3,37.4z M88,37
		c0.1-0.2-0.1-0.3-0.2-0.3c-0.1,0.2-0.3,0.3-0.3,0.7C87.7,37.4,87.7,36.9,88,37z M87.7,63.1c-0.2,0,0-0.2-0.3-0.1
		c0.2-0.3,0.4-0.6,0.7-0.6C87.9,62.8,87.7,62.7,87.7,63.1z M87.7,63.5c-0.2,0.2-0.3-0.2-0.1-0.3C87.8,63.2,87.4,63.5,87.7,63.5z
		 M87.7,36.7c0.1-0.1,0.1-0.2,0.1-0.2c-0.1,0-0.1,0-0.2,0c0,0,0,0.1-0.1,0.2C87.6,36.7,87.6,36.7,87.7,36.7z M87.6,43.2
		c-0.2-0.1,0.1-0.3,0.1-0.3C87.8,42.8,87.7,43.1,87.6,43.2z M87.8,35.4c-0.1,0.1-0.1,0.2-0.2,0.5C87.9,35.9,88.2,35.3,87.8,35.4z
		 M88.2,36.3c-0.2,0-0.3-0.1-0.2,0.2C88.2,36.5,88.2,36.4,88.2,36.3z M88,34.5c0.1-0.1,0.2-0.1,0.2-0.1C88.1,34.4,88,34.4,88,34.5z
		 M92.2,55.9c-0.4,0.1-0.3,0.2-0.6,0.7c0.2,0,0.1,0.3,0.2,0.6c-0.7,1.4-1,2.8-1.4,4.6c-0.2,0-0.2,0.2-0.5,0.2c0,0.4-0.1,0.5,0.1,0.9
		c-0.2,0.2-0.4,0.2-0.6,0.5c0.4,0.2-0.4,1.1,0.1,1.4c-0.2,0-0.4,0.1-0.4,0.2c0.3,0.2-0.1,0.5,0.2,0.7c-0.1,0.2-0.3,0.2-0.4,0.5
		c0.2,0.5-0.2,1.1-0.2,1.7c-1,0.4-0.1,1.3-0.2,2.3c0.2-0.5,0.5-1,0.7-1.7c-0.6-0.5,0.2-1.4,0.6-2.3c-0.2-0.2-0.2-0.8,0.2-1
		c-0.3-0.3,0.1-0.7-0.1-1.1c0.4-0.2,0.7-1,0.7-1.3c0.3-0.3,0.3-0.7,0.7-1c-0.4-0.2-0.2-0.5,0.1-0.8c-0.2-0.2-0.5,0.3-0.6,0.2
		c0.4-1,0.7-1.4,0.6-2.2c0.8-0.7,0.6-2.1,1.3-3c-0.2,0-0.2-0.1-0.2-0.2c0.3-0.8,0.7-1.9,1.1-2.8c-0.1-0.2,0-0.3,0.1-0.5
		c0.1-0.2,0.5-0.9,0.2-0.9c-0.1,0.2-0.4,0.1-0.4,0.4C93.1,53.5,92.4,54.6,92.2,55.9z M88.5,35c0-0.1,0-0.2,0-0.2c-0.1,0-0.1,0-0.2,0
		c0,0,0,0.1,0,0.2C88.4,35,88.4,35,88.5,35z M88.6,34.6c0.1,0,0.1,0,0.2,0c0-0.1,0-0.2,0.1-0.1c0-0.1,0-0.2,0-0.2
		c-0.1,0-0.1,0-0.2,0c0,0,0,0.1-0.1,0.1C88.6,34.4,88.6,34.5,88.6,34.6z M89.1,58.1c-0.4,0-0.2-0.3-0.2-0.5
		C89.1,57.6,88.9,57.9,89.1,58.1z M89.2,58.8c-0.4-0.2,0-0.5,0.1-0.9C89.5,58,89.4,58.5,89.2,58.8z M89.1,59c0-0.2,0.1-0.2,0.2-0.2
		C89.2,58.9,89.2,59,89.1,59z M89.5,57.4c0.1-0.2,0.2-0.5,0.4-0.4C89.8,57,89.8,57.4,89.5,57.4z M90,56.9c-0.2-0.1-0.3-0.3-0.2-0.6
		C90.2,56.3,90,56.6,90,56.9z M90.1,56.1c-0.1,0-0.2,0-0.3,0c0-0.3,0.2-0.2,0.2-0.5C90.4,55.6,90.1,55.9,90.1,56.1z M90.7,53.7
		c-0.2,0-0.2-0.1-0.2-0.1c0.1-0.2,0.2-0.2,0.2-0.2C90.7,53.4,90.9,53.6,90.7,53.7z M90.5,55.7c-0.1-0.2,0.6-0.5,0.2-0.7
		c0-0.3,0.2-0.6,0.6-0.5C91,55,91,55.4,90.5,55.7z M90.6,54.5c0-0.3,0-0.7,0.3-0.6C90.6,54.2,91,54.5,90.6,54.5z M90.9,55.7
		c0.2-0.2,0.2-0.3,0.4-0.2C91.2,55.4,91.1,55.7,90.9,55.7z M91.2,53c0,0,0,0.1,0,0.2c-0.1,0-0.1,0-0.2,0c0-0.1,0-0.2,0-0.2
		C91.2,53,91.2,53,91.2,53z M91.4,52.2c-0.2,0.1-0.1-0.3-0.1-0.4C91.6,51.7,91.4,52.2,91.4,52.2z M91.2,69.3c0.1-0.1,0.1,0.1,0.2,0
		C91.4,69.2,91.2,69.1,91.2,69.3z M91.6,28.2c0,0,0,0.1-0.1,0.2c-0.1,0-0.1,0-0.2,0c0.1-0.1,0.1-0.2,0.1-0.2
		C91.5,28.2,91.5,28.2,91.6,28.2z M91.9,31.7c-0.3,0-0.7,0.6-0.5,0.7C91.6,32,92.1,31.8,91.9,31.7z M92.6,36.5
		c-0.1,0.3-0.5,0.4-0.5,0.8c1.4-0.4,3-0.4,4.8-0.7c0.1-0.2,0.1-0.3,0.2-0.2c0.1-0.3-0.1-0.3,0.1-0.6c-0.2-0.1-0.6,0.2-0.7,0
		c0.3,0,0.4-0.2,0.7-0.2c0.7-2.1,1.6-3.4,1.7-5.3c0.4-1,1.1-2.3,1.1-3.2c-0.7,0.7-1.1,1.4-1.9,2.5c-0.3,0.5-1,1.2-1.3,1.1
		c-0.1,0.2,0.1,0.2,0.1,0.4c-0.5,0.3-1,1.3-1.7,1.8c-0.1,0.6-0.8,1.3-1.2,1.8c0.1-0.5,0.8-1,0.4-1.1c-0.2,0-0.1,0.2-0.1,0.3
		c-0.8,0.2-1.4,1.1-1.9,1.8c0.4-0.1,0.1,0.3-0.1,0.5c0.1-0.2,0.1-0.2,0.2-0.3c-0.6,0.2-0.6,0.7-1,1.1c0.3,0-0.2,0.4,0.1,0.6
		c0-0.2,0.2-0.1,0.3-0.1c0.1-0.2,0.2-0.4,0.4-0.6c-0.2-0.2-0.4,0.2-0.3,0c0.2-0.2,0.2-0.3,0.2-0.3c0.2-0.1,0.2,0,0.2,0.1
		c0.3-0.4,0.6-1.1,1.1-1.4c-0.2,0.4-0.6,0.7-0.8,1.1c0.2-0.2,0.2-0.1,0.5,0C93.1,36.5,92.9,36.5,92.6,36.5z M92.5,52.2
		c-0.1,0.4-0.4,0.6-0.7,0.9c-0.2,0-0.2-0.2-0.2-0.2c0.5-0.3,0.4-0.6,0.7-0.8C92.4,52,92.4,52.1,92.5,52.2z M93,49
		c-0.2-0.1-0.2-0.2-0.5,0c0.4,0.7,0.1,1.4-0.4,2.5c0-0.2-0.2-0.4-0.3-0.5c0.5-0.5,0.2-1.1,0.7-1.4c0-0.2-0.2-0.3,0-0.7
		c0.1-0.2,0.4-0.3,0.5-0.1c0.2-0.2-0.2-0.2,0-0.6C93.1,48.3,93.2,48.6,93,49z M92.2,31.8c-0.1,0.2-0.3,0.5,0,0.5
		C92.4,32.1,92.4,31.8,92.2,31.8z M93,33c-0.3,0-0.4,0.2-0.6,0.5C92.7,33.4,92.9,33.1,93,33z M92.6,68.4c-0.4-0.7,0.2-1.6,0.3-2.5
		C93.3,66.4,92.5,67.6,92.6,68.4z M92.6,48.3c0,0,0,0.1,0,0.2c-0.1,0-0.1,0-0.2,0c0-0.1,0-0.2,0-0.2C92.6,48.3,92.6,48.3,92.6,48.3z
		 M92.6,30.9c0.1,0,0.1,0,0.2,0c0-0.1,0-0.2,0.1-0.1c0-0.1,0-0.2,0-0.2c-0.1,0-0.1,0-0.2,0c0,0,0,0.1-0.1,0.1
		C92.6,30.7,92.6,30.9,92.6,30.9z M92.6,48.1c0.4-0.7,0.9-1.8,1.2-2.1C94.1,46.6,93.4,47.8,92.6,48.1z M92.9,51.7
		c0,0.1-0.1,0.2-0.1,0.4c-0.2-0.1-0.3-0.2-0.2-0.4C92.7,51.7,92.8,51.7,92.9,51.7z M93,52.4c-0.1,0.2-0.2,0.3-0.3,0.7
		C92.9,52.9,93.2,52.4,93,52.4z M93,27.6c-0.2-0.1-0.3,0-0.3,0.2C92.9,27.7,93,27.7,93,27.6z M93.5,49.2c-0.1,0.3-0.3,0.5-0.5,0.9
		c-0.1,0-0.2,0-0.3,0c0.3-0.3,0.4-0.7,0.6-1C93.5,49.1,93.5,49.2,93.5,49.2z M93,35.3c-0.2-0.1,0.2-0.6,0.5-0.6
		C93.5,35,93.1,34.9,93,35.3z M93.1,36.9c0.2-0.2,0.5-0.3,0.6-0.5C93.9,36.5,93.5,37,93.1,36.9z M93.2,30C93.2,30,93.2,30,93.2,30
		c0.1,0.1,0.1,0.1,0.2,0.1c0-0.1,0-0.2,0.1-0.1c0-0.1,0-0.2,0-0.2c-0.1-0.1-0.1-0.1-0.1-0.1c-0.1,0-0.1,0-0.2,0c0,0,0,0.1-0.1,0.1
		C93.2,29.9,93.2,30,93.2,30z M93.5,36.4c-0.1,0-0.1,0-0.2,0C93.3,36.3,93.5,36.2,93.5,36.4z M93.5,64.6c-0.3-0.2,0.1-0.4-0.1-0.6
		C93.7,64,93.4,64.4,93.5,64.6z M94.3,47.5c-0.5-0.3-0.4,0.7-0.9,0.7c-0.1-0.4,0.5-0.5,0.5-0.9c0.2-0.1,0.3,0,0.4-0.1
		C94.4,47.2,94.3,47.4,94.3,47.5z M93.6,36.4c0.2-0.3,0.5-0.1,0.8-0.3C94.5,36.3,93.9,36.5,93.6,36.4z M93.8,36.8
		c0.2-0.3,0.2-0.1,0.5-0.1C94.3,36.9,93.9,36.7,93.8,36.8z M93.9,61.9c0.1-0.2,0.2-0.2,0.2-0.5C94.4,61.4,93.9,62,93.9,61.9z
		 M94.6,50.3c-0.4-0.1-0.3,0.3-0.5,0.6C94.4,50.9,94.5,50.5,94.6,50.3z M94.4,30c0-0.1,0-0.2,0-0.2c-0.1,0-0.1,0-0.2,0
		c0,0,0,0.1,0,0.2C94.4,30,94.4,30,94.4,30z M94.4,38.2c0.1,0,0.1,0,0.2,0c0-0.1,0.1-0.2,0.1-0.1c0.1-0.1,0.1-0.2,0.1-0.2
		c-0.1,0-0.1,0-0.2,0c0,0,0,0.1-0.1,0.1C94.4,38,94.4,38.1,94.4,38.2z M94.4,36.9c0.2-0.3,0.2-0.5,0.5-0.5
		C94.8,36.5,94.8,36.9,94.4,36.9z M94.8,36.1c-0.1,0.2-0.2,0.1-0.3,0.2c0-0.1,0.1-0.1,0.2-0.2C94.8,36.1,94.8,36.1,94.8,36.1z
		 M94.7,48.5c0-0.1,0.1-0.2,0.1-0.2c-0.1,0-0.1-0.1-0.2-0.1c0,0.1-0.1,0.1-0.1,0.2C94.6,48.5,94.6,48.5,94.7,48.5z M94.6,45.3
		c-0.2-0.1,0.1-0.2,0.1-0.2C94.8,45.1,94.7,45.2,94.6,45.3z M94.8,33.3c0.2,0,0.4-0.6,0.1-0.4C94.8,33,94.9,33,94.8,33.3
		C94.7,33.3,94.8,33.4,94.8,33.3z M95.3,36.4c-0.1,0-0.2-0.4-0.3-0.1c-0.2-0.2,1.1-0.5,1.1-0.2C95.8,36,95.5,36,95.3,36.4z
		 M95.4,53.5c-0.2,0.2-0.4,0.7-0.1,0.7C95.3,54,95.6,53.6,95.4,53.5z M95.4,47.8c-0.2,0.2,0.2,0.2,0.2,0.1
		C95.6,47.8,95.6,47.7,95.4,47.8z M95.4,41.5c0.1-0.1,0.2-0.1,0.2-0.1C95.5,41.4,95.4,41.4,95.4,41.5z M96.5,30.9
		c-0.9,0.2-0.4,1-1.1,1.6C96.2,32.3,96,31.4,96.5,30.9z M95.6,40.8c-0.1,0.1-0.1,0.2-0.1,0.2C95.8,41.1,95.9,40.6,95.6,40.8z
		 M95.8,43.4c0-0.2,0.2-0.3,0.2-0.2C95.9,43.2,96,43.4,95.8,43.4z M96,56.1c-0.2,0.1-0.2,0.3,0,0.3C96.1,56.3,96,56.1,96,56.1z
		 M96,36.3c-0.1-0.3,0.3-0.1,0.4-0.2C96.7,36.1,96.2,36.3,96,36.3z M96.7,36.5c0-0.2,0.2-0.2,0.3-0.2C97,36.4,96.9,36.5,96.7,36.5z
		 M97.4,51.5c-0.1-0.2-0.3-0.2-0.3,0.2C97.2,51.7,97.4,51.6,97.4,51.5z M97.4,36.6c0.1-0.1,0.2-0.1,0.2-0.1
		C97.5,36.5,97.4,36.5,97.4,36.6z M97.7,51.6c0.3-1.1,1.4-2.8,1.4-3.7c-0.7,0.7-0.7,1.9-1.6,2.7C97.9,50.6,97.1,51.5,97.7,51.6z
		 M97.7,39.4C97.8,39.3,97.7,39.2,97.7,39.4C97.4,39.3,97.6,39.7,97.7,39.4z M97.9,21.2c0.1-0.1,0.2-0.1,0.2-0.1
		C98,21.2,97.9,21.2,97.9,21.2z M98.1,43.6c0.4,0,0.3-0.3,0.4-0.6c0.1-0.1,0.2-0.1,0.2-0.1c-0.2-0.2-0.3,0-0.5,0.1
		C97.9,43.3,98.3,43.3,98.1,43.6z M98.8,42.4c-0.2-0.2-0.6,0.2-0.3,0.3C98.5,42.6,98.8,42.6,98.8,42.4z M99.7,46.4
		c-0.1,0-0.2,0-0.2,0c-0.2,0.2-0.5,1.2-0.2,1.4C99.4,47.1,99.7,46.8,99.7,46.4z M102.2,17.8c0.1-0.1,0.2-0.1,0.2-0.1
		C102.2,17.8,102.2,17.8,102.2,17.8z M104.1,38.1c-0.2,0.5-0.4,0.7-0.6,1.4c1.8-0.7,3.5-1.6,5.3-2.1c0-0.2-0.2-0.2,0-0.2
		c0.4,0,0.6-0.2,1-0.2c0.2-0.2,1-0.2,0.7-0.4c-0.8,0.2-1.4,0.3-2.1,0.7C106.9,37.2,105.5,37.9,104.1,38.1z M104.9,36.7
		c0,0.1,0,0.2-0.1,0.2C105.1,37,105.2,36.5,104.9,36.7z M105.6,35.4c-0.3-0.1-0.5,0.1-0.7,0.3C105.3,35.6,105.5,35.9,105.6,35.4z
		 M105.9,34.9c-0.1-0.2-0.3,0-0.4,0.2C105.7,35.1,105.8,35.1,105.9,34.9z M106.6,34.8c-0.2,0-0.5-0.1-0.6,0.2
		C106.1,35.1,106.4,34.8,106.6,34.8z M106.4,35.5c0.2-0.2-0.2-0.2-0.2-0.1c0.1,0,0.1,0,0.1,0.1C106.4,35.5,106.4,35.5,106.4,35.5z
		 M107.1,34.8c0,0.2-0.3-0.1-0.3,0.2C106.9,35.1,107.3,34.8,107.1,34.8z M107.1,37.4c0.1-0.1,0.2-0.1,0.2-0.1
		C107.1,37.3,107.1,37.3,107.1,37.4z M107.5,35.3c0-0.1,0-0.2-0.2-0.1c-0.1,0.1-0.2,0.2-0.2,0.3C107.5,35.6,107.5,35.5,107.5,35.3z
		 M107.6,34.8c0.2-0.1,0.2-0.1,0.2-0.1C107.8,34.8,107.7,34.8,107.6,34.8z M109.6,36.6c-0.6,0.2-1,0.2-1.4,0.4
		C108.6,37.1,109.2,36.9,109.6,36.6z M109.6,34.4c0.1-0.1,0.4,0.1,0.4-0.1C109.8,34.4,109.6,34.2,109.6,34.4z M110.1,36.5
		c-0.2-0.1-0.2,0.1-0.4,0.1C109.6,36.9,110.1,36.6,110.1,36.5z M112.6,34.6c0-0.1,0-0.2,0-0.2c0.1,0,0.2,0,0.2,0
		c0,0.1-0.1,0.2-0.1,0.2C112.7,34.6,112.7,34.6,112.6,34.6z M114.3,36.7c0.1-0.1,0.1-0.2,0.1-0.2c-0.1,0-0.1,0-0.2,0
		c0,0,0,0.1-0.1,0.2C114.2,36.7,114.2,36.7,114.3,36.7z M115,35.5c0,0,0,0.1,0,0.2c-0.1,0-0.1,0-0.2,0c0-0.1,0-0.2,0-0.2
		C114.9,35.5,114.9,35.5,115,35.5z"/>
	<path d="M61.5,93.7c-3.2,2.3-5.8,5.3-8,8l-0.6-0.4c-2.7-7.4-4.7-11.4-9.9-15c0,4.1,0.4,8.3,1.2,12.4c1.1,0.1,2.4,0.2,3.3,0.3
		l-0.1,0.8c-2.6-0.2-5.2-0.3-7.9-0.3c-2.4,0-4.5,0.1-7,0.3L32.3,99c1.2-0.2,2.5-0.3,3.6-0.5C36.6,94.4,37,89,37,85.1
		c0-4.3-0.4-9-1.2-12.9c-3-0.7-5.6-2.4-5.6-5.6c0-0.7,0.3-1.2,0.8-1.2c0.6,0,0.7,0.5,0.7,1.1c0,4.5,4.3,5.3,7.6,5.3
		c3.5,0,7.5-0.6,10.7-1.6c4.6,0.9,8,3.5,8,7.5c0,5.3-4.6,6.6-8.6,8.5c1.2,0.4,2.4,0.7,3.8,0.7c2,2.3,3.7,5.3,4.7,8.2
		c0.8-0.7,2-1.6,3.1-2.1L61.5,93.7z M46,86.1c3.3,0,5.6-2,5.6-5.7s-3-6.9-6.6-8.2c-0.5,0.1-0.7,0.1-1.2,0.2c0,0-0.8,5.3-0.8,13
		C43.9,85.9,44.9,86.1,46,86.1z"/>
	<path d="M78,99.8c-1.9-0.2-4-0.3-6.8-0.3c-2.7,0-6.3,0.1-8.4,0.3L62.7,99c1.1-0.1,2.7-0.2,3.8-0.4c0.4-3.2,0.7-8.7,0.7-13.1
		c0-7.5-1.2-11.4-2.5-12.6c-0.8-0.8-1.6-1-3.1-1V71c1.1,0.1,2.4,0.2,3.8,0.2c2.7,0,5.6-0.2,7.8-0.7c0,2.7,0.2,9.7,0.5,13.5H74
		c0.8-3.6,1.4-7.5,1.7-10.1c1-1.2,5-3.9,8.7-3.9c4.7,0,9.4,5.1,9.4,9c0,5.6-6.7,13.5-6.7,17.2c0,2.4,1.1,3.5,2.3,3.5
		c3.4,0,2.5-3.3,3.5-3.3c0.5,0,0.7,0.2,0.7,0.8c0,1.8-2.3,3.3-4.4,3.3c-4.5,0-7.7-2.8-7.7-7.6c0-6,6.3-13.1,6.3-18.9
		c0-1.7-0.7-3-2.7-3c-4.6,0-8.4,6-9.7,11.5c-0.8,3.2-1.2,6.4-1.2,9.7c0,2,0.1,4.1,0.4,6.3c1.2,0.2,2.7,0.4,3.6,0.5L78,99.8z"/>
	<path d="M127.8,99.9c-2.6-0.3-4.4-0.6-7.9-0.6c-2.6,0-4.3,0.2-6.3,0.6l-0.2-0.8c1.1-0.3,1.9-0.4,3.1-0.6c0.1-2.7,0.2-7.1,0.2-9.8
		L106,88.6c0.1,4.2,0.6,7.5,1.2,10c0.8,0.1,1.9,0.3,2.7,0.4l-0.1,0.8c-2.1-0.3-2.9-0.4-5.8-0.4c-2.5,0-3.9,0.1-5.9,0.4L97.9,99
		c0.8-0.1,3.7-0.4,5.7-0.4c-2.7-2.2-5.1-6.4-5.1-11.7c0-6.7,4-12.6,10.9-14.5v-0.2c-3.8-0.2-10.1-1.2-10.1-3.1
		c0-0.8,0.7-1.1,1.2-1.1c0.8,0,0.4,1,1.2,1.7c1.2,1.2,7.5,2,12.4,2c6.1,0,10.2-0.1,12.5-0.6l0.1,0.8c-0.9,0.2-2.5,0.4-3.8,0.6
		c0,0-0.2,5.6-0.2,8.6c0,5.6,0.5,11.4,1.7,17.5c1.3,0.2,2.1,0.3,3.4,0.6L127.8,99.9z M116.7,87.6c-0.1-10.2,0-15.1-4.6-15.1
		c-4.7,0-6.2,7.1-6.2,15.1H116.7z"/>
	<path style="opacity:0.44;" d="M101.9,41.7H75.6v81.9H53.9V41.7H27.6V23.2h74.3L101.9,41.7L101.9,41.7z"/>
</g>
</svg>
