<?xml version="1.0" encoding="UTF-8" standalone="no"?>
<!DOCTYPE svg PUBLIC "-//W3C//DTD SVG 1.1//EN" "http://www.w3.org/Graphics/SVG/1.1/DTD/svg11.dtd">
<svg width="128px" height="128px" viewBox="0 0 128 128" version="1.1" xmlns="http://www.w3.org/2000/svg" xmlns:xlink="http://www.w3.org/1999/xlink">
    <g id="icon" color="currentColor">
        <rect x="-0" y="78.07" width="100.071" height="6.25"/>
        <path d="M29.194,83.405L24.775,78.985L35.279,68.481L39.699,72.9L29.194,83.405ZM44.951,67.648L40.531,63.229L61.54,42.22L65.959,46.64L44.951,67.648ZM71.211,41.388L66.792,36.968L77.296,26.464C77.882,25.878 78.677,25.549 79.506,25.549L96.946,25.549L96.946,31.799L80.8,31.799L71.211,41.388Z"/>
        <g transform="matrix(1,0,0,1,48.1323,36.151)">
            <path d="M62.278,28.455C71.433,28.455 78.867,35.888 78.867,45.044C78.867,54.2 71.433,61.633 62.278,61.633C53.122,61.633 45.689,54.2 45.689,45.044C45.689,35.888 53.122,28.455 62.278,28.455ZM62.278,34.705C56.572,34.705 51.939,39.338 51.939,45.044C51.939,50.75 56.572,55.383 62.278,55.383C67.984,55.383 72.617,50.75 72.617,45.044C72.617,39.338 67.984,34.705 62.278,34.705Z"/>
        </g>
        <g transform="matrix(1,0,0,1,48.1323,-16.37)">
            <path d="M62.278,28.455C71.433,28.455 78.867,35.888 78.867,45.044C78.867,54.2 71.433,61.633 62.278,61.633C53.122,61.633 45.689,54.2 45.689,45.044C45.689,35.888 53.122,28.455 62.278,28.455ZM62.278,34.705C56.572,34.705 51.939,39.338 51.939,45.044C51.939,50.75 56.572,55.383 62.278,55.383C67.984,55.383 72.617,50.75 72.617,45.044C72.617,39.338 67.984,34.705 62.278,34.705Z"/>
        </g>
    </g>
</svg>
