<?xml version="1.0" encoding="utf-8"?>
<!-- Generator: Adobe Illustrator 28.0.0, SVG Export Plug-In . SVG Version: 6.00 Build 0)  -->
<svg version="1.1" id="Layer_1" xmlns="http://www.w3.org/2000/svg" xmlns:xlink="http://www.w3.org/1999/xlink" x="0px" y="0px"
	 viewBox="0 0 128 128" style="enable-background:new 0 0 128 128;" xml:space="preserve">
<g id="icon" fill="currentColor">
	<path d="M93.6,43.6c-6,0-10.9,4.9-10.9,10.9c0,6,4.9,10.9,10.9,10.9c6,0,10.9-4.9,10.9-10.9C104.5,48.5,99.6,43.6,93.6,43.6z"/>
	<path d="M127.8,84L121,46.5c-2.4-16.7-10.9-26.7-25.5-26.7h-11c-3.7,0-5.5,3.4-6.8,5.9c-0.3,0.6-0.8,1.5-1.1,2H64H51.5
		c-0.3-0.5-0.8-1.4-1.1-2c-1.3-2.5-3.1-5.9-6.8-5.9h-11c-14.6,0-23.1,10-25.5,26.7L0.2,84c-0.9,6.8,0.6,14.1,4.2,18.2
		c3.4,3.9,8.6,6,14.6,6c6.9,0,11.5-7.3,16.4-13.5C42,86.5,49.3,80.4,64,80.4s22.1,6.2,28.6,14.4c4.9,6.1,9.5,13.5,16.4,13.5
		c6,0,11.2-2.1,14.6-6C127.1,98.1,128.6,90.8,127.8,84z M48,58.3h-8.8v8.8c0,2.1-1.7,3.9-3.9,3.9c-2.1,0-3.9-1.7-3.9-3.9v-8.8h-8.8
		c-2.1,0-3.9-1.7-3.9-3.9c0-2.1,1.7-3.9,3.9-3.9h8.8v-8.8c0-2.1,1.7-3.9,3.9-3.9c2.1,0,3.9,1.7,3.9,3.9v8.8H48
		c2.1,0,3.9,1.7,3.9,3.9C51.8,56.6,50.1,58.3,48,58.3z M93.6,71.7c-9.4,0-17.1-7.7-17.1-17.1c0-9.4,7.7-17.1,17.1-17.1
		c9.4,0,17.1,7.7,17.1,17.1C110.7,64,103,71.7,93.6,71.7z"/>
</g>
</svg>
