<?xml version="1.0" encoding="utf-8"?>
<!-- Generator: Adobe Illustrator 28.2.0, SVG Export Plug-In . SVG Version: 6.00 Build 0)  -->
<svg version="1.1" id="Layer_1" xmlns="http://www.w3.org/2000/svg" xmlns:xlink="http://www.w3.org/1999/xlink" x="0px" y="0px"
	 viewBox="0 0 128 128" style="enable-background:new 0 0 128 128;" xml:space="preserve">
<g id="icon">
	<path class="st0" d="M47.8,90.4L30.6,74.6c-0.8-0.7-1.7-1.1-2.8-1.1c-1.1,0-2,0.5-2.7,1.3c-1.2,1.3-1.3,3.4-0.4,4.8l0.5,0.8
		c2.8,4.2,5.9,8.1,9.3,11.8l3.4,3.5c0.5,0.5,0.8,1.2,0.7,1.9c0,0.7-0.3,1.3-0.8,1.9c-0.5,0.5-1.2,0.7-1.9,0.7s-1.3-0.3-1.9-0.8
		l-3-3.2c-3.9-4-7.4-8.5-10.3-13.2l-0.3-0.5c-2.3-3.5-2-8.1,0.7-11.1c0.3-0.3,0.5-0.5,0.8-0.8l-7.1-13.4c-0.8-1.5-2.6-2.6-4.3-2.4
		c-1.3,0-2.6,0.7-3.4,1.6c-0.8,1.1-1.2,2.3-1.1,3.6L10.7,96c0.4,3.4,2.1,6.4,4.8,8.6l13.8,11.1c0.8,0.7,1.3,1.6,1.5,2.7l0.9,7.5
		c0.1,1.1,0.9,1.7,2,1.7h19.6c1.2,0,2.1-1.1,2-2.3l-3.9-28.7C51,94.4,49.7,92,47.8,90.4L47.8,90.4z"/>
	<path class="st0" d="M120.8,56.4c-0.8-1.1-2-1.6-3.4-1.6c-1.7-0.1-3.5,0.9-4.3,2.4l-7.1,13.4c0.3,0.3,0.5,0.5,0.8,0.8
		c2.7,3.1,3,7.7,0.7,11.1l-0.3,0.4c-3.1,4.7-6.6,9-10.3,13.2l-3,3.2c-0.5,0.5-1.1,0.8-1.9,0.8c-0.7,0-1.3-0.3-1.9-0.7
		c-0.5-0.5-0.8-1.2-0.8-1.9c0-0.7,0.3-1.3,0.7-1.9l3.2-3.5c3.5-3.8,6.7-7.8,9.5-12.1l0.4-0.7c0.9-1.5,0.8-3.5-0.4-4.8
		c-0.7-0.8-1.7-1.2-2.7-1.3c-1.1,0-2.1,0.3-2.8,1.1L80,90.4c-1.9,1.7-3.2,4-3.6,6.6l-3.9,28.7c-0.1,1.2,0.8,2.3,2,2.3h19.6
		c1.1,0,1.9-0.8,2-1.7l0.9-7.5c0.1-1.1,0.7-2,1.5-2.7l13.8-11.1c2.7-2.1,4.4-5.2,4.8-8.6l4.7-36.1C122.2,58.7,121.8,57.4,120.8,56.4
		L120.8,56.4z"/>
	<path class="st0" d="M87.8,65.8c4.3-9.5,2.7-20.3-4.2-28.1l-5.5-6.3c-0.8-0.9-1.3-2.1-1.3-3.5V7.5h1.7C80.4,7.5,82,5.8,82,4
		s-1.6-3.5-3.5-3.5H49.3c-1.9,0-3.5,1.6-3.5,3.5s1.6,3.5,3.5,3.5H51V28c0,1.2-0.4,2.4-1.2,3.4l-5.5,6.3c-6.8,7.8-8.5,18.7-4.2,28.1
		c4.3,9.5,13.4,15.4,23.9,15.4C74.4,81.3,83.5,75.4,87.8,65.8L87.8,65.8z M52.5,59c-2.1,0-3.9-1.7-3.9-3.9s1.7-3.9,3.9-3.9
		s3.9,1.7,3.9,3.9C56.4,57.3,54.6,59,52.5,59z M62.4,72.6c-2.1,0-3.9-1.7-3.9-3.9c0-2.1,1.7-3.9,3.9-3.9s3.9,1.7,3.9,3.9
		C66.3,70.8,64.6,72.6,62.4,72.6z M75.3,62.4c-2.1,0-3.9-1.7-3.9-3.9c0-2.1,1.7-3.9,3.9-3.9s3.9,1.7,3.9,3.9
		C79.2,60.6,77.5,62.4,75.3,62.4z M78.9,44.6C73,46.8,67,45.4,60.5,44.1c-3.6-0.8-7.4-1.6-11.1-1.7l5.5-6.3c1.9-2.1,3-5,3-7.9
		l0-20.7h12.1v4.8h-4.6c-1.9,0-3.5,1.6-3.5,3.5s1.6,3.5,3.5,3.5h4.6v4.8h-4.6c-1.9,0-3.5,1.6-3.5,3.5c0,1.9,1.6,3.5,3.5,3.5h4.8
		c0.4,1.9,1.3,3.6,2.7,5l5.5,6.3c0.5,0.5,0.9,1.2,1.5,1.9C79.6,44.4,79.2,44.5,78.9,44.6L78.9,44.6z"/>
</g>
</svg>
