<?xml version="1.0" encoding="utf-8"?>
<!-- Generator: Adobe Illustrator 26.5.0, SVG Export Plug-In . SVG Version: 6.00 Build 0)  -->
<svg version="1.1" id="Layer_1" xmlns="http://www.w3.org/2000/svg" xmlns:xlink="http://www.w3.org/1999/xlink" x="0px" y="0px"
	 viewBox="0 0 128 128" style="enable-background:new 0 0 128 128;" xml:space="preserve">
<style type="text/css">
	.st0{}
</style>
<path id="icon" style="fill-rule:evenodd;clip-rule:evenodd;fill:#DF8E2B;" d="M103.08,9.73c0,0-18.59,10.59-19.19,24.39c3.2,2,5.4,6,5.6,11.99c-4.8-7.6-8.6-9.19-12.59-8
	c5,2.6,7.2,11.19,8,22.19c-1.6,1.2-3.4,2.4-5.6,2.4H54.71l-0.2-42.78c-0.2-3.4,3-6.6,4.8-9.99c0,0-18.79,10.79-19.39,24.59
	c3.4,2,5.6,6,5.6,11.99c-4.8-7.6-8.6-9.19-12.39-8.2c6.2,2.4,7.6,12.19,7.8,24.39h-0.4c-4.4,5-8,9.99-14.99,15.99v2.6
	c4.2-3.2,9.39-4.6,14.99-5.2c-0.4,9.79-1,19.59-0.2,26.79c-6.6,3.8-12.59,9.19-15.39,13.59c16.59-10.79,32.58-1.6,31.18,1.8
	c-0.2,0.2,6.2-3.8,6.4-6c0.2-2.8-4.8-6.4-10.19-7.4c0,0,7.2-1,13.59,4.8c0.2,0.2,8.2-10.99,8-10.59c-1.6,1.8-4,3.8-4,3.8
	s-10.39-4.8-10.59-5c-3.4-1.4-8.6,0-14.19,2.6c4.2-4.4,9.59-10.19,9.59-10.19V75.89c6,0.4,11.79,0.8,16.19,0.2
	c3.4-2.6,10.39-10.19,14.19-14.59c1,17.79-1.8,41.18-4.4,55.77l1,1c6.6-6.2,13.59-12.79,17.19-18.19l-0.4-80.56
	C98.28,16.12,101.28,12.92,103.08,9.73L103.08,9.73z"/>
</svg>
