<?xml version="1.0" encoding="UTF-8" standalone="no"?>
<svg
   width="128"
   height="128"
   version="1.1"
   viewBox="0 0 128 128"
   id="svg13"
   xmlns="http://www.w3.org/2000/svg"
   xmlns:svg="http://www.w3.org/2000/svg">
  <g
     id="icon"
     transform="matrix(0.50669776,0,0,0.50669776,4.7662017,-2.3407608)">
    <path
       d="m 85.327538,96.460903 c -5.22008,0 -10.22685,2.07368 -13.91833,5.764467 -3.6913,3.69131 -5.76584,8.69757 -5.76653,13.91764 -6.8e-4,5.22008 2.07232,10.22685 5.76243,13.91901 3.69079,3.692 8.69687,5.76722 13.91695,5.76842 5.22008,10e-4 10.22753,-2.07112 13.9197,-5.76105 3.692672,-3.68943 5.768412,-8.69551 5.770472,-13.91559 -0.004,-5.22008 -2.07917,-10.22548 -5.769792,-13.91764 -3.69011,-3.691307 -8.69482,-5.768417 -13.9149,-5.775087 z m 0,34.410187 c -3.90736,0 -7.6543,-1.55212 -10.41687,-4.31531 -2.76258,-2.76326 -4.31395,-6.51072 -4.31258,-10.41807 10e-4,-3.90736 1.5548,-7.65362 4.31874,-10.41551 2.76394,-2.76189 6.5114,-4.31206 10.41876,-4.31 3.90735,0.002 7.65361,1.55681 10.41413,4.3213 2.7612,2.76446 4.310692,6.51277 4.307272,10.42013 -0.007,3.90342 -1.562162,7.6442 -4.323362,10.40283 -2.76052,2.75915 -6.50267,4.3107 -10.40609,4.31463 z"
       id="path1"
       style="stroke-width:0.171195" />
    <path
       d="m 120.56803,139.30073 -5.70165,-7.12599 c 1.19369,-2.20071 2.136,-4.5293 2.80863,-6.94144 l 8.99972,-0.99908 c 0.60588,-0.0675 1.16627,-0.35576 1.57285,-0.8105 0.40659,-0.45475 0.63062,-1.04323 0.62995,-1.6531 v -11.77239 c 6.8e-4,-0.60989 -0.22336,-1.19837 -0.62995,-1.6531 -0.40658,-0.45472 -0.96697,-0.74295 -1.57285,-0.8105 l -9.14027,-1.01111 c -0.69548,-2.31045 -1.63706,-4.53941 -2.80863,-6.648527 l 5.65337,-7.0618 c 0.37985,-0.47681 0.57109,-1.07733 0.53699,-1.68654 -0.0334,-0.60855 -0.29089,-1.18366 -0.72155,-1.61566 l -8.32573,-8.32572 c -0.43066,-0.43133 -1.0051,-0.68879 -1.61365,-0.72291 -0.60854,-0.0341 -1.20839,0.15782 -1.68452,0.53832 l -7.0618,5.65338 c -2.172122,-1.15957 -4.457742,-2.0932 -6.821092,-2.78466 l -1.01111,-9.08001 c -0.0682,-0.60588 -0.3571,-1.1656 -0.81118,-1.57152 -0.45472,-0.40659 -1.04254,-0.63128 -1.65242,-0.63128 h -11.7724 c -0.61055,0 -1.19903,0.22536 -1.65378,0.63261 -0.45406,0.40726 -0.74295,0.96765 -0.80983,1.57419 l -1.00711,9.07608 c -2.40067,0.69615 -4.71591,1.65979 -6.90121,2.87282 l -7.1741,-5.74975 c -0.47681,-0.38119 -1.07733,-0.57245 -1.68655,-0.53899 -0.60921,0.0341 -1.18432,0.29156 -1.61565,0.72357 l -8.32162,8.32573 c -0.43199,0.43132 -0.68945,1.00643 -0.72357,1.61565 -0.0334,0.60921 0.15782,1.20973 0.53899,1.68654 l 5.7578,7.19413 c -1.19033,2.147977 -2.13257,4.424357 -2.80862,6.784967 l -9.06803,1.01111 c -0.60588,0.0676 -1.16627,0.35577 -1.57286,0.81051 -0.40658,0.45475 -0.63061,1.04323 -0.62994,1.65309 v 11.7724 c -6.9e-4,0.60921 0.22402,1.1977 0.63061,1.65176 0.40659,0.45406 0.96631,0.74161 1.57219,0.80783 l 9.06803,1.01111 c 0.67408,2.3613 1.61632,4.63768 2.80862,6.78498 l -5.7578,7.19823 c -0.38118,0.47682 -0.57244,1.07733 -0.53899,1.68655 0.0341,0.60921 0.29156,1.18433 0.72357,1.61565 l 8.32162,8.32162 c 0.43199,0.42999 1.00711,0.68678 1.61565,0.72022 0.60922,0.0341 1.20907,-0.15649 1.68655,-0.53566 l 7.17016,-5.73777 c 2.18667,1.21374 4.50328,2.17743 6.90532,2.87283 l 1.00711,9.07196 c 0.0669,0.60655 0.35576,1.16694 0.80984,1.57419 0.45472,0.40726 1.04322,0.63262 1.65377,0.63262 h 11.7724 c 0.61055,0 1.19903,-0.22536 1.65378,-0.63262 0.45406,-0.40725 0.74295,-0.96764 0.80984,-1.57419 l 1.01111,-9.07196 c 2.44894,-0.71019 4.80887,-1.69858 7.033722,-2.94507 l 7.03765,5.61725 c 0.47681,0.38118 1.07733,0.57244 1.68655,0.53899 0.60921,-0.0341 1.18432,-0.29156 1.61565,-0.72357 l 8.32162,-8.32162 c 0.42932,-0.43066 0.68545,-1.00444 0.71955,-1.61165 0.0341,-0.60788 -0.15649,-1.20639 -0.53499,-1.68252 z m -10.44426,6.54428 -5.89818,-4.71848 -0.27285,-0.325 c -0.38653,-0.46142 -0.92754,-0.76637 -1.5227,-0.85864 -0.59518,-0.0923 -1.20304,0.0348 -1.71128,0.35709 -2.743742,1.75869 -5.770472,3.0293 -8.947682,3.75568 -0.54568,0.12505 -1.0332,0.43066 -1.38226,0.86801 -0.34975,0.43735 -0.54168,0.9797 -0.54368,1.53942 l -0.84661,8.26957 h -7.33862 l -0.84661,-7.62348 v -0.65402 c -0.002,-0.56172 -0.19527,-1.10607 -0.54702,-1.54342 -0.35242,-0.43735 -0.84261,-0.74229 -1.39096,-0.86401 l -0.24876,-0.0602 c -2.99866,-0.71755 -5.86069,-1.9179 -8.47416,-3.55504 -0.44002,-0.27685 -0.95628,-0.40792 -1.47522,-0.37382 -0.51826,0.0341 -1.01313,0.23072 -1.41369,0.56241 l -6.73276,5.41678 -5.18806,-5.18806 4.90319,-6.13084 0.55371,-0.71821 c 0.30427,-0.39923 0.48016,-0.88138 0.50489,-1.38227 0.0254,-0.50155 -0.10164,-0.99841 -0.36445,-1.42639 -1.62435,-2.59532 -2.80538,-5.44281 -3.49478,-8.42605 -0.10633,-0.46611 -0.34573,-0.89208 -0.68879,-1.22511 -0.34372,-0.33302 -0.77571,-0.55972 -1.24516,-0.65268 l -0.82655,-0.1645 c -0.0689,-0.0147 -0.13843,-0.0254 -0.20865,-0.0321 l -7.75599,-0.86267 v -7.35471 l 7.88832,-0.88272 0.82254,-0.13642 c 0.48416,-0.0809 0.93288,-0.30359 1.29066,-0.63998 0.35709,-0.33636 0.60587,-0.77171 0.71554,-1.24986 0.68812,-2.99796 1.87373,-5.85949 3.50676,-8.4661 0.26147,-0.42866 0.38719,-0.9262 0.36112,-1.427067 -0.0268,-0.50155 -0.20463,-0.98303 -0.50958,-1.38159 l -5.4529,-6.8211 5.18806,-5.18806 6.01853,4.81486 0.67008,0.56975 c 0.41795,0.35576 0.94224,0.56308 1.49059,0.58849 0.54836,0.0254 1.09003,-0.13241 1.53875,-0.44806 l 0.15649,-0.11234 c 2.61603,-1.59893 5.47361,-2.76446 8.46217,-3.45061 0.54568,-0.12438 1.03386,-0.42999 1.38359,-0.86734 0.34975,-0.43735 0.54101,-0.98037 0.54235,-1.54009 l 0.85063,-8.27351 h 7.33862 l 0.84661,7.62348 v 0.65402 c 0.002,0.55972 0.19393,1.10207 0.54368,1.53942 0.34908,0.43735 0.83658,0.74295 1.38226,0.86801 3.07689,0.71821 6.02196,1.91464 8.727012,3.54699 0.45742,0.27886 0.9924,0.40191 1.52538,0.35109 0.53299,-0.0502 1.0352,-0.27217 1.43176,-0.63195 l 6.48795,-5.24011 5.18806,5.18806 -4.87512,6.09489 -0.0361,0.0441 -0.48149,0.63798 c -0.31229,0.44872 -0.47412,0.98504 -0.46209,1.53206 0.0127,0.546347 0.19794,1.075307 0.53032,1.509317 1.55145,2.5378 2.69289,5.30431 3.38247,8.19733 0.12772,0.53565 0.42999,1.01313 0.85931,1.35753 0.42932,0.34439 0.96164,0.53632 1.51199,0.54435 l 8.37384,0.86266 v 7.33468 l -7.69573,0.83458 -0.74631,0.0722 c -0.52095,0.0495 -1.01246,0.26213 -1.40433,0.60855 -0.39188,0.34573 -0.66472,0.80715 -0.77841,1.31739 -0.6908,3.10497 -1.89923,6.07144 -3.57506,8.77512 -0.29625,0.47881 -0.41996,1.04456 -0.35109,1.60295 0.0682,0.55905 0.325,1.07733 0.72825,1.47053 l 5.21614,6.41981 z"
       id="path2"
       style="stroke-width:0.171195" />
    <path
       d="m 34.186448,116.15346 c -10e-4,-0.65669 -0.26281,-1.28664 -0.72757,-1.75081 -0.46476,-0.4641 -1.09538,-0.72491 -1.75201,-0.72491 H -2.1418144 c -0.67408,-0.0274 -1.330767,0.22202 -1.817577,0.68945 -0.486845,0.46745 -0.761681,1.11344 -0.761681,1.78813 0,0.67475 0.274854,1.32074 0.761681,1.78814 0.486827,0.46739 1.143531,0.71687 1.817577,0.68945 H 31.722268 c 0.65469,-0.004 1.2813,-0.26749 1.74277,-0.73159 0.46209,-0.46476 0.72088,-1.09337 0.72088,-1.74807 z"
       id="path3"
       style="stroke-width:0.171195" />
    <path
       d="m 172.79107,113.66599 h -33.86408 c -0.67408,-0.0274 -1.33077,0.22203 -1.81758,0.68946 -0.48685,0.46745 -0.76168,1.11343 -0.76168,1.78813 0,0.6747 0.27485,1.32073 0.76168,1.78813 0.48683,0.4674 1.14353,0.71688 1.81758,0.68946 h 33.86408 c 0.67408,0.0274 1.33077,-0.22203 1.81758,-0.68946 0.48681,-0.46743 0.76168,-1.11343 0.76168,-1.78813 0,-0.6747 -0.27485,-1.32074 -0.76168,-1.78813 -0.48685,-0.46745 -1.14353,-0.71688 -1.81758,-0.68946 z"
       id="path4"
       style="stroke-width:0.171195" />
    <path
       d="m 34.213848,106.38336 c 0.65735,0.001 1.28796,-0.25946 1.75337,-0.72357 0.46476,-0.46476 0.72625,-1.09471 0.72625,-1.75201 V 30.480527 h 76.159522 v 18.742426 c 10e-4,0.65669 0.26282,1.28664 0.72758,1.75081 0.46476,0.46418 1.09538,0.72491 1.75201,0.72491 h 18.62944 v 52.209347 c 0.0348,0.86131 0.51425,1.64307 1.26657,2.06444 0.75232,0.42062 1.66982,0.42062 2.42207,0 0.75231,-0.4213 1.2318,-1.20304 1.26657,-2.06444 V 49.243743 c 0.002,-0.0214 0.002,-0.0428 0,-0.0642 0.004,-0.0589 0.004,-0.1177 0,-0.17654 v -0.12839 c 0,-0.0441 0,-0.0722 -0.0201,-0.10834 -0.0201,-0.0361 -0.0201,-0.0963 -0.0321,-0.14444 l -0.0241,-0.0923 c 0,-0.0481 -0.0321,-0.0963 -0.0522,-0.14444 -0.007,-0.0274 -0.016,-0.0542 -0.0281,-0.0802 -0.0201,-0.0482 -0.0441,-0.0963 -0.0642,-0.14043 -0.0107,-0.0281 -0.0241,-0.0548 -0.0401,-0.0802 -0.0241,-0.0482 -0.0522,-0.0923 -0.0802,-0.14044 -0.0281,-0.0481 -0.0281,-0.0441 -0.0441,-0.0682 -0.0328,-0.0522 -0.0689,-0.10164 -0.10834,-0.14845 -0.0107,-0.0167 -0.0227,-0.0328 -0.0361,-0.0481 -0.0535,-0.0682 -0.11101,-0.13241 -0.17253,-0.1926 L 117.0896,26.276975 c -0.0602,-0.06019 -0.12439,-0.116359 -0.18859,-0.17253 h -0.0281 c -0.0522,-0.04347 -0.10699,-0.08359 -0.1645,-0.120372 l -0.0722,-0.04414 -0.13642,-0.08426 -0.0803,-0.03611 -0.14043,-0.0642 -0.0802,-0.0321 -0.14846,-0.05216 h -0.0843 c -0.0481,0 -0.0963,-0.02809 -0.14845,-0.03611 h -0.24074 -0.24073 -62.335532 V 13.674112 h 97.267872 v 73.427251 c 0.0348,0.86132 0.51425,1.64308 1.26657,2.06444 0.75231,0.42063 1.66982,0.42063 2.42206,0 0.75232,-0.42129 1.2318,-1.20304 1.26657,-2.06444 V 11.195209 c 0,-0.659375 -0.26213,-1.2906572 -0.72891,-1.7561192 -0.46678,-0.465445 -1.0994,-0.725576 -1.75869,-0.723573 H 50.520718 c -0.65669,0.0013 -1.28663,0.262819 -1.75081,0.727579 -0.4641,0.46476 -0.72491,1.0953742 -0.72491,1.7520102 v 14.352305 h -13.83067 c -0.65669,0 -1.28597,0.260798 -1.75082,0.724908 -0.46409,0.46476 -0.7249,1.094039 -0.7249,1.750811 v 75.88561 c 0,0.65669 0.26079,1.28597 0.7249,1.75081 0.46476,0.46409 1.09404,0.72491 1.75082,0.72491 z M 117.8272,34.02779 130.49426,46.763163 H 117.8272 Z"
       id="path5"
       style="stroke-width:0.171195" />
    <path
       d="m 99.651428,45.401983 h -50.15501 c -0.86131,0.0348 -1.64307,0.51426 -2.06444,1.26657 -0.42062,0.75232 -0.42062,1.66982 0,2.42207 0.4213,0.75232 1.20304,1.2318 2.06444,1.26657 h 50.15501 c 0.674082,0.0274 1.330762,-0.22202 1.817572,-0.68945 0.48681,-0.46744 0.76168,-1.11344 0.76168,-1.78814 0,-0.67474 -0.27485,-1.32073 -0.76168,-1.78813 -0.48684,-0.46745 -1.14353,-0.71688 -1.817572,-0.68945 z"
       id="path6"
       style="stroke-width:0.171195" />
    <path
       d="m 99.651428,59.931303 h -24.45521 c -0.67408,-0.0274 -1.33077,0.22203 -1.81758,0.68946 -0.48684,0.46745 -0.76168,1.11343 -0.76168,1.78813 0,0.6747 0.27485,1.32074 0.76168,1.78813 0.48683,0.4674 1.14353,0.71688 1.81758,0.68946 h 24.45521 c 0.674082,0.0274 1.330762,-0.22203 1.817572,-0.68946 0.48681,-0.46743 0.76168,-1.11343 0.76168,-1.78813 0,-0.6747 -0.27485,-1.32074 -0.76168,-1.78813 -0.48684,-0.46745 -1.14353,-0.71688 -1.817572,-0.68946 z"
       id="path7"
       style="stroke-width:0.171195" />
    <path
       d="m 49.481018,59.931303 c -0.86132,0.0348 -1.64308,0.51426 -2.06444,1.26657 -0.42063,0.75232 -0.42063,1.66982 0,2.42207 0.42129,0.75232 1.20303,1.2318 2.06444,1.26657 h 11.70819 c 0.67408,0.0274 1.33077,-0.22202 1.81758,-0.68945 0.48681,-0.46743 0.76168,-1.11344 0.76168,-1.78814 0,-0.67469 -0.27485,-1.32073 -0.76168,-1.78813 -0.48684,-0.46745 -1.14353,-0.71688 -1.81758,-0.68945 z"
       id="path8"
       style="stroke-width:0.171195" />
    <path
       d="m 44.084948,168.0187 c -2.90021,-0.002 -5.68162,1.15022 -7.73322,3.1998 -2.05092,2.05041 -3.20392,4.83096 -3.2046,7.73117 -6.9e-4,2.90022 1.15089,5.68162 3.20117,7.73254 2.05041,2.05091 4.83096,3.20323 7.73117,3.20391 2.90022,0 5.68162,-1.15156 7.73185,-3.20186 2.05092,-2.0504 3.20323,-4.83164 3.20323,-7.73185 -0.003,-2.89833 -1.15556,-5.67683 -3.2046,-7.72654 -2.04903,-2.04972 -4.82684,-3.20323 -7.72517,-3.20717 z m 0,16.90824 c -1.58422,0 -3.10428,-0.62927 -4.22441,-1.75012 -1.12079,-1.12013 -1.75012,-2.64017 -1.75012,-4.22441 0,-1.58424 0.62927,-3.10428 1.75012,-4.22441 1.12013,-1.1208 2.64017,-1.75013 4.22441,-1.75013 1.58422,0 3.10428,0.62928 4.22441,1.75013 1.12079,1.12013 1.75012,2.64017 1.75012,4.22441 -0.002,1.58355 -0.63194,3.10222 -1.75201,4.22235 -1.12012,1.12013 -2.6388,1.75013 -4.22235,1.75201 z"
       id="path9"
       style="stroke-width:0.171195" />
    <path
       d="m 126.57013,168.0187 c -2.9009,-0.004 -5.68419,1.1442 -7.73784,3.19313 -2.05366,2.04835 -3.20923,4.82889 -3.21196,7.72979 -0.003,2.9009 1.14687,5.68351 3.19655,7.73648 2.04972,2.05228 4.83095,3.20648 7.73185,3.20785 2.9009,0.002 5.68282,-1.15022 7.73459,-3.20049 2.05177,-2.05027 3.2046,-4.83232 3.2046,-7.73322 -0.003,-2.89628 -1.15423,-5.67289 -3.20049,-7.72175 -2.04629,-2.04972 -4.82085,-3.2046 -7.71713,-3.21196 z m 0,16.90824 c -1.58422,-0.002 -3.10359,-0.63128 -4.22304,-1.75201 -1.11946,-1.12079 -1.74807,-2.64085 -1.74739,-4.22509 6.9e-4,-1.58422 0.63062,-3.10359 1.75133,-4.22304 1.1208,-1.12013 2.64017,-1.74944 4.22441,-1.74875 1.58422,0 3.10359,0.62994 4.22372,1.75012 1.12013,1.1208 1.74944,2.64017 1.74944,4.22441 -0.002,1.58489 -0.63262,3.1036 -1.75338,4.22372 -1.12076,1.12013 -2.64017,1.74945 -4.22509,1.75082 z"
       id="path10"
       style="stroke-width:0.171195" />
    <path
       d="m 67.300708,168.0187 c -0.65669,0.002 -1.28664,0.26282 -1.75082,0.72758 -0.46409,0.46476 -0.7249,1.09537 -0.7249,1.75201 v 16.90824 c -0.0274,0.67408 0.22202,1.33077 0.68945,1.81758 0.46743,0.48681 1.11343,0.76168 1.78813,0.76168 0.67475,0 1.32074,-0.27485 1.78813,-0.76168 0.46745,-0.48684 0.71688,-1.14353 0.68946,-1.81758 v -16.90824 c 0,-0.65736 -0.26147,-1.28864 -0.72625,-1.75338 -0.46477,-0.46475 -1.09604,-0.72625 -1.75338,-0.72625 z"
       id="path11"
       style="stroke-width:0.171195" />
    <path
       d="m 85.166618,168.0187 c -0.65669,0.002 -1.28664,0.26282 -1.75082,0.72758 -0.46409,0.46476 -0.7249,1.09537 -0.7249,1.75201 v 16.90824 c -0.0274,0.67408 0.22202,1.33077 0.68945,1.81758 0.46745,0.48684 1.11344,0.76168 1.78813,0.76168 0.67475,0 1.32074,-0.27485 1.78813,-0.76168 0.4674,-0.48683 0.71688,-1.14353 0.68946,-1.81758 v -16.90824 c 0,-0.65736 -0.26147,-1.28864 -0.72625,-1.75338 -0.46476,-0.46476 -1.09604,-0.72625 -1.75337,-0.72625 z"
       id="path12"
       style="stroke-width:0.171195" />
    <path
       d="m 103.03766,168.0187 c -0.65735,0 -1.28863,0.26146 -1.75338,0.72624 -0.46476,0.46476 -0.72624,1.09604 -0.72624,1.75338 v 16.90825 c -0.0274,0.67408 0.22202,1.33076 0.68945,1.81757 0.46745,0.48685 1.11344,0.76169 1.78814,0.76169 0.67469,0 1.32073,-0.27486 1.78813,-0.76169 0.46739,-0.48682 0.71688,-1.14353 0.68945,-1.81757 v -16.90825 c 0,-0.65669 -0.2608,-1.2873 -0.72491,-1.75201 -0.46409,-0.46476 -1.09404,-0.72624 -1.75081,-0.72758 z"
       id="path13"
       style="stroke-width:0.171195" />
  </g>
</svg>
