<?xml version="1.0" encoding="UTF-8" standalone="no"?>
<!-- Created with Inkscape (http://www.inkscape.org/) -->

<svg
   width="128px"
   height="128px"
   viewBox="0 0 128 128"
   version="1.1"
   id="svg1"
   sodipodi:docname="info.svg"
   inkscape:version="1.3.2 (091e20e, 2023-11-25)"
   xmlns:inkscape="http://www.inkscape.org/namespaces/inkscape"
   xmlns:sodipodi="http://sodipodi.sourceforge.net/DTD/sodipodi-0.dtd"
   xmlns="http://www.w3.org/2000/svg"
   xmlns:svg="http://www.w3.org/2000/svg">
  <defs
     id="defs1" />
  <sodipodi:namedview
     id="namedview1"
     pagecolor="#505050"
     bordercolor="#eeeeee"
     borderopacity="1"
     inkscape:showpageshadow="0"
     inkscape:pageopacity="0"
     inkscape:pagecheckerboard="0"
     inkscape:deskcolor="#505050"
     inkscape:zoom="1.84375"
     inkscape:cx="63.728814"
     inkscape:cy="64"
     inkscape:window-width="1312"
     inkscape:window-height="449"
     inkscape:window-x="0"
     inkscape:window-y="38"
     inkscape:window-maximized="0"
     inkscape:current-layer="svg1" />
  <path
     id="icon"
     style="fill:currentColor;stroke-width:1.07181"
     d="M 72.598378,1.8583532 C 55.863125,1.3755929 33.797311,8.7282478 22.042422,17.733812 7.574864,28.817584 -1.3632828,66.006279 1.8962402,83.633117 5.1557632,101.25996 31.651458,123.78682 50.113306,125.95111 c 7.653126,0.89718 18.027004,-1.1192 28.356629,-4.55063 V 43.304732 H 93.523479 V 115.40267 C 102.3008,111.28483 109.89578,106.57309 114.18401,102.3698 125.49813,91.279795 127.81418,57.357338 126.40337,42.929999 124.99257,28.502656 99.683469,8.971245 83.139243,3.5208461 80.037204,2.4988961 76.460355,1.9697597 72.598378,1.8583532 Z M 77.508983,13.384003 H 94.484435 V 28.656989 H 77.508983 Z" />
</svg>
