<?xml version="1.0" encoding="utf-8"?>
<!-- Generator: Adobe Illustrator 28.6.0, SVG Export Plug-In . SVG Version: 9.03 Build 54939)  -->
<svg version="1.1" id="Layer_2" xmlns="http://www.w3.org/2000/svg" xmlns:xlink="http://www.w3.org/1999/xlink" x="0px" y="0px"
	 viewBox="0 0 128 128" style="enable-background:new 0 0 128 128;" xml:space="preserve">
<polygon points="6.5,4.4 6.5,10.4 20.6,10.4 19.7,37.2 18,40 20,41 19,63 10.5,64 10.5,69.5 22.5,69.5 21.8,98.2 18,100 22.5,102.6 
	21,116 6.5,116 8.5,122.7 27.7,122.7 26,4 "/>
<path d="M51,6c-2.2,0-25-2-25-2l-1,7l22,2L24,38l1,6.1l27.4,19.3H22.5L26,70l26.4,14.8L26,97l-2,6l28,14H25.7c0,0-1.7,6-0.7,6
	s25-1,25-1l11-10l-28-11l31-15L39,69h11l8-10L33,39l22-24L51,6z"/>
<path d="M87.3,7.5C86,8,48.6,5.9,48.6,5.9L50,12l34,1L87.3,7.5z"/>
<path d="M47.6,64C49,63,71,62,71,62l3,62h-2.6l-4.4,3.3v-4.6L42,123l6-6l19,0l-2.5-49.7l-16.9,2.4V64z"/>
<polygon points="56.9,64.5 89,1 111,68 105,69 97,51 96,53 72,53 75,46 96,47 88,18 61,71 "/>
<path d="M121.5,14.5C121,14,88,13,88,13s0.2-6,1.1-5.5C90,8,121.5,8.1,121.5,8.1V14.5z"/>
<polygon points="120.7,66.5 69,69 70,60 119,61 "/>
<path d="M71,117c1,0,26-13,26-13l4-34l5,5l-2.5,33.4L71.4,124L71,117z"/>
<polygon points="120.5,124 71.4,124 73.4,117.4 121.5,118.3 "/>
</svg>
