<?xml version="1.0" encoding="utf-8"?>
<!-- Generator: Adobe Illustrator 28.2.0, SVG Export Plug-In . SVG Version: 6.00 Build 0)  -->
<svg version="1.1" id="Layer_1" xmlns="http://www.w3.org/2000/svg" xmlns:xlink="http://www.w3.org/1999/xlink" x="0px" y="0px"
	 viewBox="0 0 128 128" style="enable-background:new 0 0 128 128;" xml:space="preserve">
<style type="text/css">
	.st0{fill:#EDA01B;}
</style>
<path id="icon" fill="#EDA01B" d="M99.9,128c-4.5,0-8.1-0.8-11.8-2.5c-3.4-1.6-6.8-4.1-10.8-7.2c-3-2.8-7.2-6.7-9.9-9.7
	c-1.5-1.7-4.6-4.9-4.5-4.9c-0.5-0.5-1-0.9-1.4-1.3l-0.4-0.4l-0.2-0.2l0,0C55.7,97,51,92.6,46.4,88c-4.7-4.7-9.1-9.6-13.2-14.7
	c-3.7,3.8-5.3,8.4-5.2,14.4c0.3,10,7.5,20.1,23,20.1c2,0,5.3-0.9,8.4-2.2l14.5,14.1c-3.3,2.1-6.8,3.9-10.5,5.2
	c-2.7,1-5.5,1.7-8.4,2.2c-3.2,0.6-6.5,0.8-9.8,0.8c-3.7,0-7.4-0.3-11-0.9c-3.1-0.6-6.2-1.4-9.1-2.6c-5-1.9-9.4-4.9-13.1-8.8
	c-1.6-1.7-3-3.6-4.2-5.6c-1.1-1.9-2.1-3.9-2.9-5.9c-1.4-3.7-2.1-7.6-2.2-11.6c0-1.9,0.1-3.8,0.5-5.7c0.3-1.8,0.8-3.5,1.4-5.1
	c0.6-1.6,1.3-3.1,2.2-4.6c0.8-1.4,1.8-2.8,2.8-4.1c2.1-2.6,4.4-4.9,7-7c2.5-2,5.2-3.9,7.9-5.6c-1.6-2.7-2.9-5.5-3.9-8.5
	c-1-3.2-1.5-6.5-1.5-9.9c0-2.2,0.2-4.4,0.5-6.6c0.3-2.2,0.9-4.3,1.8-6.3c0.9-2,2.1-3.9,3.6-5.6c1.6-1.8,3.6-3.3,5.8-4.4
	c3.8,0.9,10.2,2.7,11.4,4.9c0.2,0.3,0.2,0.6,0,1c-0.3,0.7-1.2,1.6-2.8,2.6c-1.6,1-3.2,1.8-4.9,2.6c-3.1,1.4-6.1,2.5-6.7,2.7l0,0l0,0
	l0,0c0.5-0.1,2.9-0.5,5.9-0.9c3-0.4,7.3-0.9,10.3-0.9c1.8,0,2.9,0.2,3.4,0.5c0.4,0.2,0.6,0.6,0.6,1.1c0,0.6-0.2,1.2-0.6,1.7
	c-0.4,0.6-0.8,1.2-1.3,1.7c-0.6,0.6-1.3,1.3-1.9,1.8l0,0h0.2c-0.8,0.9-1.1,2.3-1.1,4.3c0,3.2,1.1,6.1,3.7,9.8
	c2.5,3.6,6.4,7.9,12.7,14.6c7.1,7.8,21.5,21.8,23.1,23.3l0,0c0.2-0.1,4.2-3,15.1-12.3c4.9-4.6,9.1-9,11.8-11.9
	c2.7-2.9,4.5-5,4.7-5.2l0,0c0,0,0,0,0,0l0,0c-0.3,0.7-3.1,7.4-6.7,15c-2.3,4.8-4.5,9-6.6,12.6c-2.6,4.5-5,8-7.1,10.5
	c14,12.4,25.5,21.1,31.5,23.8c-0.4,0.5-1.3,1.1-2.5,1.6c-1.6,0.7-3.3,1.3-5.1,1.8c-3.4,0.9-9.2,2-17.2,2
	C100.3,128,100.1,128,99.9,128z M73.3,53.8L73.3,53.8c-1.6-1.6-3.2-3.8-4.9-6.2l0,0l0,0l0,0c-1.9-2.7-3.9-5.5-6.2-7.7
	c-2.6-2.5-5.2-3.7-7.8-3.7c-0.7,0-1.4,0-1.9,0h0h-0.1c-0.5,0-1,0-1.5,0c-1.1,0-2.1,0-3.2,0.1c0.7-0.9,1.3-1.9,1.7-2.9
	c0.5-1.2,0.5-2.1,0-2.8c-0.5-0.7-2-1.1-4.4-1.1c-2.3,0-4.6,0.3-6.9,0.7h0l0,0h0c1.1-0.5,2.2-1,3.3-1.6c0.9-0.5,1.7-1,2.5-1.6
	c0.8-0.6,1.3-1.2,1.5-1.8c0.1-0.4,0.1-0.8-0.1-1.1c-0.3-0.6-1.1-1.3-2.3-2c-1.2-0.7-2.4-1.3-3.7-1.8c-0.9-0.4-2-0.8-3.1-1.2
	c-2-0.4-5.9-1.2-8.7-2.3c-1.5-0.6-2.9-1.3-4.2-2.3c-0.5-0.3-1-0.7-1.4-1.2c0.6,0.3,1.3,0.6,2,0.8c2.2,0.6,4.4,1,6.6,1.2
	c0.8,0.1,1.6,0.1,2.5,0.1c3.6-0.1,7.2-0.4,10.7-1.1c-0.9-0.5-1.6-1.1-2.3-1.5C39.1,11.1,37,9.3,35,7.2c-0.7-0.8-1.4-1.6-2.1-2.5
	c0.1,0,6.2,3.4,12,5.1c1.9,0.6,3.9,0.9,5.9,0.9c1,0,1.9,0.1,2.9,0.3c-0.1-0.2-0.3-0.4-0.4-0.6c-1.6-2.3-3-4.8-4.1-7.4
	c-0.4-1-0.8-2-1.1-3c0,0.1,4.7,5.3,9.5,8.9c1.6,1.2,3.3,2.2,5.2,2.9c1.5,0.6,2.8,1.1,4.7,2.9c1,1,1.8,2.1,2.4,3.3
	c1-0.7,2.1-1.8,3.4-3.4c1.5,8.9,6,17.5,9.5,23.2C85,41.5,87.4,45,90,48.2l-4.3,3.7h0c0,0-0.2,0-0.4,0c-1.1,0-4.1,0-6.8,0.3
	c-1.2,0.1-2.4,0.3-3.6,0.6C73.8,53.1,73.3,53.4,73.3,53.8L73.3,53.8L73.3,53.8z"/>
</svg>
