<?xml version="1.0" encoding="utf-8"?>
<!-- Generator: Adobe Illustrator 28.3.0, SVG Export Plug-In . SVG Version: 6.00 Build 0)  -->
<svg version="1.1" id="Layer_1" xmlns="http://www.w3.org/2000/svg" xmlns:xlink="http://www.w3.org/1999/xlink" x="0px" y="0px"
	 viewBox="0 0 128 128" style="enable-background:new 0 0 128 128;" xml:space="preserve">
<path 
fill="currentColor"
id="icon"
d="M12.8,64c0,1.7,0.7,3.3,1.9,4.5s2.8,1.9,4.5,1.9h48.6L53.1,85.1c-1.2,1.2-1.9,2.8-1.9,4.5c0,1.7,0.7,3.3,1.9,4.5
	c1.2,1.2,2.8,1.9,4.5,1.9s3.3-0.7,4.5-1.9l25.6-25.6c0.6-0.6,1-1.3,1.3-2.1c0.6-1.6,0.6-3.3,0-4.9c-0.3-0.8-0.8-1.5-1.3-2.1
	L62.1,33.9c-1.6-1.6-4-2.3-6.2-1.7c-2.2,0.6-3.9,2.3-4.5,4.5c-0.6,2.2,0,4.6,1.7,6.2l14.7,14.7H19.2c-1.7,0-3.3,0.7-4.5,1.9
	C13.5,60.7,12.8,62.3,12.8,64z M96,0H32c-5.1,0-10,2-13.6,5.6s-5.6,8.5-5.6,13.6v19.2c0,2.3,1.2,4.4,3.2,5.5c2,1.1,4.4,1.1,6.4,0
	c2-1.1,3.2-3.3,3.2-5.5V19.2c0-1.7,0.7-3.3,1.9-4.5c1.2-1.2,2.8-1.9,4.5-1.9h64c1.7,0,3.3,0.7,4.5,1.9c1.2,1.2,1.9,2.8,1.9,4.5v89.6
	c0,1.7-0.7,3.3-1.9,4.5c-1.2,1.2-2.8,1.9-4.5,1.9H32c-1.7,0-3.3-0.7-4.5-1.9c-1.2-1.2-1.9-2.8-1.9-4.5V89.6c0-2.3-1.2-4.4-3.2-5.5
	c-2-1.1-4.4-1.1-6.4,0c-2,1.1-3.2,3.3-3.2,5.5v19.2c0,5.1,2,10,5.6,13.6C22,126,26.9,128,32,128h64c5.1,0,10-2,13.6-5.6
	s5.6-8.5,5.6-13.6V19.2c0-5.1-2-10-5.6-13.6S101.1,0,96,0L96,0z"/>
</svg>
