<?xml version="1.0" encoding="UTF-8"?>
<svg id="Layer_1" xmlns="http://www.w3.org/2000/svg" version="1.1" viewBox="0 0 128 128">
  <!-- Generator: Adobe Illustrator 29.8.2, SVG Export Plug-In . SVG Version: 2.1.1 Build 3)  -->
  <path id="icon" d="M107.4,50.8c-.1,1.2-.3,2.4-.5,3.6-.8,5.5-2.8,10.7-5.8,15.4-4.3,7.1-10.1,13-16.4,18.5-8.2,6.9-17,13.1-26.2,18.5-.2-.4-.4-.8-.5-1.2-4.1-9-9.7-17.2-16.7-24.1-3.7-3.7-7.4-7.2-11.1-10.9h0c-2.9-2.9-5.4-6.2-7.1-9.9-2.1-4.8-2.9-10-2.4-15.1.2-3.7,1.4-7.3,3.5-10.5,1.4-2.1,3.3-3.9,5.4-5.2s4.5-2.2,7-2.6c6.2-1.4,12.6-.5,18.1,2.6,3.3,1.7,6,4.2,7.9,7.3l.7-1.4h0c1.7-3.4,4-6.5,6.8-9.2,2-1.9,4.4-3.4,7.1-4.3,2.6-.9,5.4-1.2,8.2-.8,5.6.5,10.9,3,14.8,7,3.7,3.9,6.1,8.8,6.9,14.1,0,.7.2,1.3.3,2v6.4Z"/>
</svg>