<?xml version="1.0" encoding="utf-8"?>
<!-- Generator: Adobe Illustrator 28.5.0, SVG Export Plug-In . SVG Version: 9.03 Build 54727)  -->
<svg version="1.1" id="Layer_1" xmlns="http://www.w3.org/2000/svg" xmlns:xlink="http://www.w3.org/1999/xlink" x="0px" y="0px"
	 viewBox="0 0 128 128" style="enable-background:new 0 0 128 128;" xml:space="preserve">
<g id="icon" fill="currentColor">
	<path d="M55.8,13.1c0.4,3.7,1.9,7.4,4.4,11.3c0.8,1.2,1.6,2.3,2.4,3.5c1.4,2,2.9,4.1,4.2,6.3c0.5,0.8,0.9,1.7,1.4,2.7l0,0
		c0,0,0,0.1,0,0.1l0.1,0.2c0,0,0,0,0,0.1l0.1,0.3c0,0,0,0,0,0.1c0.2,0.7,0.5,1.2,0.7,1.8c0.7,2,1.2,4.1,1.6,6.2
		c0,0.2,0.1,0.4,0.1,0.5c0,0,0,0,0,0.1c0,0.1,0,0.2,0,0.4c0.1,0.6,0.1,1.2,0.2,1.9c0,0.6,0.1,1.2,0.1,1.8h5.1
		c-0.1-4.9-1-9.7-2.8-14.1c-0.4-0.9-0.7-1.7-1.2-2.6c-0.3-0.6-0.3-1.3,0.1-1.8c0.2-0.3,0.4-0.6,0.6-0.9c0.2-0.2,0.4-0.5,0.5-0.7
		c0.1-0.1,0.2-0.2,0.3-0.4l0.1-0.2c0,0,0-0.1,0.1-0.1c0.8-1,1.7-1.9,2.6-2.8c0.5-0.4,1-0.8,1.3-1.2l0.2-0.2c0,0,0.1-0.1,0.1-0.1
		c0.2-0.2,0.5-0.4,0.8-0.6c1.1-0.8,2.3-1.5,3.5-2.1c0.3-0.1,0.5-0.3,0.8-0.4l0.2-0.1c0.1,0,0.2-0.1,0.3-0.1h0c0,0,0,0,0.1,0
		c0,0,0,0,0,0h0l0.1-0.1l0,0c0.5-0.2,0.9-0.3,1.3-0.5c1.2-0.4,2.5-0.7,3.6-0.9l0.1,0c0.1,0,0.1,0,0.2,0h0c0.1,0,0.2,0,0.3,0
		c0.1,0,0.3,0,0.4-0.1c0.6-0.1,1.2-0.1,1.9-0.1c1,0,2.1,0,3.4,0.2c0.1,0,0.2,0,0.3,0.1c0.1,0,0.2,0,0.3,0.1c0.3,0,0.5,0.1,0.7,0.1
		c0.6,0.1,1.2,0.3,1.8,0.4s1.2,0.4,1.8,0.6c0.2,0.1,0.4,0.1,0.5,0.2l0.2,0.1c0.1,0,0.1,0,0.1,0.1c0.1,0,0.2,0.1,0.3,0.1
		c0,0,0.1,0.1,0.1,0.1l0.1,0.1c0.9,0.5,1.8,0.9,2.7,1.5c0.2,0.2,0.5,0.3,0.7,0.5c0,0,0.1,0.1,0.1,0.1c0.1,0.1,0.4,0.3,0.5,0.4
		c0,0,0.1,0.1,0.1,0.1l0.2,0.2c0.3,0.3,0.6,0.6,0.9,0.8c0.5,0.5,0.9,0.9,1.3,1.4c0.1,0.2,0.3,0.3,0.4,0.5c0,0.1,0.1,0.1,0.1,0.2
		l0.1,0.1c0.7,1,1.3,2,1.8,3.1l0.1,0.1c0,0.1,0.1,0.1,0.1,0.2c0.1,0.3,0.2,0.5,0.3,0.8c0.2,0.5,0.3,1,0.5,1.5
		c0.2,0.6,0.3,1.2,0.4,1.8c0,0.2,0.1,0.4,0.1,0.5l0,0.2c0,0.1,0,0.3,0,0.4c0,0,0,0,0,0.1c0.1,1.3,0.1,2.6,0,3.7c0,0.2,0,0.3,0,0.5v0
		c0,0.1-0.1,0.3-0.1,0.5c0,0.2-0.1,0.4-0.1,0.6c-0.1,0.7-0.3,1.3-0.5,2c-0.1,0.2-0.2,0.5-0.3,0.8c0,0.1-0.1,0.2-0.2,0.4
		c-0.1,0.1-0.1,0.2-0.1,0.3s0,0.1-0.1,0.1l-0.2,0.4c-0.1,0.3-0.3,0.6-0.5,0.9c-0.2,0.3-0.4,0.6-0.5,0.9c0,0-0.1,0.1-0.2,0.2
		l-0.1,0.1c0,0.1-0.1,0.1-0.1,0.2c-0.1,0.1-0.3,0.3-0.3,0.4c-0.1,0.1-0.1,0.1-0.1,0.1l0,0c-0.3,0.3-0.6,0.7-0.8,0.9
		c-0.5,0.5-0.8,1.2-0.7,2c0,0.4,0.1,1.1,0.7,1.6c1,0.9,2.6,1.2,3.7,0.1c7.4-7.5,7.7-20.7,0.6-29.4c-6.5-8-19.1-11-29.4-7
		c-4.8,1.9-9,4.9-12.2,8.8c-0.4,0.5-1,0.7-1.5,0.7c-0.6,0-1.1-0.3-1.5-0.8l-0.1-0.2C66,24.1,65,22.6,64,21c-0.6-0.9-1.1-1.8-1.5-2.6
		c-0.2-0.4-0.4-0.8-0.6-1.2l0,0c-0.1-0.1-0.1-0.3-0.1-0.4c0,0,0,0,0-0.1c-0.2-0.4-0.2-0.5-0.3-0.7c-0.2-0.5-0.3-1.1-0.5-1.6
		c0-0.1-0.1-0.2-0.1-0.4c0-0.1,0-0.2-0.1-0.3c0-0.1,0-0.2-0.1-0.2c0-0.1-0.1-0.3-0.1-0.4c-0.1-1.1-0.1-2.2,0-3.5V9.7
		c0-0.1,0-0.1,0-0.2v0c0.1-0.4,0.1-0.7,0.2-1c0.1-0.6,0.3-1.1,0.5-1.7c0.1-0.2,0.2-0.5,0.2-0.7v0c0-0.1,0.1-0.1,0.1-0.1l0.2-0.4
		c0,0,0-0.1,0-0.1c0.3-0.6,0.6-1.1,1-1.7c0.3-0.5,0.4-1.2,0.2-1.9s-0.6-1.2-1.1-1.5c-1.4-0.7-2.9-0.3-3.6,0.9
		C56.4,4.9,55.3,9.2,55.8,13.1z"/>
	<path d="M86.7,102.3h16.7h11.3c-0.9-6.8-6.8-12.2-13.9-12.2l0,0l0,0l0,0l0,0c-0.1,0-0.1,0-0.1,0C93.6,90,87.6,95.4,86.7,102.3z"/>
	<path d="M32.2,36.3C32.1,36.3,32.1,36.3,32.2,36.3C32.1,36.3,32.1,36.3,32.2,36.3z"/>
	<path d="M109.7,106.1c-0.9,4.2-4.6,7.3-9,7.3c-4.4,0-8.1-3.1-9-7.3h-5.1c0.8,6.5,6,11.5,12.7,12.2l0,0c0.5,0.1,0.9,0.1,1.4,0.1
		c7.2,0,13.1-5.4,14-12.3L109.7,106.1L109.7,106.1z"/>
	<path d="M28.2,12.2c0,0,0.1,0,0.1,0C28.3,12.1,28.2,12.2,28.2,12.2z"/>
	<path d="M15.1,66.5c0.7,0.2,1.5,0.1,2-0.2c1.3-0.8,1.7-2.3,1-3.7c-0.2-0.3-0.3-0.7-0.5-1c0-0.1-0.1-0.1-0.1-0.2l-0.1-0.2
		c-0.2-0.6-0.4-1.2-0.6-1.9c-0.2-0.6-0.3-1.2-0.4-1.8c0-0.1-0.1-0.2-0.1-0.3l0-0.3c0-0.3-0.1-0.6-0.1-0.9c-0.1-1.2,0-2.3,0.1-3.4
		l0-0.4c0-0.1,0-0.2,0-0.3l0.1-0.4c0-0.2,0.1-0.4,0.1-0.5c0.2-0.8,0.4-1.6,0.6-2.4c0.2-0.5,0.3-1,0.5-1.4l0.1-0.3
		c0-0.1,0.1-0.1,0.1-0.2l0.1-0.1c0.1-0.1,0.1-0.2,0.1-0.3c0.1-0.1,0.1-0.3,0.2-0.4c0.3-0.6,0.7-1.2,1-1.8c0.1-0.2,0.3-0.5,0.5-0.7
		c0.1-0.2,0.2-0.3,0.4-0.5l0,0c0,0,0-0.1,0.1-0.1l0,0c0,0,0-0.1,0.1-0.1l0.1-0.1c0.8-0.9,1.6-1.8,2.6-2.6c0,0,0,0,0.1,0l0,0
		c0.1-0.1,0.1-0.1,0.2-0.2l0,0l0,0c0.1-0.1,0.3-0.2,0.4-0.3c0.2-0.1,0.3-0.2,0.5-0.3c0.6-0.4,1.2-0.7,1.9-1.1c0.3-0.2,0.7-0.3,1-0.5
		c0.1,0,0.1,0,0.1-0.1l0.2-0.1c0.6-0.2,1.3-0.4,2-0.7c0.6-0.2,1.2-0.3,1.9-0.4c0.2,0,0.4-0.1,0.6-0.1c0.1,0,0.2,0,0.2,0
		c0.1,0,0.3,0,0.4,0c0.1,0,0.2,0,0.3,0c1.3-0.1,2.7-0.1,4,0.1c0,0,0,0,0,0c0.1,0,0.2,0,0.3,0l0,0l0.3,0.1c0.2,0,0.4,0.1,0.5,0.1
		c0.8,0.2,1.7,0.4,2.5,0.6c0.3,0.1,0.5,0.2,0.8,0.3c0,0,0.1,0,0.1,0c0.1,0,0.3,0.1,0.5,0.2c0.1,0,0.1,0,0.1,0.1
		c0.2,0.1,0.4,0.2,0.5,0.2c0,0,0.1,0,0.1,0.1c0.2,0.1,0.5,0.2,0.8,0.4c0.6,0.4,1.2,0.7,1.8,1.1c0.1,0.1,0.2,0.1,0.3,0.2l0.1,0.1
		c0.1,0.1,0.1,0.1,0.2,0.2c0.1,0.1,0.2,0.1,0.2,0.2c0.2,0.1,0.3,0.3,0.4,0.3c0.5,0.4,0.9,0.8,1.3,1.3c0.2,0.2,0.3,0.4,0.5,0.5
		c0.1,0.1,0.2,0.2,0.3,0.3c0.1,0.1,0.1,0.2,0.2,0.3c0,0,0,0,0.1,0.1c0.8,1.1,1.4,2.1,2,3.3c0.1,0.2,0.2,0.5,0.4,0.8
		c0,0.1,0.1,0.1,0.1,0.1l0,0.1c0.1,0.2,0.2,0.4,0.2,0.6c0.2,0.7,0.4,1.3,0.6,2c0.1,0.2,0.1,0.5,0.2,0.7h5.3
		c-0.3-1.6-0.8-3.2-1.4-4.7c-2.5-6.1-6.9-10.6-12.7-13c-5.3-2.2-11.8-2.3-17.2-0.2c-0.7,0.3-1.5,0.1-2-0.4L24,32
		c-0.1-0.1-0.2-0.2-0.2-0.2c-0.2-0.2-0.3-0.4-0.5-0.5L23.1,31l0,0c-0.1-0.1-0.2-0.3-0.3-0.4c0-0.1-0.1-0.1-0.1-0.1
		c-0.4-0.6-0.7-1.2-1-1.8l0,0c0-0.1-0.1-0.1-0.1-0.1c-0.1-0.1-0.1-0.2-0.1-0.3L21.4,28c-0.1-0.3-0.2-0.6-0.3-0.9
		c-0.2-0.6-0.3-1.2-0.5-2c0,0,0-0.1,0-0.1c0-0.1,0-0.3-0.1-0.5c0-0.4-0.1-0.7-0.1-1.1c0-0.3,0-0.6,0-0.9c0-0.1,0-0.2,0-0.3V22
		c0-0.1,0-0.3,0.1-0.4l0.1-0.3c0.1-0.6,0.3-1.2,0.5-1.9c0-0.1,0.1-0.2,0.2-0.4c0.1-0.1,0.1-0.2,0.1-0.3c0-0.1,0.1-0.1,0.1-0.2
		l0.1-0.2c0.1-0.1,0.1-0.2,0.1-0.3c0.2-0.4,0.4-0.8,0.7-1.1c0,0,0.1-0.1,0.2-0.3l0.1-0.2c0-0.1,0.1-0.1,0.1-0.1L23,16
		c0.1-0.1,0.2-0.3,0.2-0.3c0.3-0.3,0.6-0.6,0.9-0.9c0.1-0.1,0.3-0.2,0.4-0.4c0.1-0.1,0.2-0.2,0.3-0.2c0.1-0.1,0.2-0.2,0.4-0.3
		l0.1-0.1c0.5-0.4,1.2-0.8,2-1.2c0.2-0.1,0.3-0.2,0.5-0.2l0.1-0.1c0.1,0,0.2-0.1,0.3-0.1c0.1,0,0.2-0.1,0.3-0.1
		c0.2-0.1,0.3-0.1,0.4-0.1c0.7-0.2,1.4-0.4,2.1-0.5l0.1,0c0.1,0,0.3-0.1,0.4-0.1c0,0,0.1,0,0.1,0h0.3c0.3,0,0.6,0,0.9,0
		c0.7,0,1.4-0.3,1.9-0.9c0.3-0.3,0.7-0.9,0.7-1.6c-0.1-1.3-1-2.7-2.6-2.7c-7.4-0.1-14.3,4.9-16.6,12c-1.8,5.3-0.6,11.2,3.1,16
		c0.6,0.8,0.5,1.9-0.2,2.6c-2.7,2.4-4.9,5.5-6.3,9c-2.5,6.2-2.1,13.6,0.9,19.7C13.8,65.9,14.4,66.3,15.1,66.5z"/>
	<path d="M46,40.3c-0.1-0.1-0.2-0.3-0.3-0.4C45.9,40.1,46,40.2,46,40.3z"/>
	<path d="M71.6,85.8c6.1,0,11.2-4.5,12.1-10.4h-4.3c-0.8,3.6-4,6.2-7.8,6.2s-7-2.6-7.8-6.2h-4.3C60.3,81.3,65.4,85.8,71.6,85.8z"/>
	<path d="M82.3,67.7L82.3,67.7c-0.2-0.4-0.4-0.7-0.6-1l0,0l0,0c-0.1-0.2-0.2-0.3-0.4-0.5c-0.5-0.6-1-1.2-1.6-1.7
		c-0.7-0.7-1.5-1.2-2.4-1.7l0,0c-0.4-0.2-0.7-0.4-1.1-0.5l0,0c-0.5-0.2-1-0.4-1.4-0.5c-1.1-0.3-2.2-0.5-3.3-0.5
		c-0.7,0-1.4,0.1-2.1,0.2c-0.2,0.1-0.5,0.1-0.7,0.1l0,0c-1.1,0.2-2.1,0.6-3,1.1l0,0c-0.9,0.5-1.7,1-2.4,1.7
		c-0.6,0.5-1.1,1.1-1.6,1.7l0,0c-0.1,0.2-0.2,0.3-0.4,0.5c-0.2,0.3-0.4,0.7-0.6,1c-0.7,1.2-1.1,2.6-1.3,3.9h24.3
		C83.4,70.3,83,68.9,82.3,67.7z"/>
	<path d="M85.6,128c4,0,7.7-2,9.9-5.4c0.2-0.4,0.5-0.7,0.7-1.1c-3.3-0.9-6.4-2.7-8.7-5.3c-3-3.3-4.7-7.6-4.7-12.1
		c0-9,6.7-16.5,15.4-17.8c-4-9.6-6-19.6-6-29.5v-0.5c0-1.2-1-2.2-2.2-2.2H78.2h-8.9h-9.6l0,0l0,0h-9h0l0,0H38.3
		c-1.2,0-2.2,1-2.2,2.2v0.5c0,7.7-1.2,15.5-3.6,23.1c0.7-0.1,1.3-0.1,2-0.1c4.9,0,9.6,1.7,13.4,4.8c2.3,1.9,4.3,4.4,5.6,7.1l0,0
		c0.3,0.6,0.6,1.2,0.8,1.9l0,0c0.8,2.3,1.3,4.8,1.3,7.2c0,11.6-9.4,21-21,21c-0.8,0-1.5-0.1-2.3-0.1c0.2,0.3,0.4,0.6,0.6,0.9
		c2.2,3.3,5.9,5.4,9.9,5.4L85.6,128L85.6,128z M57.4,65.9c0.2-0.5,0.5-0.9,0.8-1.3l0,0l0,0c0.1-0.2,0.3-0.4,0.4-0.6l0,0
		c0.6-0.8,1.3-1.6,2.1-2.3c1-0.9,2-1.6,3.2-2.2c1.2-0.7,2.6-1.2,4-1.5l0,0c0,0,0,0,0.1,0l0,0l0,0c1.2-0.3,2.4-0.4,3.6-0.4
		c1.4,0,2.7,0.2,4,0.5c0.8,0.2,1.5,0.5,2.3,0.8l0,0c0.5,0.2,1,0.4,1.4,0.7l0,0c1.1,0.6,2.2,1.4,3.2,2.2c0.8,0.7,1.5,1.5,2.1,2.3l0,0
		l0,0c0.2,0.2,0.3,0.4,0.4,0.6l0,0l0,0l0,0l0,0c0.3,0.4,0.6,0.9,0.8,1.3l0,0c1.3,2.3,2,5,2,7.7c0,8.9-7.2,16.1-16.1,16.1
		s-16.1-7.2-16.1-16.1C55.4,70.9,56.1,68.2,57.4,65.9z"/>
	<path d="M46.2,41.7c0.1-0.2,0.1-0.4,0.1-0.7C46.3,41.3,46.3,41.5,46.2,41.7z"/>
	<path d="M18.9,93.4c-0.2,0.5-0.5,1-0.7,1.5c-0.5,1.3-0.8,2.6-0.9,4h7.4h26.8c-0.2-1.4-0.5-2.7-0.9-4l0,0l0,0
		c-0.2-0.5-0.4-1-0.7-1.5l0,0c-1.1-2.2-2.7-4.2-4.6-5.8c-3.1-2.5-7-3.9-10.9-3.9c-1.1,0-2.3,0.1-3.4,0.4c-0.3,0.1-0.6,0.1-1,0.2l0,0
		c-2.4,0.6-4.6,1.8-6.6,3.4C21.6,89.2,20,91.2,18.9,93.4L18.9,93.4z"/>
	<path d="M29.1,117.2c1.7,0.6,3.5,0.8,5.4,0.8c8.9,0,16.1-6.7,17.1-15.3h-6.4c-0.9,5.1-5.4,9-10.7,9s-9.8-3.9-10.7-9h-6.4
		C18.1,109.4,22.6,115.1,29.1,117.2z"/>
</g>
</svg>
