<?xml version="1.0" encoding="utf-8"?>
<!-- Generator: Adobe Illustrator 28.2.0, SVG Export Plug-In . SVG Version: 6.00 Build 0)  -->
<svg version="1.1" id="Layer_1" xmlns="http://www.w3.org/2000/svg" xmlns:xlink="http://www.w3.org/1999/xlink" x="0px" y="0px"
	 viewBox="0 0 128 128" style="enable-background:new 0 0 128 128;" xml:space="preserve">

<g fill="currentColor" id="icon">
	<path style="fill-rule:evenodd;clip-rule:evenodd;" d="M63.9,14.3c27.9,0,50.1,22.3,50.1,50.1c0,8.4-2,16.3-5.6,23.5c-4,2.4-4-2.8-11.1-2.8c-0.8,0-1.6,5.2-8.4,3.2
		c-3.6-1.2,1.2,7.6-10.3,4.4c-9.9-3.2-0.4,5.2-14.3,0.8c-6-1.6-4.8,1.2-11.5,1.2c-0.4,0-13.5-0.8-8.8,0.4c0,0.8,14.3-0.8,18.7,2.4
		c2,1.2,7.6-1.2,11.5,1.6c7.2,5.2,7.2-8.4,14.7,2.8c2.8,3.2,6-2.8,9.9-1.2c-9.2,8.8-21.5,13.9-35,13.9c-27.9,0-50.5-22.3-50.5-50.1
		c0-1.2,0.4-2.4,0.4-3.6c2.4,0.8,5.6-2,8-0.8c3.6,1.2,10.7,2,13.9,0.4c4.4-2.4,8,4.4,10.3,0.8c8-10.7,7.6,2.4,15.1-2.8
		c3.6-2.8,9.6-0.4,11.1-1.6c4.8-2.8,18.7-1.6,19.1-2c4.4-1.6-8.8-0.8-8.8-0.8c-7.2,0-5.6-2.8-11.9-0.8c-13.9,4-4-4-14.3-1.2
		c-11.1,3.2-6.4-5.6-10.3-4.4c-6.4,2-7.6-3.2-8.4-3.2c-8.8,0.4-6.8,9.2-15.5-2c-0.8-0.8-2-0.8-3.2-0.4C26.8,25.4,44,14.3,63.9,14.3z
		 M34.4,119.7l0.4,2c0,0-1.6,0-3.2,1.2c-2,1.2-2.8,3.6-2.4,4c0,0.8,0.8-0.8,2-0.8s1.2,1.2,1.6,1.2c0.4-0.4,1.2-1.6,2.4-1.6
		c0.8,0,1.6,1.2,2,0.8c0,0,0.8-0.8,1.6-0.8c0.8,0,2,1.2,2.4,0.8c0,0-0.8-1.6-0.4-2.4s1.2-1.2,1.2-1.6c0.4,0-0.8-1.2-0.4-2
		c0.4-0.8,1.6-1.6,2-1.6c0.4-0.4-0.8-0.8-0.4-2c0.4-1.2,2-1.6,1.2-2c-0.4,0-2.8,0-4.4,1.6c-1.6,1.2-2,2.8-2,2.8l-1.6-0.8
		C36.4,119.3,35.2,120.1,34.4,119.7z M19.3,100.2l-1.2,1.2c0,0-0.8-1.6-2.8-2c-2.4-0.8-4.4,0-4.8,0.4c-0.4,0.4,1.2,0,2,1.2
		c0.8,0.8-0.4,2,0,2c0.4,0,1.6,0,2.4,0.8c0.8,0.8,0,2,0.4,2.4c0.4,0,1.2,0,2,0.8c0.4,0.4,0,2,0.4,2.4c0.4,0,1.2-1.6,2-1.6
		c0.8-0.4,1.6,0,1.6,0c0.4,0,0.8-1.2,1.6-1.6c1.2,0,2.4,0.4,2.8,0.8c0,0,0-1.2,1.2-1.6s2.4,0.4,2,0c0-0.4-1.6-2.4-3.6-2.8
		c-2-0.8-3.6,0-3.6,0v-2C20.9,101,19.3,100.6,19.3,100.2z M119.2,37.4V39c0,0-1.2-0.4-2.8,0.8c-1.6,0.8-2.4,2.4-2.4,3.2
		c0,0.4,0.8-0.8,1.6-0.8c1.2,0.4,1.2,1.2,1.6,1.2c0,0,0.8-0.8,2-0.8c0.8-0.4,1.2,0.8,1.6,0.8c0,0,0.8-0.8,1.2-0.4
		c0.8,0,1.6,1.2,2,0.8c0.4,0-0.4-1.2,0-2s1.2-0.8,1.2-1.2c0.4,0-0.4-1.2,0-1.6c0.4-0.8,1.6-1.2,2-1.2c0-0.4-0.8-0.8-0.4-2
		c0.4-0.8,1.6-1.2,1.2-1.2c-0.4-0.4-2-0.4-3.6,0.4c-1.6,1.2-2,2.4-2,2.4c-0.4,0-1.6-0.8-1.6-0.8C120.8,37,119.6,37.8,119.2,37.4z
		 M121.6,53.7l-0.4,0.8c0,0-0.4-0.8-1.2-1.2c-1.2,0-2,0-2.4,0.4c0,0,0.4,0,0.8,0.4s0,0.8,0,1.2c0.4,0,0.8,0,1.2,0.4s0,0.8,0.4,0.8
		c0,0,0.4,0,0.8,0.4c0,0.4,0,1.2,0.4,1.2c0,0,0.4-0.4,0.8-0.8c0.4,0,0.8,0,0.8,0c0,0.4,0.4-0.4,0.8-0.4c0.4-0.4,0.8,0,1.2,0
		c0,0,0-0.4,0.4-0.8c0.8,0,1.2,0.4,1.2,0c0,0-0.8-0.8-1.6-1.2c-1.2-0.4-2,0-2,0v-0.8C122.7,54.1,122,54.1,121.6,53.7z"/>
</g>
</svg>
