<?xml version="1.0" encoding="utf-8"?>
<!-- Generator: Adobe Illustrator 28.2.0, SVG Export Plug-In . SVG Version: 6.00 Build 0)  -->
<svg version="1.1" id="Layer_1" xmlns="http://www.w3.org/2000/svg" xmlns:xlink="http://www.w3.org/1999/xlink" x="0px" y="0px"
	 viewBox="0 0 128 128" style="enable-background:new 0 0 128 128;" xml:space="preserve">
<g id="icon">
<path style="fill:none;stroke:currentColor;stroke-width:5;stroke-miterlimit:10;" d="M73.5,117.5c22.4-6.4,41.6-27.6,42-59c0.3-21.3-12.5-48.5-34-52c-13.2-2.2-37.2,1.6-43,14c-2.3,5-5.9,20.3-3,27
	c0.2,0.5,6,0,9,1c10.1,3.4,10.2,18-2,18c-9,0-3.2-9.4-8-7c-10,5-10.3-1.9-13-1c-7.3,2.4-10.2,16.7-9,27c1.4,12.3,9.2,25.2,22,31
	C46.2,121.8,59.5,121.5,73.5,117.5z"/>
<path style="fill:none;stroke:currentColor;stroke-width:6;stroke-miterlimit:10;" d="M70.5,15.5c-0.7,0.2-5.7,2.1-7,7c-1.1,4.4,1.6,8.1,3,10c1.2,1.6,6,8.2,13,7c5.9-1,10.7-7.1,10-13
	c-0.7-6.3-7.2-9.2-9-10C78.7,15.7,74.9,14,70.5,15.5z"/>
<path style="fill:none;stroke:currentColor;stroke-width:11;stroke-miterlimit:10;" d="M87.5,49.5c-3.5,2.2-3.1,7.6-3,9c0.1,0.8,0.8,9.3,7,11c3.1,0.8,7.1-0.1,9-3c2-2.9,0.9-6.3,0-9
	c-0.7-2.1-2-6.3-6-8C94,49.3,90.4,47.7,87.5,49.5z"/>
<path style="fill:none;stroke:currentColor;stroke-width:11;stroke-miterlimit:10;" d="M80.5,75.5c-4.3-0.3-8.9,2-11,6c-2.3,4.2-0.8,8.5,0,11c0.9,2.6,3.2,9.7,10,11c5,1,10.5-1.6,13-6
	c2.7-4.9,0.7-10.1,0-12c-1.3-3.3-3.3-5.3-4-6C87.2,78.3,84.5,75.8,80.5,75.5z"/>
<path style="fill:none;stroke:currentColor;stroke-width:8;stroke-miterlimit:10;"  d="M44.5,86.5c-4.2,3.2-4,9.8-2,14c2.3,4.6,6.8,6.2,9,7c2.3,0.8,7.8,2.7,11,0c3.7-3.2,1.6-10.6,0-14
	c-0.8-1.7-2.9-6.3-8-8C53.2,85.1,48.2,83.6,44.5,86.5z"/>
<path style="fill:none;stroke:currentColor;stroke-width:6;stroke-miterlimit:10;"  d="M23.5,78.5c-2.6,3.3-1.1,7.6-1,8c0.9,2.5,3.3,5.8,7,6c4,0.2,6.9-3.2,8-6c1.5-4,0.3-9.3-3-11
	c-2.1-1.1-4.6-0.4-6,0C27.2,75.9,25,76.5,23.5,78.5z"/>
</g>
</svg>
