<?xml version="1.0" encoding="utf-8"?>
<!-- Generator: Adobe Illustrator 28.2.0, SVG Export Plug-In . SVG Version: 6.00 Build 0)  -->
<svg version="1.1" id="Layer_1" xmlns="http://www.w3.org/2000/svg" xmlns:xlink="http://www.w3.org/1999/xlink" x="0px" y="0px"
	 viewBox="0 0 128 128" style="enable-background:new 0 0 128 128;" xml:space="preserve">
<g id="icon" fill="#5D0000">
	<path class="st0" d="M48.7,128c-0.4-0.5-0.7-1-1.1-1.5c-1.3-1.5-2.6-2.9-3.9-4.4c-0.6-0.7-1.3-0.8-2.2-0.5
		c-3.9,1.1-8.1-0.8-9.8-4.5c-0.2-0.4-0.3-0.9-0.4-1.3c0.1-0.1,0.2-0.1,0.3-0.2c0.2,0.2,0.4,0.5,0.6,0.7c1.6,2.4,4.5,3.6,7.3,2.9
		c2.7-0.7,4.9-3.4,5-6c0.2-3-1.5-5.6-4.4-6.6c-1.2-0.4-1.5-0.9-1.4-2.1c0.4-7.4,0.9-14.8,1-22.2c0.1-7.4-0.3-14.8-0.7-22.2
		c-0.2-4.1-0.6-8.2-1.2-12.3c-0.7-4.3-3.2-7.3-7.2-8.9c-0.9-0.4-1.2-0.8-1.2-1.7c0.2-2,1.3-3.5,2.7-4.8c2.3-2.2,2.4-5.2,0.3-7.4
		c-1.6-1.7-4.4-1.6-5.7,0.1c-0.7,0.9-0.6,2.3,0.1,3c0.7,0.7,1.6,0.9,2.5,0.4c0.7-0.4,0.8-0.6,0.7-2.3c1,0,1.8,0.8,2,1.9
		c0.2,1.6-0.7,3.1-2.2,3.8c-2.1,1-4.3,0.9-6.2-0.6c-2-1.5-2.6-3.7-2.3-6.1c0.5-3.7,3.8-6.1,6.8-6.1c5,0,9.2-2.4,12.9-5.7
		c3.7-3.4,6-7.5,7.1-12.2c0.1-0.4,0.5-0.7,0.7-1.1c0.3,0.4,0.8,0.7,0.9,1.1c1.6,5.7,4.8,10.5,9.9,13.7c1.8,1.2,4,2,5.9,2.9
		c0.4,0.2,0.8,0.3,1.1,0.4c1.1,0.6,1.3,1.4,0.5,2.3c-1.4,1.4-2.8,2.7-4.3,4c-1.3,1.2-2.2,2.4-2.3,4.3c0,0.1,0,0.2,0,0.3
		c0,0.1,0.1,0.2,0.2,0.3c1-0.4,2-0.8,2.9-1.2C72,24.6,80.6,21,89.2,17.5c1.3-0.6,1.4-0.5,1.5,1c0.2,5,2.2,9.3,4.7,13.5
		c2.6,4.3,5.6,8.4,7.7,12.9c5.6,11.8,5.1,23.5-3.2,33.9c-6.6,8.3-15.8,10.8-26,8.7c-5.3-1.1-9.5-4.2-11.5-9.4
		c-1.4-3.5-1.8-7.1-0.6-10.7c0.2-0.4,0.3-0.8,0.6-1.3c0.2,2,0.1,3.9,0.4,5.6c1.2,6.1,6.3,10.6,12.4,11.4c3.5,0.4,6.8,0.2,9.8-1.8
		c4.1-2.7,5.9-6.7,6.1-11.4c0.3-6.7-1.7-12.8-5.3-18.3c-1.8-2.7-3.7-5.3-5.5-7.9c-2.9-4.1-5.3-8.5-6.1-13.6
		c-0.2-0.9-0.6-1.1-1.4-0.7c-3.9,1.6-7.8,3.3-11.8,4.8c-0.8,0.3-1.2,0.8-1.2,1.7C59.2,42,58.6,48,58,54.1
		c-0.6,5.4-1.1,10.8-1.6,16.2c-0.6,6-1.3,12.1-1.9,18.1c-0.6,5.7-1.1,11.4-1.6,17.1c-0.2,2.3-0.4,4.6-0.5,7c-0.2,2.3,0.8,4,2.5,5.4
		c0.6,0.5,1.3,1,1.9,1.6c0.5,0.4,0.6,0.9,0,1.3c-3,1.9-5.4,4.4-7.5,7.2C49.1,127.9,49,127.9,48.7,128z"/>
	<path class="st0" d="M39.8,106.9c1.5,0.5,2.6,1.5,3.4,2.8c1.7,2.9,0.9,6.5-1.9,8.2c-3,1.9-6.7,1.2-8.5-1.7
		c-1.3-2.1-0.9-4.2-0.2-6.4c0.3-0.8,0.7-1.6,0.9-2.5c0.6-1.9,0.2-2.7-1.6-3.7c-0.2-0.1-0.4-0.3-0.6-0.5c0.9-0.8,1.8-1,2.8-0.8
		c2.2,0.4,3.6,2.4,3.2,4.6c-0.2,0.8,0.1,1,0.8,1.2c2.3,0.7,3.5,2.4,3.3,4.7c-0.2,2-2.3,3.5-4.2,3c-0.9-0.2-1.6-0.8-1.7-1.7
		c-0.1-0.5,0.2-1,0.3-1.5c0.1,0,0.3,0,0.4,0c0.1,0.1,0.3,0.3,0.4,0.4c0.3,0.7,0.9,0.9,1.4,0.5c0.6-0.4,0.7-1,0.3-1.7
		c-0.5-0.8-1.7-1-2.5-0.5c-1.8,1.1-1.7,3.7,0.2,4.8c1.7,1,4,0.8,5.5-0.6c1.5-1.3,2-3.8,1.1-5.6c-0.5-0.9-1.2-1.6-1.8-2.4
		c-0.2-0.3-0.5-0.5-0.8-0.7C39.6,107.1,39.7,107,39.8,106.9z"/>
</g>
</svg>
