<?xml version="1.0" encoding="utf-8"?>
<!-- Generator: Adobe Illustrator 26.5.0, SVG Export Plug-In . SVG Version: 6.00 Build 0)  -->
<svg version="1.1" id="Layer_1" xmlns="http://www.w3.org/2000/svg" xmlns:xlink="http://www.w3.org/1999/xlink" x="0px" y="0px"
	 viewBox="0 0 256 256" style="enable-background:new 0 0 256 256;" xml:space="preserve">
<style type="text/css">
	.st0{fill:#FFFFFF;}
</style>
<path class="st0" d="M218.6,218.6H37.4V37.4h181.3V218.6z M118,181c7.6,5.1,12.3,12.8,18.7,18.9c1.8,4.9,6.3,8,8.3,12.7
	c0.2,0.5,0.7,0.9,1.2,1.2c0.5,0.3,0.6,1.5,1.6,0.8c0.2-1.9,0.2-3.4-1.2-5c-3.2-3.8-5.8-7.9-8.7-11.9c-3-4.1-6-8.3-9.1-12.6
	c0.3-2.3,0.3-4.7,0.9-6.9c0.6-2.3,0.5-4.8,2.2-6.9c1.3-1.7,2-3.9,3-6.3c-2.8,0-5.1,0-6.9,0c-1.8-1.2-3.1-2.1-4.3-3
	c-1.8-3.2-3.1-6.7-2.4-10.5c-4.4-2.7-9-3-13.8-4.7c1,2.6,2.1,4.5,2.5,6.4c0.4,2.1,0.1,4.4,0.1,6.6c-2,1.6-3.9,3.1-6.1,4.7
	c1.4,3.5,2.7,6.7,4,9.9C112,176.2,114.8,178.8,118,181z M114.8,46.2c-4.1,2.4-8.6,4.8-11.2,8.7c-3.2,4.9-4.3,10.8-3.5,16.8
	c2.5,2.8,2.1,7,5,9.6c3.1,2.7,5.8,5.7,8.4,8.3c10,3.3,19.6,4.6,28.4-1.1c1.8-4.1,5.2-7.2,4.9-12.1c-4.5,3.6-8.5,6.9-12.7,10.3
	c-5.1-0.7-10.3,1-15.3-0.9c-3.2-1.2-6.2-3-9.3-4.5c-0.7-1.5-1.3-2.9-1.9-4.3c1-0.5,1.8-0.8,2.9-1.2c-4.2-5.7-5.1-11.5-2.1-18.3
	c0.6-0.6,1.5-1.7,2.7-2.6c0.9-0.8,2-1.5,3.1-2c2.1-0.8,4.2-1.5,6.4-2c1.2-0.3,2.3,0.4,3.5,0.9c2.8,1.2,6,1.7,9,2.4
	c0.4,0.1,1-0.2,1.5-0.3c0-0.9,0-1.6,0-2.5c-1.3-1.2-2.6-2.5-3.7-3.5c-1.4-0.4-2.5-0.8-3.8-1.2c-0.8,0.7-2,1.5-3.6,2.8
	c-2.9,0-6.5,0-11.1,0c1.7-1.2,2.5-1.8,3.4-2.4C115.4,46.9,115.1,46.6,114.8,46.2z M96.2,190.1c3.8,0.6,7.5,1.1,11.2,1.6
	c5,3.7,10,7.4,15,11c-0.5,3.2,0.5,5.6,2.7,7.7c3.4-1.1,6.8,2.4,11,0.4c-2.6-3.6-4.9-6.9-7.4-10.1c-1.1-1.4-2.4-2.9-4-3.7
	c-3-1.5-5.7-3.4-8.4-5.3c-2.4-1.8-4.8-3.9-7.5-4.6c-6-1.6-12-4.2-18.9-3.3C92.3,186.1,94.3,188.2,96.2,190.1z M142,186.1
	c3.1,5.7,6.9,10.7,11,15.7c3.2-3.7,6.3-7.3,9.5-11.1c-3.9-4.9-8-10-12.2-15.2C147.3,179.2,144.7,182.5,142,186.1z M57.2,78.7
	c-0.6,1.6-1.4,3.1-2.3,4.6c-1.4,2.3-1,4.1,1.1,5.7c3.5-4,6.9-7.9,10.4-11.9c0-1.1,0-2.4,0-3.3c-2-0.7-3.7-1.3-5.9-2.1
	c1.2-0.4,1.8-0.7,2.5-0.9c0-1.4,0-2.8,0-4.1c-2-0.4-3.3,2.4-4.9,0.9c-0.6-5.3-1.2-10.3-1.9-16.4c-0.7,2.6-0.7,4.3-1.5,5.5
	c-1.5,2.3-1.5,4.7-1.4,7.2c0,1.3,0.4,2.8-0.1,3.9c-2.1,4.8-0.5,9.6-0.4,14.5c1.5-2.2,3-4.4,5-7.4C57.5,76.7,57.6,77.8,57.2,78.7z
	 M137.7,138.2c2.9-2.2,5.9-4.5,9.1-6.9c0,0.2,0-0.2,0-0.9c-1.4-0.1-2.7-0.1-3.7-0.2c-2.9,2.4-5.7,4.1-7.7,6.6
	c-1.7,2.1-3.5,4-5.2,6.2c-3.6,4.6-6.6,9.6-5.5,15.9c1.4,0.7,1.7,3,4.3,2.4c0-0.8,0.1-1.7,0-2.6c-0.4-3.9,1.4-6.6,3.7-9.6
	c2.6-3.3,5.4-6.1,8.7-8.5c0.8-0.6,1.4-1.4,2.8-2.8c-2.7,0.7-4.3,1.1-5.9,1.5C138.1,138.9,137.9,138.6,137.7,138.2z M172.1,126
	c-1.7-3.9-2.4-8.2-4.1-12.2c0,3.8,0,7.7,0,12c-3.4,1.2-7.1,1.7-10.1,3.8c0,0.3,0,0.7,0,1.1c3.2-0.9,6.5-0.4,8.7-0.5
	c1.8,1.3,2.8,2,4,2.9c-0.8,2.8-1.6,5.4-2.4,8.2c1.4-0.4,2.7-0.8,4-1.1c1.5-0.4,3-0.8,5.2-1.5C175.5,134.2,173.9,130.1,172.1,126z
	 M190.4,181.5c3.3,0,6.5,0,9.5,0c1.2,2.1-2.7,3.6,0.2,5.6c2-3.3,4-6.6,5.9-9.8c-0.8-3,1.1-6.4-1.5-9.1c-3.1,0-6.2,0-8.7,0
	c-1.6,1.6-2.8,2.9-4,4.1c3.2,1.7,7.4,0.8,10.6,3c0,1.3,0,2.6,0,3.9c-3.3-0.4-6.4-0.8-9.5-1.3c0.2,0.3,0.3,0.7,0.5,1
	c-1.1,0.6-2.2,1.3-3.3,1.9C190.3,181.1,190.3,181.3,190.4,181.5z M127.1,132.2c-0.4-1.6-0.4-3.2-0.5-4.4
	c-3.4-8.2-9.5-13.6-15.8-19.3c-0.5,0.9-0.7,1.3-0.9,1.7c2.2,2.7,4.6,5.2,6.4,8.1c1.9,2.8,4,5.6,4.9,9.1c1,3.7,3.2,7,7.9,8.9
	C128.2,134.5,127.4,133.4,127.1,132.2z M146.9,172c-2-1.9-3.4-3.3-5-5c-3.4,2.5-4.3,6.9-6.4,10.7c1,2,1.9,3.9,3.2,6.5
	C141.4,179.5,145,175.8,146.9,172z M136.8,153.6c1.2-2,2.2-3.6,3.3-5.2c-1.9,0.8-3.3,2-4.2,3.5c-1.3,2.2-2.4,4.5-3.5,6.8
	c-0.2,0.4,0.1,1,0.2,1.6c1,0,1.9,0,2.7,0C136.9,158,136.9,155.6,136.8,153.6z M117.1,130.3c-0.6,0.7-1.2,1.2-1.4,1.9
	c-0.2,0.6,0,1.4,0,2c2.5,1.4,4.8,2.8,7.6,4.4c0-1.5,0-2.4,0-3.8C121.4,133.5,119.3,131.9,117.1,130.3z M145.9,153.1
	c-1.7-0.5-3-0.9-4.3-1.3c-0.4,1.3-1,3-1.5,4.6c-0.1,0.5,0.1,1,0.2,1.6c1,0,1.9,0,3.1,0C144.2,156.4,145.1,154.8,145.9,153.1z
	 M134.5,171c-0.4,0.8-0.7,1.6-1,2.5c3.2-2.8,5.6-5.9,7.5-9.6C137.7,165.4,136,168.1,134.5,171z M69.1,79.8c-2.2,2-6.2,1.4-7.3,6.3
	c3.2-2,5.7-3.6,8.2-5.2C69.7,80.5,69.4,80.2,69.1,79.8z M79.2,86.7c-0.6-0.1-1.2-0.6-1.9-0.8c-6.7-1.9-13.3,1.6-15.3,8.5
	c-1.9,6.8-2.1,12.4,1.2,18.6c1,1.8,2,3.7,3.3,5.3c3.1,4.1,5.9,8.6,10.7,10.7c4.7,0,9.1,0,13.7,0c1.6-1.3,3.4-2.6,4.9-4.1
	c1.6-1.7,2.8-3.6,4.5-5.9c-0.5-4.4-1-9.3-1.4-13.6c-4.2-7.4-9.2-13.5-15.2-18.7C82.2,86.7,80.7,86.8,79.2,86.7z M67.1,93.3
	c0.2,0.4,0.6,0.8,0.5,1c-1.5,4.2-1,4.9-0.2,10.8c0.5,3.3,1.4,6.4,3.4,8.6c3.1,3.4,6,7,10.7,8.9c2.8,1.1,5.3,0.3,7.3,0.8
	c7.3-2.4,5.2-8.1,5.7-13.6c0.9,0.8,1.4,1.2,2,1.8c0,2.2,0,4.4,0,7.2c-1.7,2.1-3.8,4.5-5.7,6.9c-4,0-7.7,0-11.4,0
	c-13.3-10.8-15-11.2-13.9-30.5C66.1,94.5,66.6,93.9,67.1,93.3z"/>
</svg>
