<?xml version="1.0" encoding="UTF-8" standalone="no"?>
<svg
   width="128px"
   height="128px"
   version="1.1"
   viewBox="0 0 128 128"
   id="svg4"
   xmlns="http://www.w3.org/2000/svg"
   xmlns:svg="http://www.w3.org/2000/svg">
  <g
     id="icon"
     transform="matrix(0.25396835,0,0,0.25396824,-1.015923,-1.0159202)">
    <path
       d="m 480,288 v -32 h -96 v 160 h 32 v -64 h 48 v -32 h -48 v -32 z"
       id="path1" />
    <path
       d="M 304,416 H 240 V 256 h 64 c 27.199,0 48,20.801 48,48 v 64 c 0,27.199 -20.801,48 -48,48 z m -32,-32 h 32 c 9.6016,0 16,-6.3984 16,-16 v -64 c 0,-9.6016 -6.3984,-16 -16,-16 h -32 z"
       id="path2" />
    <path
       d="M 176,256 H 96 v 160 h 32 v -48 h 48 c 17.602,0 32,-14.398 32,-32 v -48 c 0,-17.602 -14.398,-32 -32,-32 z m -48,80 v -48 h 48 v 48 z"
       id="path3" />
    <path
       d="m 352,224 v -64 c 0,-4.8008 -1.6016,-8 -4.8008,-11.199 l -112,-112 C 232,33.6018 228.8008,32.0002 224.0002,32.0002 h -160 c -17.602,0 -32,14.398 -32,32 v 384 c 0,17.602 14.398,32 32,32 h 256 v -32 h -256 v -384 h 128 v 96 c 0,17.602 14.398,32 32,32 h 96 v 32 z M 224,160 V 70.398 L 313.602,160 Z"
       id="path4" />
  </g>
</svg>
