<?xml version="1.0" encoding="UTF-8"?>
<svg xmlns="http://www.w3.org/2000/svg" version="1.1" viewBox="0 0 128 128">
  <!-- Generator: Adobe Illustrator 28.6.0, SVG Export Plug-In . SVG Version: 1.2.0 Build 709)  -->
  <g>
    <g id="Layer_1">
      <path id="icon" d="M118.8,4.4H8.9C3.9,4.4-.2,8.5-.2,13.5v68.8c0,5.1,4.1,9.2,9.2,9.2h58.6l31.4,31.5c.4.4,1,.7,1.6.7s.6,0,.9-.2c.9-.3,1.4-1.2,1.4-2.1v-29.8h16c5.1,0,9.2-4.1,9.2-9.2V13.5c0-5.1-4.1-9.2-9.2-9.2h0ZM59.3,47.9c0,0,0,2.2-.6,5-1.2,6.1-6,20.2-24.6,20.2s-1.9-.7-2.2-1.7c-.3-1,.1-2.1,1-2.6.3-.2,7.1-4.5,9.5-14.1h-12.9c-1.3,0-2.3-1-2.3-2.3v-27.5c0-1.3,1-2.3,2.3-2.3h27.5c1.3,0,2.3,1,2.3,2.3v22.9ZM100.5,47.9c0,0,0,2.2-.6,5-1.2,6.1-6,20.2-24.6,20.2s-1.9-.7-2.2-1.7c-.3-1,.1-2.1,1-2.6.3-.2,7.1-4.5,9.5-14.1h-12.9c-1.3,0-2.3-1-2.3-2.3v-27.5c0-1.3,1-2.3,2.3-2.3h27.5c1.3,0,2.3,1,2.3,2.3v22.9Z" fill="currentColor"/>
    </g>
  </g>
</svg>