<?xml version="1.0" encoding="UTF-8" standalone="no"?>
<svg
   width="128"
   height="128"
   version="1.1"
   viewBox="0 0 128 128"
   id="svg1"
   sodipodi:docname="save.svg"
   inkscape:version="1.4 (e7c3feb1, 2024-10-09)"
   xmlns:inkscape="http://www.inkscape.org/namespaces/inkscape"
   xmlns:sodipodi="http://sodipodi.sourceforge.net/DTD/sodipodi-0.dtd"
   xmlns="http://www.w3.org/2000/svg"
   xmlns:svg="http://www.w3.org/2000/svg">
  <path
     id="icon"
     fill="currentColor"
     d="M 98.08386,7.3087694 73.73825,29.219819 V 82.780165 L 98.08386,60.86912 Z M 37.219825,21.916139 c -9.251334,0 -19.476491,1.947651 -26.780176,7.30368 v 71.576101 c 0,0.97383 0.973825,2.43456 2.43456,2.43456 0.486914,0 0.486914,-0.48691 0.973826,-0.48691 6.329861,-2.921468 16.068105,-5.356035 23.37179,-5.356035 9.251333,0 19.963404,1.947646 26.780174,7.303695 6.81677,-4.38222 18.502672,-7.303695 26.780177,-7.303695 7.790597,0 16.555004,1.460744 23.371794,5.356035 0.4869,0.48691 0.4869,0 0.97382,0 0.97383,0 2.43456,-0.97382 2.43456,-2.43456 V 29.219819 c -2.92148,-1.94765 -5.84295,-3.895302 -9.73825,-4.869121 v 65.733159 c -5.35603,-1.947646 -11.198982,-2.434558 -17.041924,-2.434558 -8.277505,0 -19.963407,2.921469 -26.780177,7.303678 V 29.219819 c -6.81677,-5.356029 -17.528841,-7.30368 -26.780174,-7.30368 z"
     style="stroke-width:1" />
</svg>
