<?xml version="1.0" encoding="utf-8"?>
<!-- Generator: Adobe Illustrator 28.5.0, SVG Export Plug-In . SVG Version: 9.03 Build 54727)  -->
<svg version="1.1" xmlns="http://www.w3.org/2000/svg" xmlns:xlink="http://www.w3.org/1999/xlink" x="0px" y="0px"
	 viewBox="0 0 128 128" style="enable-background:new 0 0 128 128;" xml:space="preserve">
	<path 
      id="icon"
      fill="currentColor"
      d="M127.6,28.5c-0.7-1.1-1.9-1.8-3.1-1.5L2.5,47.8c-1.2,0.3-2.2,1.1-2.4,2.3c-0.3,1.2,0.1,2.4,1.2,3.1l20.3,14.4l70.2-22.4
		L32,77.4v20.5c0,1.1,0.5,2.2,1.6,2.7c0.4,0.3,0.9,0.4,1.5,0.4c0.5,0,1.1-0.1,1.6-0.5L53,90l11.2,8c0.5,0.4,1.1,0.5,1.8,0.5
		c0.8,0,1.6-0.4,2.3-0.9l59-65.5C128.1,31.1,128.2,29.6,127.6,28.5z"/>
</svg>
