<?xml version="1.0" encoding="UTF-8"?>
<svg id="svg1" xmlns="http://www.w3.org/2000/svg" xmlns:svg="http://www.w3.org/2000/svg" version="1.1" viewBox="0 0 128 128">
  <!-- Generator: Adobe Illustrator 29.8.2, SVG Export Plug-In . SVG Version: 2.1.1 Build 3)  -->
  <path id="icon" fill="currentColor" d="M125.2,51.5L81.8,12.1c-1.2-1.1-2.8-1.3-4.3-.7-1.4.6-2.3,2-2.3,3.6v17c-11.1,0-37.3,2.5-54.4,24-8.6,10.8-11.5,29.7-12.6,36.8v.5c-.4,1.7.6,3.4,2.2,4.2.5.2,1.1.4,1.7.4,1.1,0,2.2-.5,3-1.4,6.3-7.3,17.3-17.2,33.7-22.5,8.5-2.8,17.4-3.9,26.4-3.5v19.5c0,1.5.9,2.9,2.3,3.6,1.4.6,3,.5,4.2-.5l43.4-35.5c.9-.7,1.4-1.8,1.4-2.9,0-1.1-.4-2.2-1.3-3h0Z"/>
</svg>