<?xml version="1.0" encoding="utf-8"?>
<!-- Generator: Adobe Illustrator 28.2.0, SVG Export Plug-In . SVG Version: 6.00 Build 0)  -->
<svg version="1.1" id="Layer_1" xmlns="http://www.w3.org/2000/svg" xmlns:xlink="http://www.w3.org/1999/xlink" x="0px" y="0px"
	 viewBox="0 0 128 128" style="enable-background:new 0 0 128 128;" xml:space="preserve">
<g id="icon" transform="translate(57.439084,763.91984)">
	<path id="path4150" style="fill:currentColor;stroke:currentColor;stroke-width:1.5252;" d="M3.6-759c-30.5,0-55.2,24.7-55.2,55.2l0,0c0,30.5,24.7,55.2,55.2,55.2l0,0
		c30.5,0,55.2-24.7,55.2-55.2l0,0C58.8-734.3,34.1-759,3.6-759L3.6-759z M8.8-753.2c27.6,0,49.9,22.3,49.9,49.9l0,0
		c0,27.6-22.3,49.9-49.9,49.9l0,0c-27.6,0-49.9-22.3-49.9-49.9l0,0C-41.1-730.8-18.8-753.2,8.8-753.2L8.8-753.2z"/>
	<path id="path4155" style="fill:currentColor;stroke:currentColor;stroke-width:1.5252;" d="M58.4-700.4C53-699.8,47.5-712,49.6-718c1.8-5.1,10.3-6.9,13.4-2.6
		C66.9-715.1,64-701,58.4-700.4z"/>
	<polygon id="rect4171" style="fill:currentColor;stroke:currentColor;stroke-width:1.5252;" points="14.6,-677.8 26.3,-677.8 52.4,-639.3 40.8,-639.3 	"/>
</g>
</svg>
