<?xml version="1.0" encoding="utf-8"?>
<!-- Generator: Adobe Illustrator 28.0.0, SVG Export Plug-In . SVG Version: 6.00 Build 0)  -->
<svg version="1.1" id="Layer_1" xmlns="http://www.w3.org/2000/svg" xmlns:xlink="http://www.w3.org/1999/xlink" x="0px" y="0px"
	 viewBox="0 0 128 128" style="enable-background:new 0 0 128 128;" xml:space="preserve">
<path id="icon" fill="currentColor" d="M119.6,56.6L91.4,41.3v0.4c0-0.1-0.1-0.3-0.1-0.4h0.1l0,0l0.9-9.7C94.2,14.8,81.1,0,64.1,0h-0.9
	C46.5,0,33.2,14.8,35.4,31.6l0.9,9.7h0.1c0,0.1,0,0.1,0,0.3l-27.9,15c-3.3,1.9-3.3,6.7,0,8.6L31.1,73c-2.7,14.8-6.3,34.2-5.8,50.4
	c0,1.4,1.3,2.6,2.7,2.6h20c1.3,0,2.3-0.9,2.6-2.1c1-4.4,5-11.1,9.8-11.1h7.3c4.8,0,8.8,6.7,9.8,11.1c0.3,1.3,1.3,2.1,2.6,2.1h20
	c1.4,0,2.7-1.1,2.7-2.6c0.3-16.1-3.3-35.3-5.8-50.2l22.8-8.1C122.9,63.3,122.9,58.4,119.6,56.6z"/>
</svg>
