<?xml version="1.0" encoding="UTF-8"?>
<svg id="Layer_1" data-name="Layer 1" xmlns="http://www.w3.org/2000/svg" version="1.1" viewBox="0 0 128 128">
  <g fill="currentColor" id="icon">
    <path class="cls-1" d="M73.3,68.4l-10.8-23c2.7-3.5,4.2-7.8,4.2-12.5,0-9.4-6.2-17.4-14.7-20.1V4.6c0-1.5-1.2-2.7-2.7-2.7h-7.5c-1.5,0-2.7,1.2-2.7,2.7v8.2c-8.4,2.7-14.4,10.6-14.4,19.9s1.6,9,4.2,12.5l-12.8,27.5c-.9-.7-1.9-1.3-2.7-2.2-2-1.8-5.1-1.5-6.7.5-1.8,2-1.5,5,.5,6.7,1.5,1.3,3.1,2.6,4.9,3.6l-7.9,17c-.5,1.3-.8,2.8-.5,4.3l2.3,13.7c.3,1.9,2.8,2.2,3.6.4l13.9-29.6c5.4,2,11.5,3.2,17.5,3.8v2.8c0,2.7,2.2,4.9,4.9,4.9s4.7-2.2,4.7-4.9v-2.8c6.2-.4,12-1.8,17.4-3.6l5.5-19ZM45.7,24.5c4.6,0,8.2,3.8,8.2,8.2s-3.8,8.4-8.2,8.4-8.2-3.8-8.2-8.4,3.6-8.2,8.2-8.2h0ZM50.4,81.4v-2.4c0-2.7-2.2-4.9-4.7-4.9s-4.9,2.2-4.9,4.9v2.4c-4.7-.4-9.3-1.3-13.5-2.8l12-25.7c2,.7,4,.9,6.3.9s4.3-.3,6.3-.9l12,25.7c-4.2,1.6-8.8,2.6-13.6,2.8h0Z"/>
    <path class="cls-1" d="M121.7,5.3L103.8.1c-.8-.3-1.8-.1-2.6.3-.8.4-1.3,1.2-1.6,2l-33.1,116.1c-.3.8-.1,1.8.3,2.6.4.8,1.2,1.3,2,1.6l17.9,5.1c.3.1.7.1.9.1,1.5,0,2.8-.9,3.2-2.4l2.7-9.3-6.7-1.9c-1.9-.5-3-2.6-2.4-4.4.5-1.9,2.6-3,4.4-2.4l6.7,1.9,3.2-11.3-6.7-1.9c-1.9-.5-3-2.6-2.4-4.4.5-1.9,2.6-3,4.4-2.4l6.7,1.9,3.2-11.3-6.7-1.9c-1.9-.5-3-2.6-2.4-4.4.5-1.9,2.6-3,4.4-2.4l6.7,1.9,3.2-11.3-6.7-1.9c-1.9-.5-3-2.6-2.4-4.4.5-1.9,2.6-3,4.4-2.4l6.7,1.9,3.2-11.3-6.7-1.9c-1.9-.5-3-2.6-2.4-4.4.5-1.9,2.6-3,4.4-2.4l6.7,1.9,3.2-11.3-6.7-1.9c-1.9-.5-3-2.6-2.4-4.4.5-1.9,2.6-3,4.4-2.4l6.7,1.9,2.7-9.3c0-1.5-1.1-3.4-2.8-3.9h0Z"/>
  </g>
</svg>