<?xml version="1.0" encoding="UTF-8"?>
<svg id="Layer_1" xmlns="http://www.w3.org/2000/svg" version="1.1" viewBox="0 0 128 128">
  <!-- Generator: Adobe Illustrator 29.6.1, SVG Export Plug-In . SVG Version: 2.1.1 Build 9)  -->
  <g id="icon" color="currentColor" fill="currentColor">
    <path d="M29.6,71c0-1.7,1.3-3,3-3s3,1.3,3,3c0,7.8,3.2,14.9,8.3,20.1,5.1,5.1,12.2,8.3,20.1,8.3s14.9-3.2,20.1-8.3c5.1-5.1,8.3-12.2,8.3-20.1s-3.2-14.9-8.3-20.1c-4.5-4.5-10.4-7.5-17.1-8.2v14.4c0,1.7-1.3,3-3,3s-1.4-.2-1.9-.7l-38.3-27c-1.4-1-1.7-2.8-.7-4.2.2-.3.5-.6.8-.8L62.3.5c1.4-1,3.2-.6,4.2.7.4.5.5,1.1.5,1.7h0v11.1c14.5.8,27.6,7,37.3,16.6,10.3,10.3,16.7,24.6,16.7,40.3s-6.4,30-16.7,40.3c-10.3,10.3-24.6,16.7-40.3,16.7s-30-6.4-40.3-16.7c-10.3-10.3-16.7-24.6-16.7-40.3s1.3-3,3-3,3,1.3,3,3c0,14.1,5.7,26.8,14.9,36.1,9.2,9.2,22,14.9,36.1,14.9s26.8-5.7,36.1-14.9c9.2-9.2,14.9-22,14.9-36.1h-16.6c0,9.5-3.9,18.1-10.1,24.3-6.2,6.2-14.8,10.1-24.3,10.1s-18.1-3.9-24.3-10.1-10.1-14.8-10.1-24.3h0Z"/>
  </g>
</svg>