<?xml version="1.0" encoding="utf-8"?>
<!-- Generator: Adobe Illustrator 28.3.0, SVG Export Plug-In . SVG Version: 6.00 Build 0)  -->
<svg version="1.1" id="Layer_1" xmlns="http://www.w3.org/2000/svg" xmlns:xlink="http://www.w3.org/1999/xlink" x="0px" y="0px"
	 viewBox="0 0 128 128" style="enable-background:new 0 0 128 128;" xml:space="preserve">
<path id="icon" style="fill-rule:evenodd;clip-rule:evenodd;fill:currentColor" d="M17.9,16.9h39.8L47.1,34.2H8v-7.4C8,21.3,12.5,16.9,17.9,16.9z M69.9,16.9h9.4L68.7,34.2h-9.4L69.9,16.9z
	 M91.5,16.9h9.4L90.4,34.2H81L91.5,16.9z M112.9,17.3c4.2,1.3,7.1,5,7.1,9.5v7.4h-17.3L112.9,17.3z M120,41.2v60
	c0,5.4-4.5,9.9-9.9,9.9H17.9c-5.4,0-9.9-4.5-9.9-9.9v-60H120z M53.5,97.2L78.7,78L53.5,59V97.2z"/>
</svg>
