<?xml version="1.0" encoding="UTF-8" standalone="no"?>
<!DOCTYPE svg PUBLIC "-//W3C//DTD SVG 1.1//EN" "http://www.w3.org/Graphics/SVG/1.1/DTD/svg11.dtd">
<svg width="100%" height="100%" viewBox="0 0 256 256" version="1.1" xmlns="http://www.w3.org/2000/svg" xmlns:xlink="http://www.w3.org/1999/xlink" xml:space="preserve" xmlns:serif="http://www.serif.com/" style="fill-rule:evenodd;clip-rule:evenodd;stroke-linejoin:round;stroke-miterlimit:2;">
    <rect id="Artboard1" x="0" y="0" width="256" height="256" style="fill:none;"/>
    <clipPath id="_clip1">
        <rect id="Artboard11" serif:id="Artboard1" x="0" y="0" width="256" height="256"/>
    </clipPath>
    <g clip-path="url(#_clip1)">
        <g transform="matrix(1.55396,0,0,1.55396,-15.4829,-18.3727)">
            <circle cx="92.334" cy="94.193" r="82.37" style="fill:rgb(239,255,66);"/>
        </g>
        <g transform="matrix(0.499707,0,0,0.499707,3.32305,0.149912)">
            <path d="M55,212.8L117.6,-0.3L158.6,118.7L183.6,113.7L230.9,264.9L182.4,196L77.8,211.5L221.1,442.5L239.3,421L239.3,320.1L249.6,287.2L259.8,320.1L259.8,421L281.4,433.9L416.8,211.5L444,213.2L249.5,512L55,212.8ZM421.2,211.5L316.6,203.8L268.1,264.9L315.4,113.7L340.5,118.7L381.4,-0.3L444,212.8L421.2,211.5ZM249.2,280.4L170,27.7L232.6,179.1L249.6,100.7L265.6,166.4L328.3,27.7L249.2,280.4ZM175,262.3C184.107,262.3 191.5,270.679 191.5,281C191.5,291.321 184.107,299.7 175,299.7C165.893,299.7 158.5,291.321 158.5,281C158.5,270.679 165.893,262.3 175,262.3ZM329.8,261.7C338.907,261.7 346.3,270.079 346.3,280.4C346.3,290.721 338.907,299.1 329.8,299.1C320.693,299.1 313.3,290.721 313.3,280.4C313.3,270.079 320.693,261.7 329.8,261.7Z" style="fill:rgb(0,77,98);"/>
        </g>
    </g>
</svg>
